BASTELEUR_V1.ufo
<glyph name="numbersign" format="2">
	<advance width="895"/>
	<unicode hex="0023"/>
	<outline>
		<contour>
			<point x="452" y="-12" type="curve" smooth="yes"/>
			<point x="489" y="-23"/>
			<point x="533" y="-12"/>
			<point x="546" y="40" type="curve" smooth="yes"/>
			<point x="574" y="154"/>
			<point x="554" y="147"/>
			<point x="620" y="386" type="curve" smooth="yes"/>
			<point x="690" y="646"/>
			<point x="701" y="611"/>
			<point x="728" y="725" type="curve" smooth="yes"/>
			<point x="739" y="775"/>
			<point x="719" y="803"/>
			<point x="683" y="813" type="curve" smooth="yes"/>
			<point x="647" y="823"/>
			<point x="602" y="807"/>
			<point x="590" y="757" type="curve" smooth="yes"/>
			<point x="561" y="644"/>
			<point x="576" y="671"/>
			<point x="512" y="409" type="curve" smooth="yes"/>
			<point x="452" y="167"/>
			<point x="433" y="186"/>
			<point x="406" y="73" type="curve" smooth="yes"/>
			<point x="394" y="23"/>
			<point x="417" y="-2"/>
		</contour>
		<contour>
			<point x="737" y="208" type="curve" smooth="yes"/>
			<point x="782" y="207"/>
			<point x="807" y="244"/>
			<point x="807" y="278" type="curve" smooth="yes"/>
			<point x="807" y="312"/>
			<point x="787" y="336"/>
			<point x="742" y="339" type="curve" smooth="yes"/>
			<point x="639" y="343"/>
			<point x="666" y="324"/>
			<point x="428" y="325" type="curve" smooth="yes"/>
			<point x="210" y="325"/>
			<point x="220" y="341"/>
			<point x="117" y="344" type="curve" smooth="yes"/>
			<point x="69" y="345"/>
			<point x="50" y="308"/>
			<point x="50" y="273" type="curve" smooth="yes"/>
			<point x="51" y="240"/>
			<point x="66" y="213"/>
			<point x="112" y="211" type="curve" smooth="yes"/>
			<point x="214" y="208"/>
			<point x="203" y="229"/>
			<point x="423" y="224" type="curve" smooth="yes"/>
			<point x="661" y="217"/>
			<point x="634" y="210"/>
		</contour>
		<contour>
			<point x="204" y="-12" type="curve" smooth="yes"/>
			<point x="241" y="-23"/>
			<point x="285" y="-12"/>
			<point x="298" y="40" type="curve" smooth="yes"/>
			<point x="326" y="154"/>
			<point x="306" y="147"/>
			<point x="372" y="386" type="curve" smooth="yes"/>
			<point x="442" y="646"/>
			<point x="453" y="611"/>
			<point x="480" y="725" type="curve" smooth="yes"/>
			<point x="491" y="775"/>
			<point x="471" y="803"/>
			<point x="435" y="813" type="curve" smooth="yes"/>
			<point x="399" y="823"/>
			<point x="354" y="807"/>
			<point x="342" y="757" type="curve" smooth="yes"/>
			<point x="313" y="644"/>
			<point x="328" y="671"/>
			<point x="264" y="409" type="curve" smooth="yes"/>
			<point x="204" y="167"/>
			<point x="185" y="186"/>
			<point x="158" y="73" type="curve" smooth="yes"/>
			<point x="146" y="23"/>
			<point x="169" y="-2"/>
		</contour>
		<contour>
			<point x="775" y="436" type="curve" smooth="yes"/>
			<point x="820" y="435"/>
			<point x="845" y="472"/>
			<point x="845" y="506" type="curve" smooth="yes"/>
			<point x="845" y="540"/>
			<point x="825" y="564"/>
			<point x="780" y="567" type="curve" smooth="yes"/>
			<point x="677" y="571"/>
			<point x="704" y="552"/>
			<point x="466" y="553" type="curve" smooth="yes"/>
			<point x="248" y="553"/>
			<point x="258" y="569"/>
			<point x="155" y="572" type="curve" smooth="yes"/>
			<point x="107" y="573"/>
			<point x="88" y="536"/>
			<point x="88" y="501" type="curve" smooth="yes"/>
			<point x="89" y="468"/>
			<point x="104" y="441"/>
			<point x="150" y="439" type="curve" smooth="yes"/>
			<point x="252" y="436"/>
			<point x="241" y="457"/>
			<point x="461" y="452" type="curve" smooth="yes"/>
			<point x="699" y="445"/>
			<point x="672" y="438"/>
		</contour>
	</outline>
</glyph>
<glyph name="dollar" format="2">
	<advance width="775"/>
	<unicode hex="0024"/>
	<outline>
		<contour>
			<point x="380" y="-89" type="curve" smooth="yes"/>
			<point x="419" y="-91"/>
			<point x="460" y="-68"/>
			<point x="460" y="-14" type="curve" smooth="yes"/>
			<point x="460" y="105"/>
			<point x="442" y="93"/>
			<point x="447" y="374" type="curve" smooth="yes"/>
			<point x="453" y="678"/>
			<point x="471" y="646"/>
			<point x="471" y="765" type="curve" smooth="yes"/>
			<point x="471" y="817"/>
			<point x="443" y="840"/>
			<point x="405" y="841" type="curve" smooth="yes"/>
			<point x="368" y="842"/>
			<point x="326" y="815"/>
			<point x="327" y="763" type="curve" smooth="yes"/>
			<point x="329" y="644"/>
			<point x="335" y="675"/>
			<point x="335" y="371" type="curve" smooth="yes"/>
			<point x="335" y="88"/>
			<point x="313" y="102"/>
			<point x="313" y="-16" type="curve" smooth="yes"/>
			<point x="313" y="-68"/>
			<point x="343" y="-87"/>
		</contour>
		<component base="S" xScale="0.974" yScale="0.974" xOffset="10" yOffset="10"/>
	</outline>
</glyph>
<glyph name="ampersand" format="2">
	<advance width="994"/>
	<unicode hex="0026"/>
	<anchor x="1236" y="0" name="bottom"/>
	<anchor x="1236" y="373" name="center"/>
	<anchor x="1236" y="745" name="top"/>
	<outline>
		<contour>
			<point x="407" y="-14" type="curve" smooth="yes"/>
			<point x="498" y="-14"/>
			<point x="546" y="32"/>
			<point x="621" y="32" type="curve" smooth="yes"/>
			<point x="691" y="32"/>
			<point x="701" y="-13"/>
			<point x="761" y="-13" type="curve" smooth="yes"/>
			<point x="809" y="-13"/>
			<point x="835" y="24"/>
			<point x="835" y="58" type="curve" smooth="yes"/>
			<point x="835" y="104"/>
			<point x="779" y="114"/>
			<point x="755" y="144" type="curve" smooth="yes"/>
			<point x="731" y="174"/>
			<point x="715" y="186"/>
			<point x="713" y="270" type="curve" smooth="yes"/>
			<point x="712" y="307"/>
			<point x="721" y="338"/>
			<point x="761" y="344" type="curve" smooth="yes"/>
			<point x="805" y="351"/>
			<point x="830" y="331"/>
			<point x="849" y="299" type="curve" smooth="yes"/>
			<point x="873" y="258"/>
			<point x="897" y="231"/>
			<point x="934" y="242" type="curve" smooth="yes"/>
			<point x="964" y="251"/>
			<point x="970" y="309"/>
			<point x="960" y="391" type="curve" smooth="yes"/>
			<point x="952" y="457"/>
			<point x="923" y="519"/>
			<point x="870" y="519" type="curve" smooth="yes"/>
			<point x="807" y="519"/>
			<point x="839" y="434"/>
			<point x="394" y="444" type="curve" smooth="yes"/>
			<point x="210" y="448"/>
			<point x="175" y="453"/>
			<point x="195" y="524" type="curve"/>
			<point x="223" y="604"/>
			<point x="291" y="660"/>
			<point x="380" y="660" type="curve" smooth="yes"/>
			<point x="472" y="660"/>
			<point x="533" y="630"/>
			<point x="585" y="547" type="curve" smooth="yes"/>
			<point x="620" y="491"/>
			<point x="654" y="494"/>
			<point x="677" y="524" type="curve" smooth="yes"/>
			<point x="696" y="549"/>
			<point x="715" y="664"/>
			<point x="713" y="695" type="curve" smooth="yes"/>
			<point x="710" y="738"/>
			<point x="687" y="740"/>
			<point x="621" y="730" type="curve" smooth="yes"/>
			<point x="552" y="720"/>
			<point x="529" y="760"/>
			<point x="407" y="760" type="curve" smooth="yes"/>
			<point x="204" y="760"/>
			<point x="30" y="586"/>
			<point x="30" y="373" type="curve" smooth="yes"/>
			<point x="30" y="160"/>
			<point x="194" y="-14"/>
		</contour>
		<contour>
			<point x="437" y="122" type="curve" smooth="yes"/>
			<point x="333" y="122"/>
			<point x="250" y="196"/>
			<point x="216" y="275" type="curve" smooth="yes"/>
			<point x="184" y="349"/>
			<point x="231" y="350"/>
			<point x="404" y="353" type="curve" smooth="yes"/>
			<point x="496" y="353"/>
			<point x="571" y="339"/>
			<point x="569" y="260" type="curve" smooth="yes"/>
			<point x="567" y="166"/>
			<point x="518" y="122"/>
		</contour>
	</outline>
</glyph>
<glyph name="quotesingle" format="2">
	<advance width="294"/>
	<unicode hex="0027"/>
	<outline>
		<contour>
			<point x="94" y="518" type="curve" smooth="yes"/>
			<point x="128" y="534"/>
			<point x="224" y="620"/>
			<point x="247" y="675" type="curve" smooth="yes"/>
			<point x="270" y="730"/>
			<point x="274" y="782"/>
			<point x="227" y="830" type="curve" smooth="yes"/>
			<point x="177" y="882"/>
			<point x="122" y="880"/>
			<point x="72" y="830" type="curve" smooth="yes"/>
			<point x="-7" y="751"/>
			<point x="120" y="726"/>
			<point x="120" y="663" type="curve" smooth="yes"/>
			<point x="120" y="632"/>
			<point x="102" y="614"/>
			<point x="73" y="591" type="curve" smooth="yes"/>
			<point x="40" y="565"/>
			<point x="25" y="546"/>
			<point x="32" y="528" type="curve" smooth="yes"/>
			<point x="41" y="505"/>
			<point x="64" y="504"/>
		</contour>
	</outline>
</glyph>
<glyph name="parenleft" format="2">
	<advance width="392"/>
	<unicode hex="0028"/>
	<anchor x="238" y="500" name="_top"/>
	<anchor x="238" y="765" name="top"/>
	<outline>
		<contour>
			<point x="338" y="-197" type="curve" smooth="yes"/>
			<point x="350" y="-174"/>
			<point x="332" y="-161"/>
			<point x="309" y="-126" type="curve" smooth="yes"/>
			<point x="249" y="-38"/>
			<point x="213" y="122"/>
			<point x="213" y="304" type="curve" smooth="yes"/>
			<point x="213" y="486"/>
			<point x="249" y="646"/>
			<point x="309" y="734" type="curve" smooth="yes"/>
			<point x="332" y="769"/>
			<point x="350" y="782"/>
			<point x="338" y="805" type="curve" smooth="yes"/>
			<point x="326" y="828"/>
			<point x="291" y="815"/>
			<point x="252" y="788" type="curve" smooth="yes"/>
			<point x="131" y="704"/>
			<point x="50" y="510"/>
			<point x="50" y="304" type="curve" smooth="yes"/>
			<point x="50" y="95"/>
			<point x="131" y="-99"/>
			<point x="252" y="-180" type="curve" smooth="yes"/>
			<point x="291" y="-206"/>
			<point x="326" y="-220"/>
		</contour>
	</outline>
</glyph>
<glyph name="parenright" format="2">
	<advance width="392"/>
	<unicode hex="0029"/>
	<anchor x="154" y="500" name="_top"/>
	<anchor x="154" y="765" name="top"/>
	<outline>
		<contour>
			<point x="54" y="-197" type="curve" smooth="yes"/>
			<point x="66" y="-220"/>
			<point x="101" y="-206"/>
			<point x="140" y="-180" type="curve" smooth="yes"/>
			<point x="261" y="-99"/>
			<point x="342" y="95"/>
			<point x="342" y="304" type="curve" smooth="yes"/>
			<point x="342" y="510"/>
			<point x="261" y="704"/>
			<point x="140" y="788" type="curve" smooth="yes"/>
			<point x="101" y="815"/>
			<point x="66" y="828"/>
			<point x="54" y="805" type="curve" smooth="yes"/>
			<point x="42" y="782"/>
			<point x="60" y="769"/>
			<point x="83" y="734" type="curve" smooth="yes"/>
			<point x="143" y="646"/>
			<point x="179" y="486"/>
			<point x="179" y="304" type="curve" smooth="yes"/>
			<point x="179" y="122"/>
			<point x="143" y="-38"/>
			<point x="83" y="-126" type="curve" smooth="yes"/>
			<point x="60" y="-161"/>
			<point x="42" y="-174"/>
		</contour>
	</outline>
</glyph>
<glyph name="asterisk" format="2">
	<advance width="389"/>
	<unicode hex="002A"/>
	<outline>
		<contour>
			<point x="278" y="498" type="curve" smooth="yes"/>
			<point x="323" y="515"/>
			<point x="353" y="542"/>
			<point x="276" y="596" type="curve" smooth="yes"/>
			<point x="243" y="619" type="line"/>
			<point x="245" y="623" type="line"/>
			<point x="264" y="621" type="line" smooth="yes"/>
			<point x="348" y="612"/>
			<point x="372" y="627"/>
			<point x="369" y="683" type="curve" smooth="yes"/>
			<point x="366" y="732"/>
			<point x="352" y="767"/>
			<point x="276" y="711" type="curve" smooth="yes"/>
			<point x="242" y="686" type="line"/>
			<point x="239" y="689" type="line"/>
			<point x="248" y="710" type="line" smooth="yes"/>
			<point x="281" y="787"/>
			<point x="275" y="815"/>
			<point x="221" y="829" type="curve" smooth="yes"/>
			<point x="174" y="841"/>
			<point x="136" y="834"/>
			<point x="165" y="748" type="curve" smooth="yes"/>
			<point x="178" y="710" type="line"/>
			<point x="174" y="709" type="line"/>
			<point x="158" y="723" type="line" smooth="yes"/>
			<point x="95" y="778"/>
			<point x="66" y="781"/>
			<point x="37" y="734" type="curve" smooth="yes"/>
			<point x="11" y="692"/>
			<point x="3" y="654"/>
			<point x="96" y="656" type="curve" smooth="yes"/>
			<point x="139" y="657" type="line"/>
			<point x="139" y="652" type="line"/>
			<point x="121" y="641" type="line" smooth="yes"/>
			<point x="49" y="597"/>
			<point x="37" y="572"/>
			<point x="72" y="529" type="curve" smooth="yes"/>
			<point x="103" y="491"/>
			<point x="139" y="473"/>
			<point x="165" y="561" type="curve" smooth="yes"/>
			<point x="177" y="601" type="line"/>
			<point x="181" y="600" type="line"/>
			<point x="186" y="579" type="line" smooth="yes"/>
			<point x="205" y="497"/>
			<point x="226" y="478"/>
		</contour>
	</outline>
</glyph>
<glyph name="plus" format="2">
	<advance width="660"/>
	<unicode hex="002B"/>
	<outline>
		<contour>
			<point x="332" y="95" type="curve" smooth="yes"/>
			<point x="375" y="95"/>
			<point x="403" y="115"/>
			<point x="403" y="165" type="curve" smooth="yes"/>
			<point x="403" y="230"/>
			<point x="381" y="262"/>
			<point x="382" y="377" type="curve" smooth="yes"/>
			<point x="383" y="490"/>
			<point x="403" y="521"/>
			<point x="403" y="585" type="curve" smooth="yes"/>
			<point x="403" y="635"/>
			<point x="374" y="655"/>
			<point x="331" y="655" type="curve" smooth="yes"/>
			<point x="287" y="655"/>
			<point x="257" y="635"/>
			<point x="257" y="585" type="curve" smooth="yes"/>
			<point x="257" y="521"/>
			<point x="277" y="490"/>
			<point x="278" y="377" type="curve" smooth="yes"/>
			<point x="279" y="262"/>
			<point x="257" y="230"/>
			<point x="257" y="165" type="curve" smooth="yes"/>
			<point x="257" y="115"/>
			<point x="287" y="95"/>
		</contour>
		<contour>
			<point x="120" y="302" type="curve" smooth="yes"/>
			<point x="184" y="302"/>
			<point x="215" y="323"/>
			<point x="328" y="323" type="curve" smooth="yes"/>
			<point x="442" y="323"/>
			<point x="475" y="302"/>
			<point x="540" y="302" type="curve" smooth="yes"/>
			<point x="590" y="302"/>
			<point x="610" y="332"/>
			<point x="610" y="377" type="curve" smooth="yes"/>
			<point x="610" y="420"/>
			<point x="590" y="448"/>
			<point x="540" y="448" type="curve" smooth="yes"/>
			<point x="475" y="448"/>
			<point x="442" y="428"/>
			<point x="328" y="427" type="curve" smooth="yes"/>
			<point x="214" y="426"/>
			<point x="184" y="448"/>
			<point x="120" y="448" type="curve" smooth="yes"/>
			<point x="70" y="448"/>
			<point x="50" y="419"/>
			<point x="50" y="376" type="curve" smooth="yes"/>
			<point x="50" y="332"/>
			<point x="70" y="302"/>
		</contour>
	</outline>
</glyph>
<glyph name="comma" format="2">
	<advance width="296"/>
	<unicode hex="002C"/>
	<outline>
		<contour>
			<point x="94" y="-145" type="curve" smooth="yes"/>
			<point x="155" y="-117"/>
			<point x="228" y="-43"/>
			<point x="249" y="7" type="curve" smooth="yes"/>
			<point x="274" y="67"/>
			<point x="274" y="119"/>
			<point x="227" y="167" type="curve" smooth="yes"/>
			<point x="177" y="219"/>
			<point x="122" y="217"/>
			<point x="72" y="167" type="curve" smooth="yes"/>
			<point x="-7" y="88"/>
			<point x="120" y="63"/>
			<point x="120" y="0" type="curve" smooth="yes"/>
			<point x="120" y="-31"/>
			<point x="102" y="-49"/>
			<point x="73" y="-72" type="curve" smooth="yes"/>
			<point x="40" y="-98"/>
			<point x="25" y="-117"/>
			<point x="32" y="-135" type="curve" smooth="yes"/>
			<point x="41" y="-158"/>
			<point x="64" y="-159"/>
		</contour>
	</outline>
</glyph>
<glyph name="period" format="2">
	<advance width="360"/>
	<unicode hex="002E"/>
	<outline>
		<contour>
			<point x="180" y="-16" type="curve" smooth="yes"/>
			<point x="242" y="-16"/>
			<point x="292" y="34"/>
			<point x="292" y="96" type="curve" smooth="yes"/>
			<point x="292" y="157"/>
			<point x="242" y="207"/>
			<point x="180" y="207" type="curve" smooth="yes"/>
			<point x="118" y="207"/>
			<point x="68" y="157"/>
			<point x="68" y="96" type="curve" smooth="yes"/>
			<point x="68" y="34"/>
			<point x="118" y="-16"/>
		</contour>
	</outline>
</glyph>
<glyph name="slash" format="2">
	<advance width="505"/>
	<unicode hex="002F"/>
	<outline>
		<contour>
			<point x="66" y="-203" type="curve" smooth="yes"/>
			<point x="101" y="-220"/>
			<point x="142" y="-210"/>
			<point x="174" y="-123" type="curve" smooth="yes"/>
			<point x="201" y="-47"/>
			<point x="242" y="115"/>
			<point x="304" y="281" type="curve" smooth="yes"/>
			<point x="367" y="450"/>
			<point x="442" y="599"/>
			<point x="469" y="675" type="curve" smooth="yes"/>
			<point x="499" y="760"/>
			<point x="473" y="793"/>
			<point x="438" y="807" type="curve" smooth="yes"/>
			<point x="403" y="821"/>
			<point x="364" y="808"/>
			<point x="332" y="723" type="curve" smooth="yes"/>
			<point x="304" y="648"/>
			<point x="261" y="486"/>
			<point x="198" y="317" type="curve" smooth="yes"/>
			<point x="137" y="149"/>
			<point x="65" y="0"/>
			<point x="36" y="-74" type="curve" smooth="yes"/>
			<point x="5" y="-159"/>
			<point x="34" y="-189"/>
		</contour>
	</outline>
</glyph>
<glyph name="zero" format="2">
	<advance width="842"/>
	<unicode hex="0030"/>
	<anchor x="422" y="0" name="bottom"/>
	<anchor x="422" y="373" name="center"/>
	<anchor x="767" y="10" name="ogonek"/>
	<anchor x="422" y="755" name="top"/>
	<anchor x="11" y="745" name="topleft"/>
	<anchor x="833" y="745" name="topright"/>
	<outline>
		<contour>
			<point x="421" y="759" type="curve" smooth="yes"/>
			<point x="208" y="759"/>
			<point x="35" y="586"/>
			<point x="35" y="372" type="curve" smooth="yes"/>
			<point x="35" y="149"/>
			<point x="208" y="-15"/>
			<point x="421" y="-15" type="curve" smooth="yes"/>
			<point x="635" y="-15"/>
			<point x="807" y="159"/>
			<point x="807" y="372" type="curve" smooth="yes"/>
			<point x="807" y="596"/>
			<point x="635" y="759"/>
		</contour>
		<contour>
			<point x="222" y="503" type="curve" smooth="yes"/>
			<point x="252" y="617"/>
			<point x="348" y="684"/>
			<point x="456" y="657" type="curve" smooth="yes"/>
			<point x="488" y="648"/>
			<point x="517" y="634"/>
			<point x="539" y="612" type="curve" smooth="yes"/>
			<point x="566" y="585"/>
			<point x="547" y="556"/>
			<point x="519" y="530" type="curve" smooth="yes"/>
			<point x="279" y="299" type="line" smooth="yes"/>
			<point x="253" y="274"/>
			<point x="228" y="269"/>
			<point x="219" y="305" type="curve" smooth="yes"/>
			<point x="204" y="362"/>
			<point x="205" y="436"/>
		</contour>
		<contour>
			<point x="618" y="261" type="curve" smooth="yes"/>
			<point x="590" y="147"/>
			<point x="495" y="78"/>
			<point x="385" y="106" type="curve" smooth="yes"/>
			<point x="365" y="111"/>
			<point x="341" y="119"/>
			<point x="320" y="136" type="curve" smooth="yes"/>
			<point x="287" y="164"/>
			<point x="291" y="194"/>
			<point x="320" y="222" type="curve" smooth="yes"/>
			<point x="555" y="449" type="line" smooth="yes"/>
			<point x="588" y="481"/>
			<point x="618" y="476"/>
			<point x="626" y="437" type="curve" smooth="yes"/>
			<point x="638" y="380"/>
			<point x="632" y="318"/>
		</contour>
	</outline>
</glyph>
<glyph name="one" format="2">
	<advance width="652"/>
	<unicode hex="0031"/>
	<outline>
		<contour>
			<point x="91" y="-5" type="curve" smooth="yes"/>
			<point x="172" y="-5"/>
			<point x="239" y="3"/>
			<point x="351" y="3" type="curve" smooth="yes"/>
			<point x="464" y="3"/>
			<point x="511" y="-5"/>
			<point x="591" y="-5" type="curve" smooth="yes"/>
			<point x="628" y="-5"/>
			<point x="642" y="12"/>
			<point x="642" y="43" type="curve" smooth="yes"/>
			<point x="642" y="73"/>
			<point x="631" y="92"/>
			<point x="592" y="96" type="curve" smooth="yes"/>
			<point x="555" y="100"/>
			<point x="477" y="101"/>
			<point x="445" y="147" type="curve" smooth="yes"/>
			<point x="423" y="179"/>
			<point x="424" y="240"/>
			<point x="424" y="324" type="curve" smooth="yes"/>
			<point x="424" y="659" type="line" smooth="yes"/>
			<point x="424" y="706"/>
			<point x="432" y="756"/>
			<point x="394" y="762" type="curve" smooth="yes"/>
			<point x="355" y="768"/>
			<point x="336" y="740"/>
			<point x="308" y="702" type="curve" smooth="yes"/>
			<point x="261" y="639"/>
			<point x="200" y="598"/>
			<point x="137" y="565" type="curve" smooth="yes"/>
			<point x="84" y="537"/>
			<point x="63" y="511"/>
			<point x="72" y="482" type="curve" smooth="yes"/>
			<point x="82" y="449"/>
			<point x="124" y="446"/>
			<point x="205" y="478" type="curve" smooth="yes"/>
			<point x="259" y="499"/>
			<point x="278" y="495"/>
			<point x="278" y="421" type="curve" smooth="yes"/>
			<point x="278" y="324" type="line" smooth="yes"/>
			<point x="278" y="240"/>
			<point x="279" y="179"/>
			<point x="257" y="147" type="curve" smooth="yes"/>
			<point x="224" y="100"/>
			<point x="131" y="99"/>
			<point x="94" y="95" type="curve" smooth="yes"/>
			<point x="54" y="91"/>
			<point x="40" y="72"/>
			<point x="40" y="42" type="curve" smooth="yes"/>
			<point x="40" y="12"/>
			<point x="54" y="-5"/>
		</contour>
	</outline>
</glyph>
<glyph name="two" format="2">
	<advance width="748"/>
	<unicode hex="0032"/>
	<outline>
		<contour>
			<point x="112" y="0" type="curve" smooth="yes"/>
			<point x="573" y="0" type="line" smooth="yes"/>
			<point x="665" y="0"/>
			<point x="703" y="6"/>
			<point x="703" y="153" type="curve" smooth="yes"/>
			<point x="703" y="290"/>
			<point x="703" y="340"/>
			<point x="679" y="341" type="curve" smooth="yes"/>
			<point x="654" y="342"/>
			<point x="644" y="275"/>
			<point x="586" y="195" type="curve" smooth="yes"/>
			<point x="535" y="125"/>
			<point x="458" y="110"/>
			<point x="384" y="107" type="curve" smooth="yes"/>
			<point x="330" y="105"/>
			<point x="314" y="105"/>
			<point x="310" y="114" type="curve" smooth="yes"/>
			<point x="306" y="124"/>
			<point x="316" y="138"/>
			<point x="360" y="169" type="curve" smooth="yes"/>
			<point x="524" y="284"/>
			<point x="632" y="407"/>
			<point x="632" y="559" type="curve" smooth="yes"/>
			<point x="632" y="680"/>
			<point x="540" y="774"/>
			<point x="381" y="774" type="curve" smooth="yes"/>
			<point x="177" y="774"/>
			<point x="55" y="632"/>
			<point x="81" y="437" type="curve" smooth="yes"/>
			<point x="87" y="392"/>
			<point x="105" y="381"/>
			<point x="122" y="381" type="curve" smooth="yes"/>
			<point x="142" y="381"/>
			<point x="155" y="399"/>
			<point x="161" y="439" type="curve" smooth="yes"/>
			<point x="175" y="536"/>
			<point x="242" y="614"/>
			<point x="329" y="614" type="curve" smooth="yes"/>
			<point x="400" y="614"/>
			<point x="448" y="564"/>
			<point x="448" y="490" type="curve" smooth="yes"/>
			<point x="448" y="363"/>
			<point x="244" y="217"/>
			<point x="113" y="132" type="curve" smooth="yes"/>
			<point x="30" y="78"/>
			<point x="3" y="54"/>
			<point x="12" y="31" type="curve" smooth="yes"/>
			<point x="24" y="0"/>
			<point x="60" y="0"/>
		</contour>
	</outline>
</glyph>
<glyph name="three" format="2">
	<advance width="745"/>
	<unicode hex="0033"/>
	<outline>
		<contour>
			<point x="369" y="-15" type="curve" smooth="yes"/>
			<point x="535" y="-15"/>
			<point x="695" y="86"/>
			<point x="695" y="238" type="curve" smooth="yes"/>
			<point x="695" y="371"/>
			<point x="587" y="413"/>
			<point x="480" y="431" type="curve"/>
			<point x="590" y="460"/>
			<point x="651" y="531"/>
			<point x="654" y="622" type="curve" smooth="yes"/>
			<point x="657" y="719"/>
			<point x="570" y="749"/>
			<point x="503" y="749" type="curve" smooth="yes"/>
			<point x="463" y="749"/>
			<point x="394" y="732"/>
			<point x="335" y="732" type="curve" smooth="yes"/>
			<point x="281" y="732"/>
			<point x="208" y="740"/>
			<point x="154" y="747" type="curve" smooth="yes"/>
			<point x="123" y="751"/>
			<point x="101" y="749"/>
			<point x="103" y="718" type="curve" smooth="yes"/>
			<point x="104" y="699"/>
			<point x="123" y="646"/>
			<point x="120" y="585" type="curve" smooth="yes"/>
			<point x="117" y="528"/>
			<point x="88" y="450"/>
			<point x="125" y="437" type="curve" smooth="yes"/>
			<point x="156" y="426"/>
			<point x="178" y="454"/>
			<point x="235" y="558" type="curve" smooth="yes"/>
			<point x="280" y="641"/>
			<point x="350" y="663"/>
			<point x="400" y="663" type="curve" smooth="yes"/>
			<point x="442" y="663"/>
			<point x="473" y="644"/>
			<point x="473" y="612" type="curve" smooth="yes"/>
			<point x="473" y="567"/>
			<point x="408" y="496"/>
			<point x="244" y="397" type="curve" smooth="yes"/>
			<point x="221" y="383"/>
			<point x="220" y="364"/>
			<point x="227" y="351" type="curve" smooth="yes"/>
			<point x="239" y="329"/>
			<point x="257" y="327"/>
			<point x="282" y="334" type="curve" smooth="yes"/>
			<point x="408" y="369"/>
			<point x="521" y="360"/>
			<point x="521" y="256" type="curve" smooth="yes"/>
			<point x="521" y="174"/>
			<point x="444" y="122"/>
			<point x="336" y="122" type="curve" smooth="yes"/>
			<point x="238" y="122"/>
			<point x="158" y="164"/>
			<point x="91" y="234" type="curve" smooth="yes"/>
			<point x="69" y="257"/>
			<point x="57" y="267"/>
			<point x="41" y="257" type="curve" smooth="yes"/>
			<point x="25" y="247"/>
			<point x="27" y="226"/>
			<point x="41" y="196" type="curve" smooth="yes"/>
			<point x="101" y="68"/>
			<point x="194" y="-15"/>
		</contour>
	</outline>
</glyph>
<glyph name="four" format="2">
	<advance width="746"/>
	<unicode hex="0034"/>
	<outline>
		<contour>
			<point x="261" y="-7" type="curve" smooth="yes"/>
			<point x="312" y="-7"/>
			<point x="369" y="0"/>
			<point x="431" y="0" type="curve" smooth="yes"/>
			<point x="504" y="0"/>
			<point x="591" y="-7"/>
			<point x="631" y="-7" type="curve" smooth="yes"/>
			<point x="668" y="-7"/>
			<point x="692" y="12"/>
			<point x="692" y="37" type="curve" smooth="yes"/>
			<point x="692" y="84"/>
			<point x="616" y="76"/>
			<point x="575" y="130" type="curve" smooth="yes"/>
			<point x="551" y="162"/>
			<point x="552" y="250"/>
			<point x="555" y="348" type="curve" smooth="yes"/>
			<point x="565" y="714" type="line" smooth="yes"/>
			<point x="566" y="756"/>
			<point x="557" y="781"/>
			<point x="517" y="781" type="curve" smooth="yes"/>
			<point x="475" y="781"/>
			<point x="434" y="726"/>
			<point x="397" y="687" type="curve" smooth="yes"/>
			<point x="45" y="325" type="line" smooth="yes"/>
			<point x="7" y="285"/>
			<point x="-9" y="262"/>
			<point x="5" y="237" type="curve" smooth="yes"/>
			<point x="20" y="210"/>
			<point x="49" y="214"/>
			<point x="91" y="214" type="curve" smooth="yes"/>
			<point x="601" y="213" type="line" smooth="yes"/>
			<point x="701" y="213"/>
			<point x="726" y="255"/>
			<point x="726" y="319" type="curve" smooth="yes"/>
			<point x="726" y="353"/>
			<point x="715" y="360"/>
			<point x="675" y="352" type="curve" smooth="yes"/>
			<point x="493" y="315"/>
			<point x="288" y="302"/>
			<point x="128" y="300" type="curve"/>
			<point x="124" y="255" type="line"/>
			<point x="435" y="580" type="line"/>
			<point x="408" y="621" type="line"/>
			<point x="398" y="274" type="line" smooth="yes"/>
			<point x="396" y="190"/>
			<point x="392" y="163"/>
			<point x="367" y="130" type="curve" smooth="yes"/>
			<point x="328" y="78"/>
			<point x="210" y="84"/>
			<point x="210" y="37" type="curve" smooth="yes"/>
			<point x="210" y="11"/>
			<point x="224" y="-7"/>
		</contour>
	</outline>
</glyph>
<glyph name="five" format="2">
	<advance width="765"/>
	<unicode hex="0035"/>
	<outline>
		<contour>
			<point x="389" y="-16" type="curve" smooth="yes"/>
			<point x="555" y="-16"/>
			<point x="715" y="66"/>
			<point x="715" y="228" type="curve" smooth="yes"/>
			<point x="715" y="432"/>
			<point x="450" y="483"/>
			<point x="265" y="447" type="curve"/>
			<point x="282" y="637" type="line"/>
			<point x="423" y="650"/>
			<point x="458" y="647"/>
			<point x="510" y="558" type="curve" smooth="yes"/>
			<point x="536" y="514"/>
			<point x="570" y="441"/>
			<point x="610" y="457" type="curve" smooth="yes"/>
			<point x="647" y="472"/>
			<point x="628" y="528"/>
			<point x="625" y="585" type="curve" smooth="yes"/>
			<point x="622" y="646"/>
			<point x="641" y="699"/>
			<point x="642" y="718" type="curve" smooth="yes"/>
			<point x="644" y="749"/>
			<point x="622" y="751"/>
			<point x="591" y="747" type="curve" smooth="yes"/>
			<point x="537" y="740"/>
			<point x="454" y="721"/>
			<point x="350" y="721" type="curve" smooth="yes"/>
			<point x="290" y="721"/>
			<point x="222" y="729"/>
			<point x="182" y="729" type="curve" smooth="yes"/>
			<point x="145" y="729"/>
			<point x="130" y="719"/>
			<point x="128" y="692" type="curve" smooth="yes"/>
			<point x="106" y="383" type="line" smooth="yes"/>
			<point x="104" y="325"/>
			<point x="140" y="325"/>
			<point x="171" y="333" type="curve" smooth="yes"/>
			<point x="373" y="387"/>
			<point x="541" y="354"/>
			<point x="541" y="240" type="curve" smooth="yes"/>
			<point x="541" y="168"/>
			<point x="474" y="132"/>
			<point x="366" y="132" type="curve" smooth="yes"/>
			<point x="268" y="132"/>
			<point x="178" y="164"/>
			<point x="111" y="234" type="curve" smooth="yes"/>
			<point x="89" y="257"/>
			<point x="76" y="270"/>
			<point x="61" y="257" type="curve" smooth="yes"/>
			<point x="45" y="244"/>
			<point x="47" y="226"/>
			<point x="61" y="196" type="curve" smooth="yes"/>
			<point x="121" y="68"/>
			<point x="214" y="-16"/>
		</contour>
	</outline>
</glyph>
<glyph name="six" format="2">
	<advance width="740"/>
	<unicode hex="0036"/>
	<outline>
		<contour>
			<point x="380" y="-15" type="curve" smooth="yes"/>
			<point x="560" y="-15"/>
			<point x="700" y="94"/>
			<point x="700" y="262" type="curve" smooth="yes"/>
			<point x="700" y="401"/>
			<point x="604" y="525"/>
			<point x="430" y="525" type="curve" smooth="yes"/>
			<point x="334" y="525"/>
			<point x="262" y="487"/>
			<point x="183" y="399" type="curve"/>
			<point x="206" y="393" type="line"/>
			<point x="221" y="541"/>
			<point x="324" y="635"/>
			<point x="459" y="673" type="curve" smooth="yes"/>
			<point x="508" y="687"/>
			<point x="541" y="688"/>
			<point x="541" y="718" type="curve" smooth="yes"/>
			<point x="541" y="754"/>
			<point x="489" y="766"/>
			<point x="412" y="753" type="curve" smooth="yes"/>
			<point x="221" y="720"/>
			<point x="50" y="561"/>
			<point x="50" y="324" type="curve" smooth="yes"/>
			<point x="50" y="120"/>
			<point x="176" y="-15"/>
		</contour>
		<contour>
			<point x="439" y="99" type="curve" smooth="yes"/>
			<point x="327" y="103"/>
			<point x="221" y="206"/>
			<point x="221" y="291" type="curve" smooth="yes"/>
			<point x="221" y="353"/>
			<point x="277" y="399"/>
			<point x="357" y="399" type="curve" smooth="yes"/>
			<point x="477" y="399"/>
			<point x="570" y="297"/>
			<point x="570" y="209" type="curve" smooth="yes"/>
			<point x="570" y="140"/>
			<point x="512" y="96"/>
		</contour>
	</outline>
</glyph>
<glyph name="seven" format="2">
	<advance width="675"/>
	<unicode hex="0037"/>
	<outline>
		<contour>
			<point x="250" y="-6" type="curve" smooth="yes"/>
			<point x="266" y="-6"/>
			<point x="294" y="0"/>
			<point x="312" y="0" type="curve" smooth="yes"/>
			<point x="343" y="0"/>
			<point x="374" y="-6"/>
			<point x="393" y="-6" type="curve" smooth="yes"/>
			<point x="426" y="-6"/>
			<point x="432" y="7"/>
			<point x="427" y="64" type="curve" smooth="yes"/>
			<point x="404" y="346"/>
			<point x="474" y="504"/>
			<point x="605" y="633" type="curve" smooth="yes"/>
			<point x="646" y="673"/>
			<point x="683" y="696"/>
			<point x="673" y="722" type="curve" smooth="yes"/>
			<point x="664" y="746"/>
			<point x="628" y="745"/>
			<point x="576" y="745" type="curve" smooth="yes"/>
			<point x="175" y="745" type="line" smooth="yes"/>
			<point x="83" y="745"/>
			<point x="45" y="739"/>
			<point x="45" y="592" type="curve" smooth="yes"/>
			<point x="45" y="455"/>
			<point x="45" y="405"/>
			<point x="69" y="404" type="curve" smooth="yes"/>
			<point x="94" y="403"/>
			<point x="105" y="459"/>
			<point x="138" y="515" type="curve" smooth="yes"/>
			<point x="198" y="617"/>
			<point x="267" y="635"/>
			<point x="351" y="639" type="curve" smooth="yes"/>
			<point x="405" y="641"/>
			<point x="421" y="640"/>
			<point x="425" y="631" type="curve" smooth="yes"/>
			<point x="429" y="621"/>
			<point x="428" y="609"/>
			<point x="385" y="556" type="curve" smooth="yes"/>
			<point x="266" y="409"/>
			<point x="231" y="227"/>
			<point x="218" y="55" type="curve" smooth="yes"/>
			<point x="215" y="14"/>
			<point x="221" y="-6"/>
		</contour>
	</outline>
</glyph>
<glyph name="eight" format="2">
	<advance width="735"/>
	<unicode hex="0038"/>
	<outline>
		<contour>
			<point x="368" y="-15" type="curve" smooth="yes"/>
			<point x="570" y="-15"/>
			<point x="705" y="81"/>
			<point x="705" y="224" type="curve" smooth="yes"/>
			<point x="705" y="361"/>
			<point x="548" y="407"/>
			<point x="368" y="453" type="curve" smooth="yes"/>
			<point x="275" y="477"/>
			<point x="225" y="505"/>
			<point x="225" y="574" type="curve" smooth="yes"/>
			<point x="225" y="655"/>
			<point x="273" y="701"/>
			<point x="358" y="701" type="curve" smooth="yes"/>
			<point x="441" y="701"/>
			<point x="495" y="647"/>
			<point x="495" y="575" type="curve" smooth="yes"/>
			<point x="495" y="507"/>
			<point x="461" y="441"/>
			<point x="368" y="422" type="curve"/>
			<point x="461" y="381" type="line"/>
			<point x="591" y="390"/>
			<point x="665" y="468"/>
			<point x="665" y="551" type="curve" smooth="yes"/>
			<point x="665" y="676"/>
			<point x="570" y="760"/>
			<point x="368" y="760" type="curve" smooth="yes"/>
			<point x="165" y="760"/>
			<point x="50" y="664"/>
			<point x="50" y="521" type="curve" smooth="yes"/>
			<point x="50" y="385"/>
			<point x="193" y="324"/>
			<point x="318" y="299" type="curve" smooth="yes"/>
			<point x="452" y="272"/>
			<point x="512" y="250"/>
			<point x="512" y="180" type="curve" smooth="yes"/>
			<point x="512" y="101"/>
			<point x="459" y="56"/>
			<point x="376" y="56" type="curve" smooth="yes"/>
			<point x="265" y="56"/>
			<point x="200" y="119"/>
			<point x="200" y="189" type="curve" smooth="yes"/>
			<point x="200" y="250"/>
			<point x="231" y="297"/>
			<point x="314" y="325" type="curve"/>
			<point x="244" y="374" type="line"/>
			<point x="114" y="345"/>
			<point x="30" y="276"/>
			<point x="30" y="184" type="curve" smooth="yes"/>
			<point x="30" y="65"/>
			<point x="165" y="-15"/>
		</contour>
	</outline>
</glyph>
<glyph name="nine" format="2">
	<advance width="738"/>
	<unicode hex="0039"/>
	<outline>
		<contour>
			<point x="243" y="-6" type="curve" smooth="yes"/>
			<point x="467" y="-12"/>
			<point x="635" y="101"/>
			<point x="678" y="323" type="curve" smooth="yes"/>
			<point x="721" y="543"/>
			<point x="624" y="713"/>
			<point x="424" y="752" type="curve" smooth="yes"/>
			<point x="248" y="788"/>
			<point x="89" y="705"/>
			<point x="56" y="540" type="curve" smooth="yes"/>
			<point x="28" y="403"/>
			<point x="99" y="263"/>
			<point x="270" y="229" type="curve" smooth="yes"/>
			<point x="347" y="214"/>
			<point x="413" y="228"/>
			<point x="489" y="272" type="curve" smooth="yes"/>
			<point x="496" y="276"/>
			<point x="499" y="275"/>
			<point x="496" y="268" type="curve" smooth="yes"/>
			<point x="450" y="152"/>
			<point x="349" y="99"/>
			<point x="212" y="90" type="curve" smooth="yes"/>
			<point x="162" y="87"/>
			<point x="129" y="92"/>
			<point x="123" y="62" type="curve" smooth="yes"/>
			<point x="116" y="27"/>
			<point x="165" y="-4"/>
		</contour>
		<contour>
			<point x="355" y="339" type="curve" smooth="yes"/>
			<point x="240" y="371"/>
			<point x="177" y="494"/>
			<point x="201" y="579" type="curve" smooth="yes"/>
			<point x="219" y="645"/>
			<point x="286" y="672"/>
			<point x="356" y="650" type="curve" smooth="yes"/>
			<point x="462" y="615"/>
			<point x="538" y="489"/>
			<point x="516" y="407" type="curve" smooth="yes"/>
			<point x="499" y="347"/>
			<point x="433" y="318"/>
		</contour>
	</outline>
</glyph>
<glyph name="colon" format="2">
	<advance width="360"/>
	<unicode hex="003A"/>
	<outline>
		<contour>
			<point x="180" y="342" type="curve" smooth="yes"/>
			<point x="242" y="342"/>
			<point x="292" y="392"/>
			<point x="292" y="454" type="curve" smooth="yes"/>
			<point x="292" y="515"/>
			<point x="242" y="565"/>
			<point x="180" y="565" type="curve" smooth="yes"/>
			<point x="118" y="565"/>
			<point x="68" y="515"/>
			<point x="68" y="454" type="curve" smooth="yes"/>
			<point x="68" y="392"/>
			<point x="118" y="342"/>
		</contour>
		<contour>
			<point x="180" y="-16" type="curve" smooth="yes"/>
			<point x="242" y="-16"/>
			<point x="292" y="34"/>
			<point x="292" y="96" type="curve" smooth="yes"/>
			<point x="292" y="157"/>
			<point x="242" y="207"/>
			<point x="180" y="207" type="curve" smooth="yes"/>
			<point x="118" y="207"/>
			<point x="68" y="157"/>
			<point x="68" y="96" type="curve" smooth="yes"/>
			<point x="68" y="34"/>
			<point x="118" y="-16"/>
		</contour>
	</outline>
</glyph>
<glyph name="semicolon" format="2">
	<advance width="356"/>
	<unicode hex="003B"/>
	<outline>
		<contour>
			<point x="124" y="-145" type="curve" smooth="yes"/>
			<point x="185" y="-117"/>
			<point x="257" y="-43"/>
			<point x="279" y="7" type="curve" smooth="yes"/>
			<point x="305" y="66"/>
			<point x="304" y="119"/>
			<point x="257" y="167" type="curve" smooth="yes"/>
			<point x="207" y="219"/>
			<point x="152" y="217"/>
			<point x="102" y="167" type="curve" smooth="yes"/>
			<point x="23" y="88"/>
			<point x="150" y="63"/>
			<point x="150" y="0" type="curve" smooth="yes"/>
			<point x="150" y="-31"/>
			<point x="132" y="-49"/>
			<point x="103" y="-72" type="curve" smooth="yes"/>
			<point x="70" y="-98"/>
			<point x="55" y="-117"/>
			<point x="62" y="-135" type="curve" smooth="yes"/>
			<point x="71" y="-158"/>
			<point x="94" y="-159"/>
		</contour>
		<contour>
			<point x="180" y="342" type="curve" smooth="yes"/>
			<point x="242" y="342"/>
			<point x="292" y="392"/>
			<point x="292" y="454" type="curve" smooth="yes"/>
			<point x="292" y="515"/>
			<point x="242" y="565"/>
			<point x="180" y="565" type="curve" smooth="yes"/>
			<point x="118" y="565"/>
			<point x="68" y="515"/>
			<point x="68" y="454" type="curve" smooth="yes"/>
			<point x="68" y="392"/>
			<point x="118" y="342"/>
		</contour>
	</outline>
</glyph>
<glyph name="less" format="2">
	<advance width="520"/>
	<unicode hex="003C"/>
	<outline>
		<contour>
			<point x="473" y="119" type="curve" smooth="yes"/>
			<point x="487" y="133"/>
			<point x="474" y="147"/>
			<point x="442" y="179" type="curve" smooth="yes"/>
			<point x="292" y="331" type="line" smooth="yes"/>
			<point x="272" y="352"/>
			<point x="265" y="357"/>
			<point x="265" y="364" type="curve" smooth="yes"/>
			<point x="265" y="370"/>
			<point x="271" y="376"/>
			<point x="292" y="398" type="curve" smooth="yes"/>
			<point x="452" y="570" type="line" smooth="yes"/>
			<point x="478" y="598"/>
			<point x="487" y="609"/>
			<point x="474" y="623" type="curve" smooth="yes"/>
			<point x="463" y="635"/>
			<point x="444" y="633"/>
			<point x="404" y="610" type="curve" smooth="yes"/>
			<point x="69" y="415" type="line" smooth="yes"/>
			<point x="32" y="393"/>
			<point x="20" y="383"/>
			<point x="20" y="363" type="curve" smooth="yes"/>
			<point x="20" y="344"/>
			<point x="31" y="334"/>
			<point x="67" y="315" type="curve" smooth="yes"/>
			<point x="397" y="138" type="line" smooth="yes"/>
			<point x="441" y="114"/>
			<point x="464" y="110"/>
		</contour>
	</outline>
</glyph>
<glyph name="equal" format="2">
	<advance width="600"/>
	<unicode hex="003D"/>
	<outline>
		<contour>
			<point x="120" y="407" type="curve" smooth="yes"/>
			<point x="184" y="407"/>
			<point x="215" y="418"/>
			<point x="298" y="418" type="curve" smooth="yes"/>
			<point x="382" y="418"/>
			<point x="415" y="407"/>
			<point x="480" y="407" type="curve" smooth="yes"/>
			<point x="530" y="407"/>
			<point x="550" y="437"/>
			<point x="550" y="482" type="curve" smooth="yes"/>
			<point x="550" y="525"/>
			<point x="530" y="553"/>
			<point x="480" y="553" type="curve" smooth="yes"/>
			<point x="415" y="553"/>
			<point x="382" y="543"/>
			<point x="298" y="542" type="curve" smooth="yes"/>
			<point x="214" y="541"/>
			<point x="184" y="553"/>
			<point x="120" y="553" type="curve" smooth="yes"/>
			<point x="70" y="553"/>
			<point x="50" y="524"/>
			<point x="50" y="481" type="curve" smooth="yes"/>
			<point x="50" y="437"/>
			<point x="70" y="407"/>
		</contour>
		<contour>
			<point x="120" y="178" type="curve" smooth="yes"/>
			<point x="184" y="178"/>
			<point x="215" y="189"/>
			<point x="298" y="189" type="curve" smooth="yes"/>
			<point x="382" y="189"/>
			<point x="415" y="178"/>
			<point x="480" y="178" type="curve" smooth="yes"/>
			<point x="530" y="178"/>
			<point x="550" y="208"/>
			<point x="550" y="253" type="curve" smooth="yes"/>
			<point x="550" y="296"/>
			<point x="530" y="324"/>
			<point x="480" y="324" type="curve" smooth="yes"/>
			<point x="415" y="324"/>
			<point x="382" y="314"/>
			<point x="298" y="313" type="curve" smooth="yes"/>
			<point x="214" y="312"/>
			<point x="184" y="324"/>
			<point x="120" y="324" type="curve" smooth="yes"/>
			<point x="70" y="324"/>
			<point x="50" y="295"/>
			<point x="50" y="252" type="curve" smooth="yes"/>
			<point x="50" y="208"/>
			<point x="70" y="178"/>
		</contour>
	</outline>
</glyph>
<glyph name="greater" format="2">
	<advance width="520"/>
	<unicode hex="003E"/>
	<outline>
		<contour>
			<point x="47" y="119" type="curve" smooth="yes"/>
			<point x="56" y="110"/>
			<point x="79" y="114"/>
			<point x="123" y="138" type="curve" smooth="yes"/>
			<point x="453" y="315" type="line" smooth="yes"/>
			<point x="489" y="334"/>
			<point x="500" y="344"/>
			<point x="500" y="363" type="curve" smooth="yes"/>
			<point x="500" y="383"/>
			<point x="488" y="393"/>
			<point x="451" y="415" type="curve" smooth="yes"/>
			<point x="116" y="610" type="line" smooth="yes"/>
			<point x="76" y="633"/>
			<point x="57" y="635"/>
			<point x="46" y="623" type="curve" smooth="yes"/>
			<point x="33" y="609"/>
			<point x="42" y="598"/>
			<point x="68" y="570" type="curve" smooth="yes"/>
			<point x="228" y="398" type="line" smooth="yes"/>
			<point x="249" y="376"/>
			<point x="255" y="370"/>
			<point x="255" y="364" type="curve" smooth="yes"/>
			<point x="255" y="357"/>
			<point x="248" y="352"/>
			<point x="228" y="331" type="curve" smooth="yes"/>
			<point x="78" y="179" type="line" smooth="yes"/>
			<point x="46" y="147"/>
			<point x="33" y="133"/>
		</contour>
	</outline>
</glyph>
<glyph name="question" format="2">
	<advance width="657"/>
	<unicode hex="003F"/>
	<outline>
		<contour>
			<point x="355" y="250" type="curve" smooth="yes"/>
			<point x="370" y="273"/>
			<point x="322" y="320"/>
			<point x="385" y="347" type="curve" smooth="yes"/>
			<point x="528" y="410"/>
			<point x="637" y="468"/>
			<point x="637" y="578" type="curve" smooth="yes"/>
			<point x="637" y="705"/>
			<point x="509" y="775"/>
			<point x="353" y="775" type="curve" smooth="yes"/>
			<point x="197" y="775"/>
			<point x="176" y="717"/>
			<point x="56" y="680" type="curve" smooth="yes"/>
			<point x="30" y="672"/>
			<point x="20" y="660"/>
			<point x="20" y="641" type="curve" smooth="yes"/>
			<point x="20" y="618"/>
			<point x="35" y="584"/>
			<point x="52" y="534" type="curve" smooth="yes"/>
			<point x="69" y="485"/>
			<point x="84" y="456"/>
			<point x="111" y="456" type="curve" smooth="yes"/>
			<point x="155" y="456"/>
			<point x="156" y="490"/>
			<point x="166" y="545" type="curve" smooth="yes"/>
			<point x="185" y="652"/>
			<point x="250" y="689"/>
			<point x="353" y="689" type="curve" smooth="yes"/>
			<point x="425" y="689"/>
			<point x="480" y="653"/>
			<point x="489" y="609" type="curve" smooth="yes"/>
			<point x="499" y="564"/>
			<point x="458" y="529"/>
			<point x="328" y="468" type="curve" smooth="yes"/>
			<point x="256" y="434"/>
			<point x="214" y="399"/>
			<point x="214" y="355" type="curve" smooth="yes"/>
			<point x="214" y="308"/>
			<point x="267" y="273"/>
			<point x="302" y="254" type="curve" smooth="yes"/>
			<point x="327" y="241"/>
			<point x="348" y="239"/>
		</contour>
		<component base="period" xOffset="151"/>
	</outline>
</glyph>
<glyph name="A" format="2">
	<advance width="830"/>
	<unicode hex="0041"/>
	<anchor x="420" y="0" name="bottom"/>
	<anchor x="780" y="10" name="ogonek"/>
	<anchor x="420" y="745" name="top"/>
	<outline>
		<contour>
			<point x="714" y="0" type="curve" smooth="yes"/>
			<point x="771" y="0"/>
			<point x="800" y="40"/>
			<point x="800" y="74" type="curve" smooth="yes"/>
			<point x="800" y="108"/>
			<point x="740" y="149"/>
			<point x="683" y="280" type="curve" smooth="yes"/>
			<point x="632" y="396"/>
			<point x="654" y="491"/>
			<point x="697" y="561" type="curve" smooth="yes"/>
			<point x="742" y="634"/>
			<point x="785" y="674"/>
			<point x="740" y="715" type="curve" smooth="yes"/>
			<point x="705" y="747"/>
			<point x="635" y="713"/>
			<point x="559" y="666" type="curve" smooth="yes"/>
			<point x="548" y="659"/>
			<point x="543" y="659"/>
			<point x="532" y="668" type="curve" smooth="yes"/>
			<point x="461" y="730"/>
			<point x="388" y="753"/>
			<point x="269" y="753" type="curve" smooth="yes"/>
			<point x="136" y="753"/>
			<point x="88" y="701"/>
			<point x="87" y="667" type="curve" smooth="yes"/>
			<point x="86" y="635"/>
			<point x="123" y="616"/>
			<point x="169" y="625" type="curve" smooth="yes"/>
			<point x="236" y="639"/>
			<point x="340" y="631"/>
			<point x="392" y="601" type="curve" smooth="yes"/>
			<point x="408" y="592"/>
			<point x="408" y="582"/>
			<point x="392" y="573" type="curve" smooth="yes"/>
			<point x="129" y="421"/>
			<point x="-51" y="100"/>
			<point x="78" y="5" type="curve" smooth="yes"/>
			<point x="175" y="-66"/>
			<point x="439" y="52"/>
			<point x="524" y="243" type="curve" smooth="yes"/>
			<point x="531" y="259"/>
			<point x="541" y="258"/>
			<point x="543" y="243" type="curve" smooth="yes"/>
			<point x="562" y="89"/>
			<point x="621" y="0"/>
		</contour>
		<contour>
			<point x="220" y="159" type="curve" smooth="yes"/>
			<point x="183" y="185"/>
			<point x="210" y="266"/>
			<point x="294" y="371" type="curve" smooth="yes"/>
			<point x="357" y="449"/>
			<point x="419" y="492"/>
			<point x="455" y="515" type="curve" smooth="yes"/>
			<point x="469" y="524"/>
			<point x="475" y="523"/>
			<point x="482" y="510" type="curve" smooth="yes"/>
			<point x="508" y="456"/>
			<point x="489" y="375"/>
			<point x="416" y="276" type="curve" smooth="yes"/>
			<point x="345" y="180"/>
			<point x="257" y="133"/>
		</contour>
	</outline>
</glyph>
<glyph name="B" format="2">
	<advance width="786"/>
	<unicode hex="0042"/>
	<outline>
		<contour>
			<point x="460" y="-6" type="curve" smooth="yes"/>
			<point x="635" y="-6"/>
			<point x="752" y="89"/>
			<point x="752" y="231" type="curve" smooth="yes"/>
			<point x="752" y="339"/>
			<point x="687" y="406"/>
			<point x="600" y="409" type="curve" smooth="yes"/>
			<point x="588" y="409"/>
			<point x="588" y="415"/>
			<point x="597" y="420" type="curve" smooth="yes"/>
			<point x="666" y="456"/>
			<point x="728" y="503"/>
			<point x="728" y="611" type="curve" smooth="yes"/>
			<point x="728" y="703"/>
			<point x="657" y="764"/>
			<point x="550" y="764" type="curve" smooth="yes"/>
			<point x="463" y="764"/>
			<point x="409" y="723"/>
			<point x="327" y="723" type="curve" smooth="yes"/>
			<point x="245" y="723"/>
			<point x="153" y="750"/>
			<point x="121" y="750" type="curve" smooth="yes"/>
			<point x="84" y="750"/>
			<point x="60" y="733"/>
			<point x="60" y="706" type="curve" smooth="yes"/>
			<point x="60" y="659"/>
			<point x="96" y="667"/>
			<point x="137" y="613" type="curve" smooth="yes"/>
			<point x="162" y="580"/>
			<point x="168" y="505"/>
			<point x="168" y="421" type="curve" smooth="yes"/>
			<point x="168" y="324" type="line" smooth="yes"/>
			<point x="168" y="240"/>
			<point x="162" y="165"/>
			<point x="137" y="132" type="curve" smooth="yes"/>
			<point x="96" y="78"/>
			<point x="60" y="86"/>
			<point x="60" y="39" type="curve" smooth="yes"/>
			<point x="60" y="11"/>
			<point x="84" y="-5"/>
			<point x="121" y="-5" type="curve" smooth="yes"/>
			<point x="172" y="-5"/>
			<point x="199" y="3"/>
			<point x="241" y="3" type="curve" smooth="yes"/>
			<point x="311" y="3"/>
			<point x="372" y="-6"/>
		</contour>
		<contour>
			<point x="324" y="106" type="curve" smooth="yes"/>
			<point x="292" y="147"/>
			<point x="278" y="252"/>
			<point x="353" y="301" type="curve" smooth="yes"/>
			<point x="424" y="346"/>
			<point x="507" y="354"/>
			<point x="557" y="325" type="curve" smooth="yes"/>
			<point x="613" y="292"/>
			<point x="613" y="205"/>
			<point x="535" y="128" type="curve" smooth="yes"/>
			<point x="473" y="68"/>
			<point x="360" y="61"/>
		</contour>
		<contour>
			<point x="329" y="393" type="curve" smooth="yes"/>
			<point x="300" y="406"/>
			<point x="289" y="466"/>
			<point x="308" y="532" type="curve" smooth="yes"/>
			<point x="326" y="595"/>
			<point x="382" y="636"/>
			<point x="449" y="648" type="curve" smooth="yes"/>
			<point x="517" y="660"/>
			<point x="576" y="633"/>
			<point x="576" y="578" type="curve" smooth="yes"/>
			<point x="576" y="468"/>
			<point x="386" y="367"/>
		</contour>
	</outline>
</glyph>
<glyph name="C" format="2">
	<advance width="767"/>
	<unicode hex="0043"/>
	<anchor x="379" y="0" name="bottom"/>
	<anchor x="406" y="745" name="top"/>
	<outline>
		<contour>
			<point x="407" y="-14" type="curve" smooth="yes"/>
			<point x="587" y="-14"/>
			<point x="686" y="101"/>
			<point x="738" y="230" type="curve" smooth="yes"/>
			<point x="751" y="262"/>
			<point x="750" y="288"/>
			<point x="736" y="295" type="curve" smooth="yes"/>
			<point x="713" y="306"/>
			<point x="699" y="290"/>
			<point x="675" y="256" type="curve" smooth="yes"/>
			<point x="630" y="192"/>
			<point x="559" y="142"/>
			<point x="465" y="142" type="curve" smooth="yes"/>
			<point x="303" y="142"/>
			<point x="180" y="273"/>
			<point x="180" y="437" type="curve" smooth="yes"/>
			<point x="180" y="560"/>
			<point x="261" y="660"/>
			<point x="380" y="660" type="curve" smooth="yes"/>
			<point x="472" y="660"/>
			<point x="533" y="610"/>
			<point x="585" y="527" type="curve" smooth="yes"/>
			<point x="620" y="471"/>
			<point x="654" y="474"/>
			<point x="677" y="504" type="curve" smooth="yes"/>
			<point x="696" y="529"/>
			<point x="715" y="664"/>
			<point x="713" y="695" type="curve" smooth="yes"/>
			<point x="710" y="738"/>
			<point x="687" y="740"/>
			<point x="621" y="730" type="curve" smooth="yes"/>
			<point x="552" y="720"/>
			<point x="529" y="760"/>
			<point x="407" y="760" type="curve" smooth="yes"/>
			<point x="204" y="760"/>
			<point x="30" y="586"/>
			<point x="30" y="373" type="curve" smooth="yes"/>
			<point x="30" y="160"/>
			<point x="194" y="-14"/>
		</contour>
	</outline>
</glyph>
<glyph name="D" format="2">
	<advance width="942"/>
	<unicode hex="0044"/>
	<anchor x="471" y="0" name="bottom"/>
	<anchor x="471" y="373" name="center"/>
	<anchor x="471" y="745" name="top"/>
	<outline>
		<contour>
			<point x="121" y="-5" type="curve" smooth="yes"/>
			<point x="172" y="-5"/>
			<point x="211" y="30"/>
			<point x="396" y="6" type="curve" smooth="yes"/>
			<point x="647" y="-26"/>
			<point x="912" y="52"/>
			<point x="912" y="373" type="curve" smooth="yes"/>
			<point x="912" y="605"/>
			<point x="743" y="765"/>
			<point x="521" y="765" type="curve" smooth="yes"/>
			<point x="415" y="765"/>
			<point x="351" y="742"/>
			<point x="251" y="742" type="curve" smooth="yes"/>
			<point x="209" y="742"/>
			<point x="161" y="750"/>
			<point x="131" y="750" type="curve" smooth="yes"/>
			<point x="94" y="750"/>
			<point x="70" y="732"/>
			<point x="70" y="702" type="curve" smooth="yes"/>
			<point x="70" y="669"/>
			<point x="96" y="667"/>
			<point x="137" y="613" type="curve" smooth="yes"/>
			<point x="162" y="580"/>
			<point x="168" y="505"/>
			<point x="168" y="421" type="curve" smooth="yes"/>
			<point x="168" y="324" type="line" smooth="yes"/>
			<point x="168" y="240"/>
			<point x="162" y="165"/>
			<point x="137" y="132" type="curve" smooth="yes"/>
			<point x="96" y="78"/>
			<point x="60" y="86"/>
			<point x="60" y="39" type="curve" smooth="yes"/>
			<point x="60" y="13"/>
			<point x="84" y="-5"/>
		</contour>
		<contour>
			<point x="486" y="91" type="curve" smooth="yes"/>
			<point x="357" y="110"/>
			<point x="311" y="219"/>
			<point x="311" y="451" type="curve" smooth="yes"/>
			<point x="311" y="612"/>
			<point x="364" y="669"/>
			<point x="466" y="669" type="curve" smooth="yes"/>
			<point x="639" y="669"/>
			<point x="743" y="484"/>
			<point x="743" y="312" type="curve" smooth="yes"/>
			<point x="743" y="179"/>
			<point x="647" y="68"/>
		</contour>
	</outline>
</glyph>
<glyph name="E" format="2">
	<advance width="767"/>
	<unicode hex="0045"/>
	<anchor x="389" y="0" name="bottom"/>
	<anchor x="699" y="10" name="ogonek"/>
	<anchor x="389" y="745" name="top"/>
	<anchor x="20" y="745" name="topleft"/>
	<outline>
		<contour>
			<point x="407" y="-14" type="curve" smooth="yes"/>
			<point x="587" y="-14"/>
			<point x="686" y="101"/>
			<point x="738" y="230" type="curve" smooth="yes"/>
			<point x="751" y="262"/>
			<point x="750" y="288"/>
			<point x="736" y="295" type="curve" smooth="yes"/>
			<point x="713" y="306"/>
			<point x="699" y="290"/>
			<point x="675" y="256" type="curve" smooth="yes"/>
			<point x="630" y="192"/>
			<point x="559" y="142"/>
			<point x="465" y="142" type="curve" smooth="yes"/>
			<point x="353" y="142"/>
			<point x="250" y="196"/>
			<point x="216" y="275" type="curve" smooth="yes"/>
			<point x="184" y="349"/>
			<point x="231" y="349"/>
			<point x="274" y="352" type="curve" smooth="yes"/>
			<point x="385" y="358"/>
			<point x="427" y="339"/>
			<point x="449" y="299" type="curve" smooth="yes"/>
			<point x="470" y="260"/>
			<point x="497" y="231"/>
			<point x="534" y="242" type="curve" smooth="yes"/>
			<point x="564" y="251"/>
			<point x="570" y="309"/>
			<point x="560" y="391" type="curve" smooth="yes"/>
			<point x="552" y="457"/>
			<point x="523" y="519"/>
			<point x="470" y="519" type="curve" smooth="yes"/>
			<point x="407" y="519"/>
			<point x="439" y="434"/>
			<point x="264" y="448" type="curve" smooth="yes"/>
			<point x="210" y="452"/>
			<point x="175" y="453"/>
			<point x="195" y="524" type="curve" smooth="yes"/>
			<point x="223" y="604"/>
			<point x="291" y="660"/>
			<point x="380" y="660" type="curve" smooth="yes"/>
			<point x="472" y="660"/>
			<point x="533" y="610"/>
			<point x="585" y="527" type="curve" smooth="yes"/>
			<point x="620" y="471"/>
			<point x="654" y="474"/>
			<point x="677" y="504" type="curve" smooth="yes"/>
			<point x="696" y="529"/>
			<point x="715" y="664"/>
			<point x="713" y="695" type="curve" smooth="yes"/>
			<point x="710" y="738"/>
			<point x="687" y="740"/>
			<point x="621" y="730" type="curve" smooth="yes"/>
			<point x="552" y="720"/>
			<point x="529" y="760"/>
			<point x="407" y="760" type="curve" smooth="yes"/>
			<point x="204" y="760"/>
			<point x="30" y="586"/>
			<point x="30" y="373" type="curve" smooth="yes"/>
			<point x="30" y="160"/>
			<point x="194" y="-14"/>
		</contour>
	</outline>
</glyph>
<glyph name="F" format="2">
	<advance width="777"/>
	<unicode hex="0046"/>
	<outline>
		<contour>
			<point x="141" y="-5" type="curve" smooth="yes"/>
			<point x="192" y="-5"/>
			<point x="219" y="3"/>
			<point x="261" y="3" type="curve" smooth="yes"/>
			<point x="304" y="3"/>
			<point x="341" y="-5"/>
			<point x="381" y="-5" type="curve" smooth="yes"/>
			<point x="418" y="-5"/>
			<point x="442" y="13"/>
			<point x="442" y="39" type="curve" smooth="yes"/>
			<point x="442" y="86"/>
			<point x="406" y="78"/>
			<point x="365" y="132" type="curve" smooth="yes"/>
			<point x="340" y="165"/>
			<point x="334" y="240"/>
			<point x="334" y="324" type="curve" smooth="yes"/>
			<point x="334" y="421" type="line" smooth="yes"/>
			<point x="334" y="529"/>
			<point x="335" y="593"/>
			<point x="358" y="625" type="curve" smooth="yes"/>
			<point x="377" y="652"/>
			<point x="414" y="663"/>
			<point x="469" y="663" type="curve" smooth="yes"/>
			<point x="549" y="663"/>
			<point x="602" y="636"/>
			<point x="627" y="564" type="curve" smooth="yes"/>
			<point x="646" y="509"/>
			<point x="665" y="481"/>
			<point x="688" y="479" type="curve" smooth="yes"/>
			<point x="725" y="476"/>
			<point x="747" y="523"/>
			<point x="760" y="641" type="curve" smooth="yes"/>
			<point x="771" y="737"/>
			<point x="730" y="769"/>
			<point x="677" y="769" type="curve" smooth="yes"/>
			<point x="624" y="769"/>
			<point x="435" y="735"/>
			<point x="314" y="735" type="curve" smooth="yes"/>
			<point x="242" y="735"/>
			<point x="151" y="750"/>
			<point x="121" y="750" type="curve" smooth="yes"/>
			<point x="84" y="750"/>
			<point x="60" y="732"/>
			<point x="60" y="702" type="curve" smooth="yes"/>
			<point x="60" y="669"/>
			<point x="96" y="667"/>
			<point x="137" y="613" type="curve" smooth="yes"/>
			<point x="162" y="580"/>
			<point x="188" y="505"/>
			<point x="188" y="421" type="curve" smooth="yes"/>
			<point x="188" y="324" type="line" smooth="yes"/>
			<point x="188" y="240"/>
			<point x="182" y="165"/>
			<point x="157" y="132" type="curve" smooth="yes"/>
			<point x="116" y="78"/>
			<point x="80" y="86"/>
			<point x="80" y="39" type="curve" smooth="yes"/>
			<point x="80" y="13"/>
			<point x="104" y="-5"/>
		</contour>
		<contour>
			<point x="564" y="222" type="curve" smooth="yes"/>
			<point x="594" y="231"/>
			<point x="600" y="289"/>
			<point x="590" y="371" type="curve" smooth="yes"/>
			<point x="582" y="437"/>
			<point x="553" y="499"/>
			<point x="500" y="499" type="curve" smooth="yes"/>
			<point x="442" y="499"/>
			<point x="464" y="420"/>
			<point x="365" y="422" type="curve" smooth="yes"/>
			<point x="344" y="423"/>
			<point x="334" y="430"/>
			<point x="334" y="456" type="curve"/>
			<point x="323" y="386" type="line"/>
			<point x="334" y="314" type="line"/>
			<point x="334" y="334"/>
			<point x="344" y="335"/>
			<point x="365" y="335" type="curve" smooth="yes"/>
			<point x="423" y="335"/>
			<point x="459" y="314"/>
			<point x="479" y="279" type="curve" smooth="yes"/>
			<point x="500" y="240"/>
			<point x="527" y="211"/>
		</contour>
	</outline>
</glyph>
<glyph name="G" format="2">
	<advance width="814"/>
	<unicode hex="0047"/>
	<anchor x="411" y="-14" name="bottom"/>
	<anchor x="400" y="745" name="top"/>
	<outline>
		<contour>
			<point x="312" y="-8" type="curve" smooth="yes"/>
			<point x="511" y="-40"/>
			<point x="560" y="86"/>
			<point x="618" y="91" type="curve" smooth="yes"/>
			<point x="680" y="97"/>
			<point x="709" y="-26"/>
			<point x="763" y="2" type="curve" smooth="yes"/>
			<point x="807" y="25"/>
			<point x="768" y="94"/>
			<point x="759" y="154" type="curve" smooth="yes"/>
			<point x="746" y="243"/>
			<point x="781" y="315"/>
			<point x="782" y="366" type="curve" smooth="yes"/>
			<point x="783" y="405"/>
			<point x="759" y="417"/>
			<point x="722" y="416" type="curve" smooth="yes"/>
			<point x="644" y="414"/>
			<point x="610" y="411"/>
			<point x="511" y="410" type="curve" smooth="yes"/>
			<point x="457" y="409"/>
			<point x="432" y="387"/>
			<point x="430" y="358" type="curve" smooth="yes"/>
			<point x="428" y="323"/>
			<point x="454" y="305"/>
			<point x="511" y="307" type="curve" smooth="yes"/>
			<point x="619" y="311"/>
			<point x="638" y="299"/>
			<point x="638" y="246" type="curve" smooth="yes"/>
			<point x="638" y="186"/>
			<point x="564" y="142"/>
			<point x="470" y="142" type="curve" smooth="yes"/>
			<point x="308" y="142"/>
			<point x="165" y="253"/>
			<point x="165" y="437" type="curve" smooth="yes"/>
			<point x="165" y="570"/>
			<point x="266" y="660"/>
			<point x="385" y="660" type="curve" smooth="yes"/>
			<point x="477" y="660"/>
			<point x="558" y="610"/>
			<point x="610" y="527" type="curve" smooth="yes"/>
			<point x="645" y="471"/>
			<point x="684" y="471"/>
			<point x="702" y="504" type="curve" smooth="yes"/>
			<point x="721" y="539"/>
			<point x="758" y="664"/>
			<point x="768" y="705" type="curve" smooth="yes"/>
			<point x="781" y="756"/>
			<point x="732" y="760"/>
			<point x="646" y="730" type="curve" smooth="yes"/>
			<point x="580" y="707"/>
			<point x="534" y="760"/>
			<point x="412" y="760" type="curve" smooth="yes"/>
			<point x="209" y="760"/>
			<point x="15" y="606"/>
			<point x="15" y="373" type="curve" smooth="yes"/>
			<point x="15" y="160"/>
			<point x="141" y="20"/>
		</contour>
	</outline>
</glyph>
<glyph name="I" format="2">
	<advance width="522"/>
	<unicode hex="0049"/>
	<anchor x="261" y="0" name="bottom"/>
	<anchor x="470" y="10" name="ogonek"/>
	<anchor x="261" y="745" name="top"/>
	<anchor x="20" y="745" name="topleft"/>
	<outline>
		<contour>
			<point x="141" y="-5" type="curve" smooth="yes"/>
			<point x="192" y="-5"/>
			<point x="219" y="3"/>
			<point x="261" y="3" type="curve" smooth="yes"/>
			<point x="304" y="3"/>
			<point x="341" y="-5"/>
			<point x="381" y="-5" type="curve" smooth="yes"/>
			<point x="418" y="-5"/>
			<point x="442" y="13"/>
			<point x="442" y="39" type="curve" smooth="yes"/>
			<point x="442" y="86"/>
			<point x="406" y="78"/>
			<point x="365" y="132" type="curve" smooth="yes"/>
			<point x="340" y="165"/>
			<point x="334" y="240"/>
			<point x="334" y="324" type="curve" smooth="yes"/>
			<point x="334" y="421" type="line" smooth="yes"/>
			<point x="334" y="505"/>
			<point x="340" y="580"/>
			<point x="365" y="613" type="curve" smooth="yes"/>
			<point x="406" y="667"/>
			<point x="432" y="669"/>
			<point x="432" y="702" type="curve" smooth="yes"/>
			<point x="432" y="732"/>
			<point x="408" y="750"/>
			<point x="371" y="750" type="curve" smooth="yes"/>
			<point x="330" y="750"/>
			<point x="304" y="742"/>
			<point x="261" y="742" type="curve" smooth="yes"/>
			<point x="219" y="742"/>
			<point x="181" y="750"/>
			<point x="151" y="750" type="curve" smooth="yes"/>
			<point x="114" y="750"/>
			<point x="90" y="732"/>
			<point x="90" y="702" type="curve" smooth="yes"/>
			<point x="90" y="669"/>
			<point x="116" y="667"/>
			<point x="157" y="613" type="curve" smooth="yes"/>
			<point x="182" y="580"/>
			<point x="188" y="505"/>
			<point x="188" y="421" type="curve" smooth="yes"/>
			<point x="188" y="324" type="line" smooth="yes"/>
			<point x="188" y="240"/>
			<point x="182" y="165"/>
			<point x="157" y="132" type="curve" smooth="yes"/>
			<point x="116" y="78"/>
			<point x="80" y="86"/>
			<point x="80" y="39" type="curve" smooth="yes"/>
			<point x="80" y="13"/>
			<point x="104" y="-5"/>
		</contour>
	</outline>
</glyph>
<glyph name="J" format="2">
	<advance width="492"/>
	<unicode hex="004A"/>
	<outline>
		<contour>
			<point x="91" y="-145" type="curve" smooth="yes"/>
			<point x="209" y="-125"/>
			<point x="334" y="-41"/>
			<point x="334" y="181" type="curve" smooth="yes"/>
			<point x="334" y="421" type="line" smooth="yes"/>
			<point x="334" y="505"/>
			<point x="340" y="580"/>
			<point x="365" y="613" type="curve" smooth="yes"/>
			<point x="406" y="667"/>
			<point x="432" y="669"/>
			<point x="432" y="702" type="curve" smooth="yes"/>
			<point x="432" y="732"/>
			<point x="408" y="750"/>
			<point x="371" y="750" type="curve" smooth="yes"/>
			<point x="330" y="750"/>
			<point x="304" y="742"/>
			<point x="261" y="742" type="curve" smooth="yes"/>
			<point x="219" y="742"/>
			<point x="181" y="750"/>
			<point x="151" y="750" type="curve" smooth="yes"/>
			<point x="114" y="750"/>
			<point x="90" y="732"/>
			<point x="90" y="702" type="curve" smooth="yes"/>
			<point x="90" y="669"/>
			<point x="116" y="667"/>
			<point x="157" y="613" type="curve" smooth="yes"/>
			<point x="182" y="580"/>
			<point x="188" y="505"/>
			<point x="188" y="421" type="curve" smooth="yes"/>
			<point x="188" y="324" type="line" smooth="yes"/>
			<point x="188" y="142"/>
			<point x="157" y="35"/>
			<point x="56" y="-46" type="curve" smooth="yes"/>
			<point x="29" y="-68"/>
			<point x="14" y="-95"/>
			<point x="22" y="-116" type="curve" smooth="yes"/>
			<point x="30" y="-137"/>
			<point x="54" y="-151"/>
		</contour>
	</outline>
</glyph>
<glyph name="K" format="2">
	<advance width="922"/>
	<unicode hex="004B"/>
	<anchor x="491" y="0" name="bottom"/>
	<anchor x="461" y="745" name="top"/>
	<outline>
		<contour>
			<point x="703" y="-16" type="curve" smooth="yes"/>
			<point x="816" y="-11"/>
			<point x="882" y="106"/>
			<point x="882" y="303" type="curve" smooth="yes"/>
			<point x="882" y="385"/>
			<point x="840" y="427"/>
			<point x="773" y="427" type="curve" smooth="yes"/>
			<point x="688" y="427"/>
			<point x="663" y="367"/>
			<point x="687" y="317" type="curve" smooth="yes"/>
			<point x="732" y="223"/>
			<point x="771" y="84"/>
			<point x="733" y="72" type="curve" smooth="yes"/>
			<point x="666" y="51"/>
			<point x="675" y="341"/>
			<point x="464" y="370" type="curve"/>
			<point x="644" y="456"/>
			<point x="814" y="630"/>
			<point x="814" y="702" type="curve" smooth="yes"/>
			<point x="814" y="732"/>
			<point x="800" y="750"/>
			<point x="763" y="750" type="curve" smooth="yes"/>
			<point x="722" y="750"/>
			<point x="700" y="742"/>
			<point x="657" y="742" type="curve" smooth="yes"/>
			<point x="615" y="742"/>
			<point x="593" y="750"/>
			<point x="563" y="750" type="curve" smooth="yes"/>
			<point x="526" y="750"/>
			<point x="502" y="732"/>
			<point x="502" y="702" type="curve" smooth="yes"/>
			<point x="502" y="669"/>
			<point x="558" y="654"/>
			<point x="569" y="613" type="curve" smooth="yes"/>
			<point x="582" y="563"/>
			<point x="547" y="463"/>
			<point x="338" y="400" type="curve" smooth="yes"/>
			<point x="321" y="395"/>
			<point x="314" y="402"/>
			<point x="314" y="420" type="curve" smooth="yes"/>
			<point x="314" y="502"/>
			<point x="320" y="580"/>
			<point x="345" y="613" type="curve" smooth="yes"/>
			<point x="386" y="667"/>
			<point x="412" y="669"/>
			<point x="412" y="702" type="curve" smooth="yes"/>
			<point x="412" y="732"/>
			<point x="388" y="750"/>
			<point x="351" y="750" type="curve" smooth="yes"/>
			<point x="310" y="750"/>
			<point x="284" y="742"/>
			<point x="241" y="742" type="curve" smooth="yes"/>
			<point x="199" y="742"/>
			<point x="161" y="750"/>
			<point x="131" y="750" type="curve" smooth="yes"/>
			<point x="94" y="750"/>
			<point x="70" y="732"/>
			<point x="70" y="702" type="curve" smooth="yes"/>
			<point x="70" y="669"/>
			<point x="96" y="667"/>
			<point x="137" y="613" type="curve" smooth="yes"/>
			<point x="162" y="580"/>
			<point x="168" y="505"/>
			<point x="168" y="421" type="curve" smooth="yes"/>
			<point x="168" y="324" type="line" smooth="yes"/>
			<point x="168" y="240"/>
			<point x="162" y="165"/>
			<point x="137" y="132" type="curve" smooth="yes"/>
			<point x="96" y="78"/>
			<point x="60" y="86"/>
			<point x="60" y="39" type="curve" smooth="yes"/>
			<point x="60" y="13"/>
			<point x="84" y="-5"/>
			<point x="121" y="-5" type="curve" smooth="yes"/>
			<point x="172" y="-5"/>
			<point x="199" y="3"/>
			<point x="241" y="3" type="curve" smooth="yes"/>
			<point x="284" y="3"/>
			<point x="321" y="-5"/>
			<point x="361" y="-5" type="curve" smooth="yes"/>
			<point x="398" y="-5"/>
			<point x="422" y="13"/>
			<point x="422" y="39" type="curve" smooth="yes"/>
			<point x="422" y="86"/>
			<point x="386" y="78"/>
			<point x="345" y="132" type="curve" smooth="yes"/>
			<point x="320" y="164"/>
			<point x="314" y="237"/>
			<point x="314" y="301" type="curve" smooth="yes"/>
			<point x="314" y="315"/>
			<point x="321" y="318"/>
			<point x="335" y="316" type="curve" smooth="yes"/>
			<point x="439" y="299"/>
			<point x="473" y="229"/>
			<point x="502" y="158" type="curve" smooth="yes"/>
			<point x="537" y="69"/>
			<point x="564" y="-22"/>
		</contour>
	</outline>
</glyph>
<glyph name="L" format="2">
	<advance width="744"/>
	<unicode hex="004C"/>
	<anchor x="372" y="0" name="bottom"/>
	<anchor x="372" y="373" name="center"/>
	<anchor x="240" y="745" name="top"/>
	<anchor x="724" y="745" name="topright"/>
	<outline>
		<contour>
			<point x="617" y="-6" type="curve" smooth="yes"/>
			<point x="670" y="-6"/>
			<point x="710" y="25"/>
			<point x="720" y="122" type="curve" smooth="yes"/>
			<point x="730" y="220"/>
			<point x="719" y="310"/>
			<point x="684" y="317" type="curve" smooth="yes"/>
			<point x="651" y="324"/>
			<point x="630" y="291"/>
			<point x="599" y="238" type="curve" smooth="yes"/>
			<point x="540" y="138"/>
			<point x="491" y="90"/>
			<point x="411" y="90" type="curve" smooth="yes"/>
			<point x="319" y="90"/>
			<point x="314" y="165"/>
			<point x="314" y="264" type="curve" smooth="yes"/>
			<point x="314" y="421" type="line" smooth="yes"/>
			<point x="314" y="505"/>
			<point x="320" y="580"/>
			<point x="345" y="613" type="curve" smooth="yes"/>
			<point x="386" y="667"/>
			<point x="412" y="669"/>
			<point x="412" y="702" type="curve" smooth="yes"/>
			<point x="412" y="732"/>
			<point x="388" y="750"/>
			<point x="351" y="750" type="curve" smooth="yes"/>
			<point x="310" y="750"/>
			<point x="284" y="742"/>
			<point x="241" y="742" type="curve" smooth="yes"/>
			<point x="199" y="742"/>
			<point x="161" y="750"/>
			<point x="131" y="750" type="curve" smooth="yes"/>
			<point x="94" y="750"/>
			<point x="70" y="732"/>
			<point x="70" y="702" type="curve" smooth="yes"/>
			<point x="70" y="669"/>
			<point x="96" y="667"/>
			<point x="137" y="613" type="curve" smooth="yes"/>
			<point x="162" y="580"/>
			<point x="168" y="505"/>
			<point x="168" y="421" type="curve" smooth="yes"/>
			<point x="168" y="324" type="line" smooth="yes"/>
			<point x="168" y="240"/>
			<point x="162" y="165"/>
			<point x="137" y="132" type="curve" smooth="yes"/>
			<point x="96" y="78"/>
			<point x="60" y="86"/>
			<point x="60" y="39" type="curve" smooth="yes"/>
			<point x="60" y="13"/>
			<point x="84" y="-5"/>
			<point x="121" y="-5" type="curve" smooth="yes"/>
			<point x="172" y="-5"/>
			<point x="259" y="3"/>
			<point x="341" y="3" type="curve" smooth="yes"/>
			<point x="422" y="3"/>
			<point x="564" y="-6"/>
		</contour>
	</outline>
</glyph>
<glyph name="M" format="2">
	<advance width="1181"/>
	<unicode hex="004D"/>
	<outline>
		<contour>
			<point x="558" y="-11" type="curve" smooth="yes"/>
			<point x="578" y="-11"/>
			<point x="589" y="7"/>
			<point x="599" y="33" type="curve" smooth="yes"/>
			<point x="778" y="480" type="line" smooth="yes"/>
			<point x="797" y="526"/>
			<point x="805" y="524"/>
			<point x="819" y="468" type="curve" smooth="yes"/>
			<point x="855" y="324" type="line" smooth="yes"/>
			<point x="875" y="241"/>
			<point x="901" y="165"/>
			<point x="876" y="132" type="curve" smooth="yes"/>
			<point x="835" y="78"/>
			<point x="799" y="86"/>
			<point x="799" y="39" type="curve" smooth="yes"/>
			<point x="799" y="13"/>
			<point x="823" y="-5"/>
			<point x="860" y="-5" type="curve" smooth="yes"/>
			<point x="911" y="-5"/>
			<point x="938" y="3"/>
			<point x="980" y="3" type="curve" smooth="yes"/>
			<point x="1023" y="3"/>
			<point x="1070" y="-5"/>
			<point x="1110" y="-5" type="curve" smooth="yes"/>
			<point x="1147" y="-5"/>
			<point x="1171" y="13"/>
			<point x="1171" y="39" type="curve" smooth="yes"/>
			<point x="1171" y="86"/>
			<point x="1135" y="78"/>
			<point x="1094" y="132" type="curve" smooth="yes"/>
			<point x="1069" y="165"/>
			<point x="1034" y="241"/>
			<point x="1011" y="324" type="curve" smooth="yes"/>
			<point x="984" y="421" type="line" smooth="yes"/>
			<point x="961" y="504"/>
			<point x="930" y="580"/>
			<point x="955" y="613" type="curve" smooth="yes"/>
			<point x="996" y="667"/>
			<point x="1062" y="669"/>
			<point x="1062" y="712" type="curve" smooth="yes"/>
			<point x="1062" y="737"/>
			<point x="1048" y="750"/>
			<point x="1007" y="750" type="curve" smooth="yes"/>
			<point x="891" y="750" type="line" smooth="yes"/>
			<point x="691" y="750"/>
			<point x="753" y="717"/>
			<point x="694" y="549" type="curve" smooth="yes"/>
			<point x="599" y="279" type="line" smooth="yes"/>
			<point x="590" y="255"/>
			<point x="582" y="255"/>
			<point x="573" y="278" type="curve" smooth="yes"/>
			<point x="463" y="544" type="line" smooth="yes"/>
			<point x="398" y="702"/>
			<point x="423" y="742"/>
			<point x="306" y="742" type="curve" smooth="yes"/>
			<point x="284" y="742"/>
			<point x="211" y="750"/>
			<point x="181" y="750" type="curve" smooth="yes"/>
			<point x="144" y="750"/>
			<point x="120" y="732"/>
			<point x="120" y="702" type="curve" smooth="yes"/>
			<point x="120" y="659"/>
			<point x="186" y="667"/>
			<point x="227" y="613" type="curve" smooth="yes"/>
			<point x="252" y="580"/>
			<point x="231" y="502"/>
			<point x="207" y="421" type="curve" smooth="yes"/>
			<point x="178" y="324" type="line" smooth="yes"/>
			<point x="154" y="243"/>
			<point x="122" y="165"/>
			<point x="97" y="132" type="curve" smooth="yes"/>
			<point x="56" y="78"/>
			<point x="20" y="86"/>
			<point x="20" y="39" type="curve" smooth="yes"/>
			<point x="20" y="13"/>
			<point x="44" y="-5"/>
			<point x="81" y="-5" type="curve" smooth="yes"/>
			<point x="132" y="-5"/>
			<point x="154" y="3"/>
			<point x="176" y="3" type="curve" smooth="yes"/>
			<point x="199" y="3"/>
			<point x="231" y="-5"/>
			<point x="271" y="-5" type="curve" smooth="yes"/>
			<point x="308" y="-5"/>
			<point x="332" y="13"/>
			<point x="332" y="39" type="curve" smooth="yes"/>
			<point x="332" y="86"/>
			<point x="296" y="78"/>
			<point x="255" y="132" type="curve" smooth="yes"/>
			<point x="230" y="165"/>
			<point x="252" y="243"/>
			<point x="275" y="324" type="curve" smooth="yes"/>
			<point x="315" y="465" type="line" smooth="yes"/>
			<point x="320" y="483"/>
			<point x="328" y="484"/>
			<point x="335" y="468" type="curve" smooth="yes"/>
			<point x="518" y="33" type="line"/>
			<point x="529" y="11"/>
			<point x="538" y="-11"/>
		</contour>
	</outline>
</glyph>
<glyph name="N" format="2">
	<advance width="999"/>
	<unicode hex="004E"/>
	<anchor x="505" y="0" name="bottom"/>
	<anchor x="505" y="745" name="top"/>
	<outline>
		<contour>
			<point x="830" y="-46" type="curve" smooth="yes"/>
			<point x="848" y="-39"/>
			<point x="851" y="-15"/>
			<point x="851" y="22" type="curve" smooth="yes"/>
			<point x="851" y="421" type="line" smooth="yes"/>
			<point x="851" y="505"/>
			<point x="857" y="580"/>
			<point x="882" y="613" type="curve" smooth="yes"/>
			<point x="923" y="667"/>
			<point x="949" y="669"/>
			<point x="949" y="702" type="curve" smooth="yes"/>
			<point x="949" y="732"/>
			<point x="925" y="750"/>
			<point x="888" y="750" type="curve" smooth="yes"/>
			<point x="847" y="750"/>
			<point x="841" y="742"/>
			<point x="803" y="742" type="curve" smooth="yes"/>
			<point x="766" y="742"/>
			<point x="748" y="750"/>
			<point x="718" y="750" type="curve" smooth="yes"/>
			<point x="681" y="750"/>
			<point x="657" y="732"/>
			<point x="657" y="702" type="curve" smooth="yes"/>
			<point x="657" y="669"/>
			<point x="683" y="667"/>
			<point x="724" y="613" type="curve" smooth="yes"/>
			<point x="749" y="580"/>
			<point x="755" y="505"/>
			<point x="755" y="421" type="curve" smooth="yes"/>
			<point x="755" y="259" type="line" smooth="yes"/>
			<point x="755" y="247"/>
			<point x="750" y="244"/>
			<point x="742" y="253" type="curve" smooth="yes"/>
			<point x="369" y="711" type="line" smooth="yes"/>
			<point x="353" y="731"/>
			<point x="334" y="750"/>
			<point x="301" y="750" type="curve" smooth="yes"/>
			<point x="260" y="750"/>
			<point x="254" y="742"/>
			<point x="216" y="742" type="curve" smooth="yes"/>
			<point x="179" y="742"/>
			<point x="161" y="750"/>
			<point x="131" y="750" type="curve" smooth="yes"/>
			<point x="94" y="750"/>
			<point x="70" y="732"/>
			<point x="70" y="702" type="curve" smooth="yes"/>
			<point x="70" y="669"/>
			<point x="96" y="667"/>
			<point x="137" y="613" type="curve" smooth="yes"/>
			<point x="162" y="580"/>
			<point x="168" y="505"/>
			<point x="168" y="421" type="curve" smooth="yes"/>
			<point x="168" y="324" type="line" smooth="yes"/>
			<point x="168" y="240"/>
			<point x="162" y="165"/>
			<point x="137" y="132" type="curve" smooth="yes"/>
			<point x="96" y="78"/>
			<point x="60" y="86"/>
			<point x="60" y="39" type="curve" smooth="yes"/>
			<point x="60" y="13"/>
			<point x="84" y="-5"/>
			<point x="121" y="-5" type="curve" smooth="yes"/>
			<point x="172" y="-5"/>
			<point x="179" y="3"/>
			<point x="216" y="3" type="curve" smooth="yes"/>
			<point x="254" y="3"/>
			<point x="271" y="-5"/>
			<point x="311" y="-5" type="curve" smooth="yes"/>
			<point x="348" y="-5"/>
			<point x="372" y="13"/>
			<point x="372" y="39" type="curve" smooth="yes"/>
			<point x="372" y="86"/>
			<point x="336" y="78"/>
			<point x="295" y="132" type="curve" smooth="yes"/>
			<point x="270" y="165"/>
			<point x="264" y="240"/>
			<point x="264" y="324" type="curve" smooth="yes"/>
			<point x="264" y="421" type="line" smooth="yes"/>
			<point x="264" y="471"/>
			<point x="267" y="519"/>
			<point x="272" y="546" type="curve" smooth="yes"/>
			<point x="274" y="561"/>
			<point x="279" y="561"/>
			<point x="288" y="550" type="curve" smooth="yes"/>
			<point x="457" y="353"/>
			<point x="740" y="15"/>
			<point x="765" y="-14" type="curve" smooth="yes"/>
			<point x="791" y="-45"/>
			<point x="811" y="-53"/>
		</contour>
	</outline>
</glyph>
<glyph name="O" format="2">
	<advance width="882"/>
	<unicode hex="004F"/>
	<anchor x="441" y="0" name="bottom"/>
	<anchor x="441" y="373" name="center"/>
	<anchor x="786" y="10" name="ogonek"/>
	<anchor x="441" y="755" name="top"/>
	<anchor x="30" y="745" name="topleft"/>
	<anchor x="852" y="745" name="topright"/>
	<outline>
		<contour>
			<point x="441" y="-14" type="curve" smooth="yes"/>
			<point x="669" y="-14"/>
			<point x="852" y="159"/>
			<point x="852" y="373" type="curve" smooth="yes"/>
			<point x="852" y="596"/>
			<point x="669" y="760"/>
			<point x="441" y="760" type="curve" smooth="yes"/>
			<point x="213" y="760"/>
			<point x="30" y="587"/>
			<point x="30" y="373" type="curve" smooth="yes"/>
			<point x="30" y="150"/>
			<point x="213" y="-14"/>
		</contour>
		<contour>
			<point x="475" y="107" type="curve" smooth="yes"/>
			<point x="318" y="107"/>
			<point x="216" y="286"/>
			<point x="216" y="452" type="curve" smooth="yes"/>
			<point x="216" y="570"/>
			<point x="293" y="659"/>
			<point x="407" y="659" type="curve" smooth="yes"/>
			<point x="564" y="659"/>
			<point x="666" y="481"/>
			<point x="666" y="315" type="curve" smooth="yes"/>
			<point x="666" y="197"/>
			<point x="589" y="107"/>
		</contour>
	</outline>
</glyph>
<glyph name="P" format="2">
	<advance width="758"/>
	<unicode hex="0050"/>
	<outline>
		<contour>
			<point x="121" y="-5" type="curve" smooth="yes"/>
			<point x="172" y="-5"/>
			<point x="199" y="3"/>
			<point x="241" y="3" type="curve" smooth="yes"/>
			<point x="284" y="3"/>
			<point x="321" y="-5"/>
			<point x="361" y="-5" type="curve" smooth="yes"/>
			<point x="398" y="-5"/>
			<point x="422" y="13"/>
			<point x="422" y="39" type="curve" smooth="yes"/>
			<point x="422" y="86"/>
			<point x="386" y="78"/>
			<point x="345" y="132" type="curve" smooth="yes"/>
			<point x="324" y="161"/>
			<point x="316" y="200"/>
			<point x="315" y="238" type="curve" smooth="yes"/>
			<point x="314" y="276"/>
			<point x="331" y="288"/>
			<point x="390" y="282" type="curve" smooth="yes"/>
			<point x="592" y="263"/>
			<point x="738" y="383"/>
			<point x="738" y="571" type="curve" smooth="yes"/>
			<point x="738" y="700"/>
			<point x="647" y="764"/>
			<point x="560" y="764" type="curve" smooth="yes"/>
			<point x="473" y="764"/>
			<point x="399" y="733"/>
			<point x="317" y="733" type="curve" smooth="yes"/>
			<point x="275" y="733"/>
			<point x="161" y="750"/>
			<point x="131" y="750" type="curve" smooth="yes"/>
			<point x="94" y="750"/>
			<point x="70" y="732"/>
			<point x="70" y="702" type="curve" smooth="yes"/>
			<point x="70" y="669"/>
			<point x="96" y="667"/>
			<point x="137" y="613" type="curve" smooth="yes"/>
			<point x="162" y="580"/>
			<point x="168" y="505"/>
			<point x="168" y="421" type="curve" smooth="yes"/>
			<point x="168" y="324" type="line" smooth="yes"/>
			<point x="168" y="240"/>
			<point x="162" y="165"/>
			<point x="137" y="132" type="curve" smooth="yes"/>
			<point x="96" y="78"/>
			<point x="60" y="86"/>
			<point x="60" y="39" type="curve" smooth="yes"/>
			<point x="60" y="13"/>
			<point x="84" y="-5"/>
		</contour>
		<contour>
			<point x="353" y="374" type="curve" smooth="yes"/>
			<point x="325" y="383"/>
			<point x="314" y="397"/>
			<point x="314" y="441" type="curve" smooth="yes"/>
			<point x="314" y="551"/>
			<point x="325" y="634"/>
			<point x="459" y="658" type="curve" smooth="yes"/>
			<point x="527" y="670"/>
			<point x="586" y="633"/>
			<point x="586" y="548" type="curve" smooth="yes"/>
			<point x="586" y="411"/>
			<point x="446" y="344"/>
		</contour>
	</outline>
</glyph>
<glyph name="Q" format="2">
	<advance width="882"/>
	<unicode hex="0051"/>
	<anchor x="441" y="0" name="bottom"/>
	<anchor x="441" y="373" name="center"/>
	<anchor x="786" y="10" name="ogonek"/>
	<anchor x="441" y="755" name="top"/>
	<anchor x="30" y="745" name="topleft"/>
	<anchor x="852" y="745" name="topright"/>
	<outline>
		<contour>
			<point x="696" y="-188" type="curve" smooth="yes"/>
			<point x="801" y="-188"/>
			<point x="833" y="-61"/>
			<point x="818" y="-35" type="curve" smooth="yes"/>
			<point x="810" y="-21"/>
			<point x="769" y="-23"/>
			<point x="713" y="-25" type="curve" smooth="yes"/>
			<point x="680" y="-26"/>
			<point x="584" y="-24"/>
			<point x="523" y="-19" type="curve" smooth="yes"/>
			<point x="504" y="-17"/>
			<point x="486" y="-16"/>
			<point x="487" y="-8" type="curve" smooth="yes"/>
			<point x="488" y="0"/>
			<point x="514" y="-3"/>
			<point x="563" y="6" type="curve" smooth="yes"/>
			<point x="711" y="34"/>
			<point x="852" y="186"/>
			<point x="852" y="373" type="curve" smooth="yes"/>
			<point x="852" y="596"/>
			<point x="669" y="760"/>
			<point x="441" y="760" type="curve" smooth="yes"/>
			<point x="213" y="760"/>
			<point x="30" y="587"/>
			<point x="30" y="373" type="curve" smooth="yes"/>
			<point x="30" y="222"/>
			<point x="114" y="98"/>
			<point x="281" y="34" type="curve" smooth="yes"/>
			<point x="294" y="29"/>
			<point x="292" y="26"/>
			<point x="279" y="25" type="curve" smooth="yes"/>
			<point x="223" y="20"/>
			<point x="199" y="13"/>
			<point x="171" y="0" type="curve" smooth="yes"/>
			<point x="128" y="-19"/>
			<point x="109" y="-44"/>
			<point x="119" y="-69" type="curve" smooth="yes"/>
			<point x="129" y="-94"/>
			<point x="161" y="-101"/>
			<point x="203" y="-90" type="curve" smooth="yes"/>
			<point x="245" y="-79"/>
			<point x="310" y="-80"/>
			<point x="381" y="-102" type="curve" smooth="yes"/>
			<point x="451" y="-124"/>
			<point x="620" y="-188"/>
		</contour>
		<contour>
			<point x="475" y="107" type="curve" smooth="yes"/>
			<point x="318" y="107"/>
			<point x="216" y="286"/>
			<point x="216" y="452" type="curve" smooth="yes"/>
			<point x="216" y="570"/>
			<point x="293" y="659"/>
			<point x="407" y="659" type="curve" smooth="yes"/>
			<point x="564" y="659"/>
			<point x="666" y="481"/>
			<point x="666" y="315" type="curve" smooth="yes"/>
			<point x="666" y="197"/>
			<point x="589" y="107"/>
		</contour>
	</outline>
</glyph>
<glyph name="R" format="2">
	<advance width="872"/>
	<unicode hex="0052"/>
	<anchor x="476" y="0" name="bottom"/>
	<anchor x="436" y="745" name="top"/>
	<outline>
		<contour>
			<point x="673" y="-6" type="curve" smooth="yes"/>
			<point x="786" y="-1"/>
			<point x="862" y="66"/>
			<point x="862" y="263" type="curve" smooth="yes"/>
			<point x="862" y="345"/>
			<point x="820" y="387"/>
			<point x="753" y="387" type="curve" smooth="yes"/>
			<point x="668" y="387"/>
			<point x="643" y="327"/>
			<point x="667" y="277" type="curve" smooth="yes"/>
			<point x="713" y="183"/>
			<point x="741" y="94"/>
			<point x="703" y="82" type="curve" smooth="yes"/>
			<point x="624" y="57"/>
			<point x="677" y="335"/>
			<point x="450" y="342" type="curve"/>
			<point x="682" y="393"/>
			<point x="738" y="503"/>
			<point x="738" y="611" type="curve" smooth="yes"/>
			<point x="738" y="700"/>
			<point x="647" y="764"/>
			<point x="560" y="764" type="curve" smooth="yes"/>
			<point x="473" y="764"/>
			<point x="409" y="723"/>
			<point x="327" y="723" type="curve" smooth="yes"/>
			<point x="285" y="723"/>
			<point x="161" y="750"/>
			<point x="131" y="750" type="curve" smooth="yes"/>
			<point x="94" y="750"/>
			<point x="70" y="732"/>
			<point x="70" y="702" type="curve" smooth="yes"/>
			<point x="70" y="669"/>
			<point x="96" y="667"/>
			<point x="137" y="613" type="curve" smooth="yes"/>
			<point x="162" y="580"/>
			<point x="168" y="505"/>
			<point x="168" y="421" type="curve" smooth="yes"/>
			<point x="168" y="324" type="line" smooth="yes"/>
			<point x="168" y="240"/>
			<point x="162" y="165"/>
			<point x="137" y="132" type="curve" smooth="yes"/>
			<point x="96" y="78"/>
			<point x="60" y="86"/>
			<point x="60" y="39" type="curve" smooth="yes"/>
			<point x="60" y="13"/>
			<point x="84" y="-5"/>
			<point x="121" y="-5" type="curve" smooth="yes"/>
			<point x="172" y="-5"/>
			<point x="199" y="3"/>
			<point x="241" y="3" type="curve" smooth="yes"/>
			<point x="284" y="3"/>
			<point x="321" y="-5"/>
			<point x="361" y="-5" type="curve" smooth="yes"/>
			<point x="398" y="-5"/>
			<point x="422" y="13"/>
			<point x="422" y="39" type="curve" smooth="yes"/>
			<point x="422" y="86"/>
			<point x="386" y="78"/>
			<point x="345" y="132" type="curve" smooth="yes"/>
			<point x="324" y="161"/>
			<point x="316" y="220"/>
			<point x="315" y="258" type="curve" smooth="yes"/>
			<point x="314" y="306"/>
			<point x="333" y="316"/>
			<point x="377" y="294" type="curve" smooth="yes"/>
			<point x="502" y="233"/>
			<point x="452" y="-15"/>
		</contour>
		<contour>
			<point x="334" y="402" type="curve" smooth="yes"/>
			<point x="319" y="400"/>
			<point x="314" y="404"/>
			<point x="314" y="421" type="curve" smooth="yes"/>
			<point x="314" y="551"/>
			<point x="325" y="624"/>
			<point x="459" y="648" type="curve" smooth="yes"/>
			<point x="527" y="660"/>
			<point x="586" y="633"/>
			<point x="586" y="578" type="curve" smooth="yes"/>
			<point x="586" y="477"/>
			<point x="460" y="420"/>
		</contour>
	</outline>
</glyph>
<glyph name="S" format="2">
	<advance width="775"/>
	<unicode hex="0053"/>
	<anchor x="378" y="-12" name="bottom"/>
	<anchor x="396" y="745" name="top"/>
	<outline>
		<contour>
			<point x="379" y="-14" type="curve" smooth="yes"/>
			<point x="552" y="-14"/>
			<point x="745" y="63"/>
			<point x="745" y="237" type="curve" smooth="yes"/>
			<point x="745" y="371"/>
			<point x="639" y="445"/>
			<point x="457" y="467" type="curve" smooth="yes"/>
			<point x="271" y="489"/>
			<point x="219" y="512"/>
			<point x="219" y="557" type="curve" smooth="yes"/>
			<point x="219" y="613"/>
			<point x="289" y="662"/>
			<point x="387" y="662" type="curve" smooth="yes"/>
			<point x="498" y="662"/>
			<point x="549" y="619"/>
			<point x="581" y="545" type="curve" smooth="yes"/>
			<point x="605" y="490"/>
			<point x="610" y="468"/>
			<point x="643" y="469" type="curve" smooth="yes"/>
			<point x="678" y="470"/>
			<point x="688" y="501"/>
			<point x="694" y="559" type="curve" smooth="yes"/>
			<point x="704" y="656"/>
			<point x="719" y="695"/>
			<point x="659" y="700" type="curve" smooth="yes"/>
			<point x="574" y="707"/>
			<point x="545" y="755"/>
			<point x="398" y="755" type="curve" smooth="yes"/>
			<point x="221" y="755"/>
			<point x="62" y="657"/>
			<point x="62" y="506" type="curve" smooth="yes"/>
			<point x="62" y="365"/>
			<point x="161" y="312"/>
			<point x="390" y="283" type="curve" smooth="yes"/>
			<point x="550" y="263"/>
			<point x="594" y="239"/>
			<point x="594" y="191" type="curve" smooth="yes"/>
			<point x="594" y="143"/>
			<point x="545" y="90"/>
			<point x="419" y="90" type="curve" smooth="yes"/>
			<point x="294" y="90"/>
			<point x="219" y="148"/>
			<point x="183" y="222" type="curve" smooth="yes"/>
			<point x="151" y="289"/>
			<point x="142" y="313"/>
			<point x="109" y="314" type="curve" smooth="yes"/>
			<point x="71" y="315"/>
			<point x="40" y="260"/>
			<point x="40" y="172" type="curve" smooth="yes"/>
			<point x="40" y="75"/>
			<point x="65" y="59"/>
			<point x="113" y="38" type="curve" smooth="yes"/>
			<point x="165" y="15"/>
			<point x="255" y="-14"/>
		</contour>
	</outline>
</glyph>
<glyph name="T" format="2">
	<advance width="742"/>
	<unicode hex="0054"/>
	<anchor x="371" y="0" name="bottom"/>
	<anchor x="371" y="373" name="center"/>
	<anchor x="371" y="745" name="top"/>
	<outline>
		<contour>
			<point x="249" y="-5" type="curve" smooth="yes"/>
			<point x="300" y="-5"/>
			<point x="344" y="0"/>
			<point x="369" y="0" type="curve" smooth="yes"/>
			<point x="409" y="0"/>
			<point x="449" y="-5"/>
			<point x="489" y="-5" type="curve" smooth="yes"/>
			<point x="533" y="-5"/>
			<point x="550" y="17"/>
			<point x="550" y="39" type="curve" smooth="yes"/>
			<point x="550" y="86"/>
			<point x="514" y="78"/>
			<point x="473" y="132" type="curve" smooth="yes"/>
			<point x="448" y="165"/>
			<point x="442" y="240"/>
			<point x="442" y="324" type="curve" smooth="yes"/>
			<point x="441" y="548" type="line" smooth="yes"/>
			<point x="441" y="607"/>
			<point x="469" y="633"/>
			<point x="518" y="633" type="curve" smooth="yes"/>
			<point x="568" y="633"/>
			<point x="601" y="619"/>
			<point x="636" y="555" type="curve" smooth="yes"/>
			<point x="664" y="502"/>
			<point x="675" y="476"/>
			<point x="708" y="479" type="curve" smooth="yes"/>
			<point x="746" y="482"/>
			<point x="747" y="553"/>
			<point x="737" y="641" type="curve" smooth="yes"/>
			<point x="726" y="737"/>
			<point x="697" y="769"/>
			<point x="644" y="769" type="curve" smooth="yes"/>
			<point x="591" y="769"/>
			<point x="522" y="735"/>
			<point x="371" y="735" type="curve" smooth="yes"/>
			<point x="220" y="735"/>
			<point x="151" y="769"/>
			<point x="98" y="769" type="curve" smooth="yes"/>
			<point x="45" y="769"/>
			<point x="16" y="737"/>
			<point x="5" y="641" type="curve" smooth="yes"/>
			<point x="-5" y="553"/>
			<point x="-4" y="482"/>
			<point x="34" y="479" type="curve" smooth="yes"/>
			<point x="67" y="476"/>
			<point x="78" y="502"/>
			<point x="106" y="555" type="curve" smooth="yes"/>
			<point x="139" y="617"/>
			<point x="172" y="633"/>
			<point x="219" y="633" type="curve" smooth="yes"/>
			<point x="272" y="633"/>
			<point x="297" y="605"/>
			<point x="297" y="548" type="curve" smooth="yes"/>
			<point x="296" y="324" type="line" smooth="yes"/>
			<point x="296" y="240"/>
			<point x="290" y="165"/>
			<point x="265" y="132" type="curve" smooth="yes"/>
			<point x="224" y="78"/>
			<point x="188" y="86"/>
			<point x="188" y="39" type="curve" smooth="yes"/>
			<point x="188" y="17"/>
			<point x="205" y="-5"/>
		</contour>
	</outline>
</glyph>
<glyph name="U" format="2">
	<advance width="924"/>
	<unicode hex="0055"/>
	<anchor x="462" y="0" name="bottom"/>
	<anchor x="848" y="10" name="ogonek"/>
	<anchor x="462" y="745" name="top"/>
	<anchor x="924" y="745" name="topright"/>
	<outline>
		<contour>
			<point x="463" y="-10" type="curve" smooth="yes"/>
			<point x="718" y="-10"/>
			<point x="816" y="128"/>
			<point x="796" y="324" type="curve" smooth="yes"/>
			<point x="779" y="484"/>
			<point x="777" y="561"/>
			<point x="817" y="613" type="curve" smooth="yes"/>
			<point x="858" y="667"/>
			<point x="884" y="669"/>
			<point x="884" y="702" type="curve" smooth="yes"/>
			<point x="884" y="732"/>
			<point x="860" y="750"/>
			<point x="823" y="750" type="curve" smooth="yes"/>
			<point x="782" y="750"/>
			<point x="756" y="742"/>
			<point x="713" y="742" type="curve" smooth="yes"/>
			<point x="671" y="742"/>
			<point x="633" y="750"/>
			<point x="603" y="750" type="curve" smooth="yes"/>
			<point x="566" y="750"/>
			<point x="542" y="732"/>
			<point x="542" y="702" type="curve" smooth="yes"/>
			<point x="542" y="669"/>
			<point x="568" y="667"/>
			<point x="609" y="613" type="curve" smooth="yes"/>
			<point x="635" y="579"/>
			<point x="640" y="519"/>
			<point x="640" y="354" type="curve" smooth="yes"/>
			<point x="640" y="176"/>
			<point x="591" y="94"/>
			<point x="463" y="94" type="curve" smooth="yes"/>
			<point x="333" y="94"/>
			<point x="284" y="176"/>
			<point x="284" y="354" type="curve" smooth="yes"/>
			<point x="284" y="515"/>
			<point x="288" y="578"/>
			<point x="315" y="613" type="curve" smooth="yes"/>
			<point x="356" y="667"/>
			<point x="382" y="669"/>
			<point x="382" y="702" type="curve" smooth="yes"/>
			<point x="382" y="732"/>
			<point x="358" y="750"/>
			<point x="321" y="750" type="curve" smooth="yes"/>
			<point x="280" y="750"/>
			<point x="254" y="742"/>
			<point x="211" y="742" type="curve" smooth="yes"/>
			<point x="169" y="742"/>
			<point x="131" y="750"/>
			<point x="101" y="750" type="curve" smooth="yes"/>
			<point x="64" y="750"/>
			<point x="40" y="732"/>
			<point x="40" y="702" type="curve" smooth="yes"/>
			<point x="40" y="669"/>
			<point x="66" y="667"/>
			<point x="107" y="613" type="curve" smooth="yes"/>
			<point x="146" y="562"/>
			<point x="145" y="487"/>
			<point x="128" y="324" type="curve" smooth="yes"/>
			<point x="108" y="128"/>
			<point x="208" y="-10"/>
		</contour>
	</outline>
</glyph>
<glyph name="V" format="2">
	<advance width="894"/>
	<unicode hex="0056"/>
	<outline>
		<contour>
			<point x="454" y="-30" type="curve" smooth="yes"/>
			<point x="483" y="-30"/>
			<point x="499" y="-10"/>
			<point x="529" y="47" type="curve"/>
			<point x="660" y="324" type="line" smooth="yes"/>
			<point x="722" y="462"/>
			<point x="774" y="561"/>
			<point x="817" y="613" type="curve" smooth="yes"/>
			<point x="860" y="665"/>
			<point x="894" y="669"/>
			<point x="894" y="702" type="curve" smooth="yes"/>
			<point x="894" y="732"/>
			<point x="870" y="750"/>
			<point x="833" y="750" type="curve" smooth="yes"/>
			<point x="792" y="750"/>
			<point x="766" y="742"/>
			<point x="723" y="742" type="curve" smooth="yes"/>
			<point x="681" y="742"/>
			<point x="633" y="750"/>
			<point x="603" y="750" type="curve" smooth="yes"/>
			<point x="566" y="750"/>
			<point x="542" y="732"/>
			<point x="542" y="702" type="curve" smooth="yes"/>
			<point x="542" y="669"/>
			<point x="578" y="667"/>
			<point x="619" y="613" type="curve" smooth="yes"/>
			<point x="645" y="579"/>
			<point x="616" y="498"/>
			<point x="552" y="354" type="curve" smooth="yes"/>
			<point x="485" y="204" type="line" smooth="yes"/>
			<point x="479" y="190"/>
			<point x="474" y="190"/>
			<point x="467" y="203" type="curve" smooth="yes"/>
			<point x="384" y="369" type="line" smooth="yes"/>
			<point x="317" y="502"/>
			<point x="282" y="576"/>
			<point x="305" y="613" type="curve" smooth="yes"/>
			<point x="333" y="657"/>
			<point x="372" y="669"/>
			<point x="372" y="702" type="curve" smooth="yes"/>
			<point x="372" y="732"/>
			<point x="348" y="750"/>
			<point x="311" y="750" type="curve" smooth="yes"/>
			<point x="270" y="750"/>
			<point x="214" y="742"/>
			<point x="171" y="742" type="curve" smooth="yes"/>
			<point x="129" y="742"/>
			<point x="91" y="750"/>
			<point x="61" y="750" type="curve" smooth="yes"/>
			<point x="24" y="750"/>
			<point x="0" y="732"/>
			<point x="0" y="702" type="curve" smooth="yes"/>
			<point x="0" y="669"/>
			<point x="26" y="667"/>
			<point x="67" y="613" type="curve" smooth="yes"/>
			<point x="106" y="562"/>
			<point x="166" y="460"/>
			<point x="232" y="324" type="curve" smooth="yes"/>
			<point x="370" y="40" type="line" smooth="yes"/>
			<point x="399" y="-19"/>
			<point x="418" y="-30"/>
		</contour>
	</outline>
</glyph>
<glyph name="W" format="2">
	<advance width="1181"/>
	<unicode hex="0057"/>
	<anchor x="591" y="0" name="bottom"/>
	<anchor x="621" y="745" name="top"/>
	<outline>
		<contour>
			<point x="359" y="-30" type="curve" smooth="yes"/>
			<point x="396" y="-28"/>
			<point x="413" y="-1"/>
			<point x="438" y="65" type="curve" smooth="yes"/>
			<point x="590" y="462" type="line" smooth="yes"/>
			<point x="598" y="483"/>
			<point x="605" y="484"/>
			<point x="613" y="462" type="curve" smooth="yes"/>
			<point x="762" y="66" type="line" smooth="yes"/>
			<point x="783" y="10"/>
			<point x="797" y="-30"/>
			<point x="841" y="-30" type="curve" smooth="yes"/>
			<point x="884" y="-30"/>
			<point x="892" y="9"/>
			<point x="910" y="66" type="curve" smooth="yes"/>
			<point x="1023" y="416" type="line" smooth="yes"/>
			<point x="1047" y="490"/>
			<point x="1079" y="575"/>
			<point x="1104" y="608" type="curve" smooth="yes"/>
			<point x="1145" y="662"/>
			<point x="1181" y="654"/>
			<point x="1181" y="701" type="curve" smooth="yes"/>
			<point x="1181" y="727"/>
			<point x="1157" y="745"/>
			<point x="1120" y="745" type="curve" smooth="yes"/>
			<point x="1069" y="745"/>
			<point x="1047" y="737"/>
			<point x="1025" y="737" type="curve" smooth="yes"/>
			<point x="1002" y="737"/>
			<point x="970" y="745"/>
			<point x="930" y="745" type="curve" smooth="yes"/>
			<point x="893" y="745"/>
			<point x="869" y="727"/>
			<point x="869" y="701" type="curve" smooth="yes"/>
			<point x="869" y="654"/>
			<point x="905" y="662"/>
			<point x="946" y="608" type="curve" smooth="yes"/>
			<point x="971" y="575"/>
			<point x="955" y="496"/>
			<point x="926" y="416" type="curve" smooth="yes"/>
			<point x="872" y="265" type="line" smooth="yes"/>
			<point x="864" y="243"/>
			<point x="857" y="243"/>
			<point x="849" y="265" type="curve" smooth="yes"/>
			<point x="685" y="715" type="line" smooth="yes"/>
			<point x="670" y="755"/>
			<point x="651" y="764"/>
			<point x="614" y="753" type="curve" smooth="yes"/>
			<point x="552" y="734" type="line" smooth="yes"/>
			<point x="524" y="726"/>
			<point x="522" y="698"/>
			<point x="537" y="669" type="curve" smooth="yes"/>
			<point x="552" y="640"/>
			<point x="549" y="617"/>
			<point x="540" y="595" type="curve" smooth="yes"/>
			<point x="410" y="278" type="line" smooth="yes"/>
			<point x="401" y="256"/>
			<point x="394" y="236"/>
			<point x="382" y="236" type="curve" smooth="yes"/>
			<point x="371" y="236"/>
			<point x="366" y="256"/>
			<point x="355" y="290" type="curve" smooth="yes"/>
			<point x="314" y="416" type="line" smooth="yes"/>
			<point x="288" y="497"/>
			<point x="260" y="575"/>
			<point x="285" y="608" type="curve" smooth="yes"/>
			<point x="316" y="649"/>
			<point x="362" y="654"/>
			<point x="362" y="701" type="curve" smooth="yes"/>
			<point x="362" y="727"/>
			<point x="338" y="745"/>
			<point x="301" y="745" type="curve" smooth="yes"/>
			<point x="250" y="745"/>
			<point x="223" y="737"/>
			<point x="181" y="737" type="curve" smooth="yes"/>
			<point x="138" y="737"/>
			<point x="101" y="745"/>
			<point x="61" y="745" type="curve" smooth="yes"/>
			<point x="24" y="745"/>
			<point x="0" y="727"/>
			<point x="0" y="701" type="curve" smooth="yes"/>
			<point x="0" y="654"/>
			<point x="36" y="662"/>
			<point x="77" y="608" type="curve" smooth="yes"/>
			<point x="102" y="575"/>
			<point x="125" y="496"/>
			<point x="154" y="416" type="curve" smooth="yes"/>
			<point x="279" y="66" type="line" smooth="yes"/>
			<point x="301" y="3"/>
			<point x="324" y="-31"/>
		</contour>
	</outline>
</glyph>
<glyph name="X" format="2">
	<advance width="841"/>
	<unicode hex="0058"/>
	<outline>
		<contour>
			<point x="730" y="-15" type="curve" smooth="yes"/>
			<point x="797" y="-15"/>
			<point x="831" y="23"/>
			<point x="831" y="49" type="curve" smooth="yes"/>
			<point x="831" y="86"/>
			<point x="799" y="85"/>
			<point x="733" y="137" type="curve" smooth="yes"/>
			<point x="681" y="178"/>
			<point x="606" y="249"/>
			<point x="520" y="349" type="curve" smooth="yes"/>
			<point x="496" y="377"/>
			<point x="496" y="388"/>
			<point x="518" y="411" type="curve" smooth="yes"/>
			<point x="587" y="483"/>
			<point x="690" y="580"/>
			<point x="724" y="613" type="curve" smooth="yes"/>
			<point x="773" y="660"/>
			<point x="811" y="669"/>
			<point x="811" y="702" type="curve" smooth="yes"/>
			<point x="811" y="732"/>
			<point x="787" y="750"/>
			<point x="750" y="750" type="curve" smooth="yes"/>
			<point x="720" y="750"/>
			<point x="702" y="742"/>
			<point x="660" y="742" type="curve" smooth="yes"/>
			<point x="617" y="742"/>
			<point x="611" y="750"/>
			<point x="570" y="750" type="curve" smooth="yes"/>
			<point x="533" y="750"/>
			<point x="509" y="732"/>
			<point x="509" y="702" type="curve" smooth="yes"/>
			<point x="509" y="659"/>
			<point x="548" y="675"/>
			<point x="559" y="629" type="curve" smooth="yes"/>
			<point x="567" y="596"/>
			<point x="506" y="528"/>
			<point x="450" y="471" type="curve" smooth="yes"/>
			<point x="438" y="458"/>
			<point x="428" y="458"/>
			<point x="416" y="472" type="curve" smooth="yes"/>
			<point x="369" y="529"/>
			<point x="314" y="597"/>
			<point x="322" y="629" type="curve" smooth="yes"/>
			<point x="331" y="666"/>
			<point x="362" y="659"/>
			<point x="362" y="702" type="curve" smooth="yes"/>
			<point x="362" y="732"/>
			<point x="338" y="750"/>
			<point x="301" y="750" type="curve" smooth="yes"/>
			<point x="260" y="750"/>
			<point x="234" y="742"/>
			<point x="191" y="742" type="curve" smooth="yes"/>
			<point x="149" y="742"/>
			<point x="101" y="750"/>
			<point x="71" y="750" type="curve" smooth="yes"/>
			<point x="34" y="750"/>
			<point x="10" y="732"/>
			<point x="10" y="702" type="curve" smooth="yes"/>
			<point x="10" y="669"/>
			<point x="48" y="660"/>
			<point x="97" y="613" type="curve" smooth="yes"/>
			<point x="131" y="580"/>
			<point x="237" y="466"/>
			<point x="304" y="386" type="curve" smooth="yes"/>
			<point x="325" y="362"/>
			<point x="332" y="348"/>
			<point x="300" y="314" type="curve" smooth="yes"/>
			<point x="250" y="262"/>
			<point x="153" y="163"/>
			<point x="117" y="133" type="curve" smooth="yes"/>
			<point x="71" y="95"/>
			<point x="30" y="86"/>
			<point x="30" y="39" type="curve" smooth="yes"/>
			<point x="30" y="13"/>
			<point x="54" y="-5"/>
			<point x="91" y="-5" type="curve" smooth="yes"/>
			<point x="131" y="-5"/>
			<point x="148" y="3"/>
			<point x="191" y="3" type="curve" smooth="yes"/>
			<point x="233" y="3"/>
			<point x="250" y="-5"/>
			<point x="301" y="-5" type="curve" smooth="yes"/>
			<point x="338" y="-5"/>
			<point x="362" y="13"/>
			<point x="362" y="39" type="curve" smooth="yes"/>
			<point x="362" y="86"/>
			<point x="306" y="78"/>
			<point x="288" y="123" type="curve" smooth="yes"/>
			<point x="275" y="157"/>
			<point x="322" y="210"/>
			<point x="373" y="261" type="curve" smooth="yes"/>
			<point x="388" y="276"/>
			<point x="397" y="276"/>
			<point x="409" y="261" type="curve" smooth="yes"/>
			<point x="452" y="208"/>
			<point x="494" y="151"/>
			<point x="523" y="113" type="curve" smooth="yes"/>
			<point x="578" y="41"/>
			<point x="637" y="-15"/>
		</contour>
	</outline>
</glyph>
<glyph name="Y" format="2">
	<advance width="728"/>
	<unicode hex="0059"/>
	<anchor x="359" y="0" name="bottom"/>
	<anchor x="389" y="745" name="top"/>
	<anchor x="-5" y="745" name="topleft"/>
	<outline>
		<contour>
			<point x="253" y="-5" type="curve" smooth="yes"/>
			<point x="286" y="-5"/>
			<point x="339" y="3"/>
			<point x="373" y="3" type="curve" smooth="yes"/>
			<point x="408" y="3"/>
			<point x="464" y="-5"/>
			<point x="493" y="-5" type="curve" smooth="yes"/>
			<point x="530" y="-5"/>
			<point x="554" y="13"/>
			<point x="554" y="39" type="curve" smooth="yes"/>
			<point x="554" y="86"/>
			<point x="518" y="78"/>
			<point x="477" y="132" type="curve" smooth="yes"/>
			<point x="444" y="176"/>
			<point x="426" y="264"/>
			<point x="464" y="306" type="curve" smooth="yes"/>
			<point x="651" y="509"/>
			<point x="733" y="615"/>
			<point x="738" y="678" type="curve" smooth="yes"/>
			<point x="742" y="732"/>
			<point x="703" y="761"/>
			<point x="657" y="762" type="curve" smooth="yes"/>
			<point x="621" y="763"/>
			<point x="591" y="751"/>
			<point x="567" y="708" type="curve" smooth="yes"/>
			<point x="533" y="647"/>
			<point x="518" y="535"/>
			<point x="419" y="403" type="curve" smooth="yes"/>
			<point x="408" y="389"/>
			<point x="401" y="390"/>
			<point x="395" y="405" type="curve" smooth="yes"/>
			<point x="286" y="667"/>
			<point x="194" y="761"/>
			<point x="122" y="761" type="curve" smooth="yes"/>
			<point x="55" y="761"/>
			<point x="21" y="736"/>
			<point x="3" y="716" type="curve" smooth="yes"/>
			<point x="-16" y="695"/>
			<point x="-28" y="668"/>
			<point x="-14" y="640" type="curve" smooth="yes"/>
			<point x="19" y="574"/>
			<point x="114" y="598"/>
			<point x="197" y="451" type="curve" smooth="yes"/>
			<point x="250" y="357"/>
			<point x="299" y="268"/>
			<point x="299" y="214" type="curve" smooth="yes"/>
			<point x="299" y="165"/>
			<point x="294" y="165"/>
			<point x="269" y="132" type="curve" smooth="yes"/>
			<point x="228" y="78"/>
			<point x="192" y="86"/>
			<point x="192" y="39" type="curve" smooth="yes"/>
			<point x="192" y="13"/>
			<point x="216" y="-5"/>
		</contour>
	</outline>
</glyph>
<glyph name="Z" format="2">
	<advance width="796"/>
	<unicode hex="005A"/>
	<anchor x="398" y="0" name="bottom"/>
	<anchor x="466" y="745" name="top"/>
	<outline>
		<contour>
			<point x="145" y="0" type="curve" smooth="yes"/>
			<point x="596" y="0" type="line" smooth="yes"/>
			<point x="718" y="0"/>
			<point x="756" y="6"/>
			<point x="756" y="153" type="curve" smooth="yes"/>
			<point x="756" y="190"/>
			<point x="758" y="244"/>
			<point x="732" y="254" type="curve" smooth="yes"/>
			<point x="707" y="264"/>
			<point x="690" y="246"/>
			<point x="649" y="195" type="curve" smooth="yes"/>
			<point x="580" y="109"/>
			<point x="491" y="96"/>
			<point x="397" y="96" type="curve" smooth="yes"/>
			<point x="315" y="96" type="line" smooth="yes"/>
			<point x="288" y="96"/>
			<point x="281" y="106"/>
			<point x="299" y="129" type="curve" smooth="yes"/>
			<point x="705" y="653" type="line" smooth="yes"/>
			<point x="730" y="685"/>
			<point x="744" y="705"/>
			<point x="737" y="724" type="curve" smooth="yes"/>
			<point x="730" y="742"/>
			<point x="706" y="745"/>
			<point x="669" y="745" type="curve" smooth="yes"/>
			<point x="330" y="745" type="line" smooth="yes"/>
			<point x="247" y="745"/>
			<point x="252" y="793"/>
			<point x="199" y="793" type="curve" smooth="yes"/>
			<point x="164" y="793"/>
			<point x="136" y="758"/>
			<point x="104" y="689" type="curve" smooth="yes"/>
			<point x="62" y="598"/>
			<point x="44" y="551"/>
			<point x="99" y="551" type="curve" smooth="yes"/>
			<point x="132" y="551"/>
			<point x="154" y="577"/>
			<point x="208" y="618" type="curve" smooth="yes"/>
			<point x="241" y="643"/>
			<point x="296" y="649"/>
			<point x="380" y="649" type="curve" smooth="yes"/>
			<point x="449" y="649" type="line" smooth="yes"/>
			<point x="474" y="649"/>
			<point x="478" y="643"/>
			<point x="461" y="621" type="curve" smooth="yes"/>
			<point x="72" y="104" type="line" smooth="yes"/>
			<point x="38" y="58"/>
			<point x="34" y="43"/>
			<point x="45" y="21" type="curve" smooth="yes"/>
			<point x="58" y="-4"/>
			<point x="93" y="0"/>
		</contour>
	</outline>
</glyph>
<glyph name="bracketleft" format="2">
	<advance width="460"/>
	<unicode hex="005B"/>
	<outline>
		<contour>
			<point x="126" y="-209" type="curve" smooth="yes"/>
			<point x="366" y="-195" type="line" smooth="yes"/>
			<point x="415" y="-192"/>
			<point x="443" y="-178"/>
			<point x="440" y="-143" type="curve" smooth="yes"/>
			<point x="437" y="-108"/>
			<point x="411" y="-96"/>
			<point x="356" y="-96" type="curve" smooth="yes"/>
			<point x="282" y="-96" type="line" smooth="yes"/>
			<point x="239" y="-96"/>
			<point x="230" y="-84"/>
			<point x="229" y="-40" type="curve" smooth="yes"/>
			<point x="225" y="133"/>
			<point x="223" y="227"/>
			<point x="223" y="297" type="curve" smooth="yes"/>
			<point x="223" y="367"/>
			<point x="225" y="461"/>
			<point x="229" y="634" type="curve" smooth="yes"/>
			<point x="230" y="678"/>
			<point x="239" y="690"/>
			<point x="282" y="690" type="curve" smooth="yes"/>
			<point x="356" y="690" type="line" smooth="yes"/>
			<point x="411" y="690"/>
			<point x="437" y="702"/>
			<point x="440" y="737" type="curve" smooth="yes"/>
			<point x="443" y="772"/>
			<point x="415" y="786"/>
			<point x="366" y="789" type="curve" smooth="yes"/>
			<point x="126" y="803" type="line" smooth="yes"/>
			<point x="87" y="805"/>
			<point x="60" y="782"/>
			<point x="60" y="751" type="curve" smooth="yes"/>
			<point x="60" y="687"/>
			<point x="67" y="491"/>
			<point x="67" y="297" type="curve" smooth="yes"/>
			<point x="67" y="103"/>
			<point x="60" y="-93"/>
			<point x="60" y="-157" type="curve" smooth="yes"/>
			<point x="60" y="-188"/>
			<point x="87" y="-211"/>
		</contour>
	</outline>
</glyph>
<glyph name="backslash" format="2">
	<advance width="505"/>
	<unicode hex="005C"/>
	<outline>
		<contour>
			<point x="439" y="-203" type="curve" smooth="yes"/>
			<point x="471" y="-189"/>
			<point x="500" y="-159"/>
			<point x="469" y="-74" type="curve" smooth="yes"/>
			<point x="440" y="0"/>
			<point x="368" y="149"/>
			<point x="307" y="317" type="curve" smooth="yes"/>
			<point x="244" y="486"/>
			<point x="201" y="648"/>
			<point x="173" y="723" type="curve" smooth="yes"/>
			<point x="141" y="808"/>
			<point x="102" y="821"/>
			<point x="67" y="807" type="curve" smooth="yes"/>
			<point x="32" y="793"/>
			<point x="6" y="760"/>
			<point x="36" y="675" type="curve" smooth="yes"/>
			<point x="63" y="599"/>
			<point x="138" y="450"/>
			<point x="201" y="281" type="curve" smooth="yes"/>
			<point x="263" y="115"/>
			<point x="304" y="-47"/>
			<point x="331" y="-123" type="curve" smooth="yes"/>
			<point x="363" y="-210"/>
			<point x="404" y="-220"/>
		</contour>
	</outline>
</glyph>
<glyph name="bracketright" format="2">
	<advance width="460"/>
	<unicode hex="005D"/>
	<outline>
		<contour>
			<point x="94" y="-195" type="curve" smooth="yes"/>
			<point x="334" y="-209" type="line"/>
			<point x="373" y="-211"/>
			<point x="400" y="-188"/>
			<point x="400" y="-157" type="curve" smooth="yes"/>
			<point x="400" y="-93"/>
			<point x="393" y="103"/>
			<point x="393" y="297" type="curve" smooth="yes"/>
			<point x="393" y="491"/>
			<point x="400" y="687"/>
			<point x="400" y="751" type="curve" smooth="yes"/>
			<point x="400" y="782"/>
			<point x="373" y="805"/>
			<point x="334" y="803" type="curve" smooth="yes"/>
			<point x="94" y="789" type="line" smooth="yes"/>
			<point x="45" y="786"/>
			<point x="17" y="772"/>
			<point x="20" y="737" type="curve" smooth="yes"/>
			<point x="23" y="702"/>
			<point x="49" y="690"/>
			<point x="104" y="690" type="curve" smooth="yes"/>
			<point x="178" y="690" type="line" smooth="yes"/>
			<point x="221" y="690"/>
			<point x="230" y="678"/>
			<point x="231" y="634" type="curve" smooth="yes"/>
			<point x="235" y="461"/>
			<point x="237" y="367"/>
			<point x="237" y="297" type="curve" smooth="yes"/>
			<point x="237" y="227"/>
			<point x="235" y="133"/>
			<point x="231" y="-40" type="curve" smooth="yes"/>
			<point x="230" y="-84"/>
			<point x="221" y="-96"/>
			<point x="178" y="-96" type="curve" smooth="yes"/>
			<point x="104" y="-96" type="line" smooth="yes"/>
			<point x="49" y="-96"/>
			<point x="23" y="-108"/>
			<point x="20" y="-143" type="curve" smooth="yes"/>
			<point x="17" y="-178"/>
			<point x="45" y="-192"/>
		</contour>
	</outline>
</glyph>
<glyph name="underscore" format="2">
	<advance width="620"/>
	<unicode hex="005F"/>
	<outline>
		<contour>
			<point x="100" y="-128" type="curve" smooth="yes"/>
			<point x="164" y="-128"/>
			<point x="235" y="-120"/>
			<point x="308" y="-120" type="curve" smooth="yes"/>
			<point x="382" y="-120"/>
			<point x="455" y="-128"/>
			<point x="520" y="-128" type="curve" smooth="yes"/>
			<point x="550" y="-128"/>
			<point x="570" y="-98"/>
			<point x="570" y="-53" type="curve" smooth="yes"/>
			<point x="570" y="-10"/>
			<point x="550" y="18"/>
			<point x="520" y="18" type="curve" smooth="yes"/>
			<point x="455" y="18"/>
			<point x="382" y="10"/>
			<point x="308" y="10" type="curve" smooth="yes"/>
			<point x="235" y="10"/>
			<point x="164" y="18"/>
			<point x="100" y="18" type="curve" smooth="yes"/>
			<point x="70" y="18"/>
			<point x="50" y="-11"/>
			<point x="50" y="-54" type="curve" smooth="yes"/>
			<point x="50" y="-98"/>
			<point x="70" y="-128"/>
		</contour>
	</outline>
</glyph>
<glyph name="a" format="2">
	<advance width="670"/>
	<unicode hex="0061"/>
	<anchor x="335" y="0" name="bottom"/>
	<anchor x="595" y="10" name="ogonek"/>
	<anchor x="335" y="550" name="top"/>
	<outline>
		<contour>
			<point x="568" y="-7" type="curve" smooth="yes"/>
			<point x="611" y="-7"/>
			<point x="650" y="33"/>
			<point x="650" y="66" type="curve" smooth="yes"/>
			<point x="650" y="100"/>
			<point x="589" y="146"/>
			<point x="546" y="245" type="curve" smooth="yes"/>
			<point x="508" y="333"/>
			<point x="502" y="375"/>
			<point x="535" y="429" type="curve" smooth="yes"/>
			<point x="569" y="484"/>
			<point x="611" y="513"/>
			<point x="578" y="546" type="curve" smooth="yes"/>
			<point x="546" y="578"/>
			<point x="429" y="528"/>
			<point x="354" y="478" type="curve"/>
			<point x="483" y="469" type="line"/>
			<point x="414" y="539"/>
			<point x="356" y="575"/>
			<point x="250" y="575" type="curve" smooth="yes"/>
			<point x="137" y="575"/>
			<point x="68" y="533"/>
			<point x="62" y="499" type="curve" smooth="yes"/>
			<point x="57" y="474"/>
			<point x="74" y="455"/>
			<point x="116" y="456" type="curve" smooth="yes"/>
			<point x="178" y="458"/>
			<point x="276" y="467"/>
			<point x="338" y="408" type="curve"/>
			<point x="317" y="456" type="line"/>
			<point x="83" y="346"/>
			<point x="-24" y="80"/>
			<point x="80" y="3" type="curve" smooth="yes"/>
			<point x="160" y="-56"/>
			<point x="393" y="58"/>
			<point x="446" y="249" type="curve"/>
			<point x="389" y="252" type="line"/>
			<point x="403" y="79"/>
			<point x="487" y="-7"/>
		</contour>
		<contour>
			<point x="233" y="163" type="curve" smooth="yes"/>
			<point x="205" y="183"/>
			<point x="218" y="234"/>
			<point x="264" y="291" type="curve" smooth="yes"/>
			<point x="314" y="353"/>
			<point x="350" y="378"/>
			<point x="395" y="405" type="curve"/>
			<point x="341" y="403" type="line"/>
			<point x="385" y="353"/>
			<point x="383" y="273"/>
			<point x="342" y="216" type="curve" smooth="yes"/>
			<point x="302" y="161"/>
			<point x="260" y="144"/>
		</contour>
	</outline>
</glyph>
<glyph name="b" format="2">
	<advance width="718"/>
	<unicode hex="0062"/>
	<outline>
		<contour>
			<point x="403" y="-15" type="curve" smooth="yes"/>
			<point x="564" y="-15"/>
			<point x="693" y="108"/>
			<point x="693" y="276" type="curve" smooth="yes"/>
			<point x="693" y="436"/>
			<point x="574" y="566"/>
			<point x="423" y="566" type="curve" smooth="yes"/>
			<point x="284" y="566"/>
			<point x="245" y="457"/>
			<point x="224" y="400" type="curve"/>
			<point x="199" y="328"/>
			<point x="153" y="292"/>
			<point x="153" y="276" type="curve" smooth="yes"/>
			<point x="153" y="115"/>
			<point x="243" y="-15"/>
		</contour>
		<contour>
			<point x="44" y="18" type="curve" smooth="yes"/>
			<point x="83" y="-21"/>
			<point x="119" y="-7"/>
			<point x="224" y="64" type="curve"/>
			<point x="215" y="152" type="line"/>
			<point x="190" y="185"/>
			<point x="267" y="251"/>
			<point x="267" y="335" type="curve" smooth="yes"/>
			<point x="267" y="459" type="line" smooth="yes"/>
			<point x="267" y="716"/>
			<point x="323" y="788"/>
			<point x="288" y="820" type="curve" smooth="yes"/>
			<point x="251" y="854"/>
			<point x="199" y="801"/>
			<point x="134" y="777" type="curve" smooth="yes"/>
			<point x="28" y="738"/>
			<point x="-13" y="745"/>
			<point x="4" y="692" type="curve" smooth="yes"/>
			<point x="21" y="640"/>
			<point x="121" y="716"/>
			<point x="121" y="538" type="curve" smooth="yes"/>
			<point x="121" y="335" type="line" smooth="yes"/>
			<point x="121" y="251"/>
			<point x="110" y="186"/>
			<point x="90" y="155" type="curve" smooth="yes"/>
			<point x="39" y="75"/>
			<point x="4" y="58"/>
		</contour>
		<contour>
			<point x="412" y="80" type="curve" smooth="yes"/>
			<point x="329" y="81"/>
			<point x="274" y="179"/>
			<point x="268" y="284" type="curve" smooth="yes"/>
			<point x="262" y="394"/>
			<point x="285" y="464"/>
			<point x="356" y="461" type="curve" smooth="yes"/>
			<point x="451" y="457"/>
			<point x="498" y="340"/>
			<point x="502" y="241" type="curve" smooth="yes"/>
			<point x="506" y="144"/>
			<point x="476" y="79"/>
		</contour>
	</outline>
</glyph>
<glyph name="d" format="2">
	<advance width="691"/>
	<unicode hex="0064"/>
	<outline>
		<contour>
			<point x="315" y="-15" type="curve" smooth="yes"/>
			<point x="475" y="-15"/>
			<point x="565" y="115"/>
			<point x="565" y="276" type="curve" smooth="yes"/>
			<point x="565" y="292"/>
			<point x="519" y="328"/>
			<point x="494" y="400" type="curve"/>
			<point x="473" y="457"/>
			<point x="434" y="566"/>
			<point x="295" y="566" type="curve" smooth="yes"/>
			<point x="144" y="566"/>
			<point x="25" y="436"/>
			<point x="25" y="276" type="curve" smooth="yes"/>
			<point x="25" y="108"/>
			<point x="154" y="-15"/>
		</contour>
		<contour>
			<point x="364" y="88" type="curve" smooth="yes"/>
			<point x="277" y="89"/>
			<point x="219" y="187"/>
			<point x="212" y="292" type="curve" smooth="yes"/>
			<point x="206" y="402"/>
			<point x="230" y="472"/>
			<point x="305" y="469" type="curve" smooth="yes"/>
			<point x="405" y="466"/>
			<point x="455" y="348"/>
			<point x="459" y="249" type="curve" smooth="yes"/>
			<point x="463" y="152"/>
			<point x="431" y="87"/>
		</contour>
		<contour>
			<point x="674" y="18" type="curve" smooth="yes"/>
			<point x="714" y="58"/>
			<point x="682" y="75"/>
			<point x="640" y="141" type="curve" smooth="yes"/>
			<point x="611" y="186"/>
			<point x="597" y="251"/>
			<point x="597" y="335" type="curve" smooth="yes"/>
			<point x="597" y="459" type="line" smooth="yes"/>
			<point x="597" y="716"/>
			<point x="656" y="788"/>
			<point x="621" y="820" type="curve" smooth="yes"/>
			<point x="584" y="854"/>
			<point x="539" y="801"/>
			<point x="474" y="777" type="curve" smooth="yes"/>
			<point x="368" y="738"/>
			<point x="327" y="745"/>
			<point x="344" y="692" type="curve" smooth="yes"/>
			<point x="361" y="640"/>
			<point x="451" y="716"/>
			<point x="451" y="538" type="curve" smooth="yes"/>
			<point x="451" y="335" type="line" smooth="yes"/>
			<point x="451" y="251"/>
			<point x="528" y="185"/>
			<point x="503" y="152" type="curve"/>
			<point x="494" y="64" type="line"/>
			<point x="599" y="-7"/>
			<point x="635" y="-21"/>
		</contour>
	</outline>
</glyph>
<glyph name="e" format="2">
	<advance width="591"/>
	<unicode hex="0065"/>
	<anchor x="298" y="0" name="bottom"/>
	<anchor x="532" y="10" name="ogonek"/>
	<anchor x="298" y="550" name="top"/>
	<outline>
		<contour>
			<point x="315" y="-15" type="curve" smooth="yes"/>
			<point x="423" y="-15"/>
			<point x="517" y="34"/>
			<point x="570" y="130" type="curve" smooth="yes"/>
			<point x="584" y="154"/>
			<point x="585" y="166"/>
			<point x="570" y="177" type="curve" smooth="yes"/>
			<point x="558" y="186"/>
			<point x="549" y="183"/>
			<point x="528" y="165" type="curve" smooth="yes"/>
			<point x="461" y="109"/>
			<point x="285" y="91"/>
			<point x="213" y="225" type="curve" smooth="yes"/>
			<point x="163" y="318"/>
			<point x="170" y="436"/>
			<point x="233" y="475" type="curve" smooth="yes"/>
			<point x="306" y="520"/>
			<point x="376" y="470"/>
			<point x="376" y="381" type="curve"/>
			<point x="168" y="349" type="line" smooth="yes"/>
			<point x="155" y="347"/>
			<point x="75" y="261"/>
			<point x="182" y="269" type="curve" smooth="yes"/>
			<point x="451" y="288" type="line" smooth="yes"/>
			<point x="514" y="292"/>
			<point x="532" y="297"/>
			<point x="532" y="357" type="curve" smooth="yes"/>
			<point x="532" y="501"/>
			<point x="448" y="566"/>
			<point x="315" y="566" type="curve" smooth="yes"/>
			<point x="154" y="566"/>
			<point x="25" y="436"/>
			<point x="25" y="276" type="curve" smooth="yes"/>
			<point x="25" y="108"/>
			<point x="154" y="-15"/>
		</contour>
	</outline>
</glyph>
<glyph name="f" format="2">
	<advance width="518"/>
	<unicode hex="0066"/>
	<outline>
		<contour>
			<point x="101" y="-7" type="curve" smooth="yes"/>
			<point x="152" y="-7"/>
			<point x="179" y="0"/>
			<point x="221" y="0" type="curve" smooth="yes"/>
			<point x="264" y="0"/>
			<point x="301" y="-7"/>
			<point x="341" y="-7" type="curve" smooth="yes"/>
			<point x="378" y="-7"/>
			<point x="402" y="11"/>
			<point x="402" y="37" type="curve" smooth="yes"/>
			<point x="402" y="84"/>
			<point x="366" y="76"/>
			<point x="325" y="130" type="curve" smooth="yes"/>
			<point x="300" y="163"/>
			<point x="294" y="240"/>
			<point x="294" y="324" type="curve" smooth="yes"/>
			<point x="294" y="358" type="line" smooth="yes"/>
			<point x="294" y="524"/>
			<point x="298" y="697"/>
			<point x="379" y="697" type="curve" smooth="yes"/>
			<point x="437" y="697"/>
			<point x="449" y="596"/>
			<point x="488" y="598" type="curve" smooth="yes"/>
			<point x="528" y="601"/>
			<point x="523" y="645"/>
			<point x="528" y="702" type="curve" smooth="yes"/>
			<point x="532" y="743"/>
			<point x="539" y="768"/>
			<point x="538" y="799" type="curve" smooth="yes"/>
			<point x="537" y="820"/>
			<point x="527" y="829"/>
			<point x="503" y="829" type="curve" smooth="yes"/>
			<point x="379" y="829"/>
			<point x="220" y="761"/>
			<point x="173" y="641" type="curve" smooth="yes"/>
			<point x="134" y="541"/>
			<point x="113" y="519"/>
			<point x="69" y="501" type="curve" smooth="yes"/>
			<point x="45" y="491"/>
			<point x="38" y="463"/>
			<point x="51" y="441" type="curve" smooth="yes"/>
			<point x="79" y="394"/>
			<point x="148" y="462"/>
			<point x="148" y="293" type="curve" smooth="yes"/>
			<point x="148" y="264" type="line" smooth="yes"/>
			<point x="148" y="180"/>
			<point x="142" y="163"/>
			<point x="117" y="130" type="curve" smooth="yes"/>
			<point x="76" y="76"/>
			<point x="40" y="84"/>
			<point x="40" y="37" type="curve" smooth="yes"/>
			<point x="40" y="11"/>
			<point x="64" y="-7"/>
		</contour>
		<contour>
			<point x="383" y="406" type="line"/>
			<point x="468" y="400"/>
			<point x="477" y="433"/>
			<point x="506" y="488" type="curve" smooth="yes"/>
			<point x="518" y="511"/>
			<point x="510" y="527"/>
			<point x="477" y="526" type="curve" smooth="yes"/>
			<point x="165" y="517" type="line"/>
			<point x="156" y="422" type="line"/>
		</contour>
	</outline>
</glyph>
<glyph name="g" format="2">
	<advance width="695"/>
	<unicode hex="0067"/>
	<anchor x="353" y="-250" name="bottom"/>
	<anchor x="303" y="550" name="top"/>
	<outline>
		<contour>
			<point x="107" y="-248" type="curve" smooth="yes"/>
			<point x="192" y="-288"/>
			<point x="438" y="-276"/>
			<point x="578" y="-152" type="curve" smooth="yes"/>
			<point x="712" y="-34"/>
			<point x="697" y="85"/>
			<point x="657" y="106" type="curve" smooth="yes"/>
			<point x="622" y="124"/>
			<point x="541" y="104"/>
			<point x="393" y="58" type="curve" smooth="yes"/>
			<point x="272" y="20"/>
			<point x="216" y="32"/>
			<point x="192" y="57" type="curve" smooth="yes"/>
			<point x="178" y="72"/>
			<point x="182" y="103"/>
			<point x="199" y="119" type="curve" smooth="yes"/>
			<point x="207" y="126"/>
			<point x="218" y="133"/>
			<point x="242" y="126" type="curve"/>
			<point x="106" y="196" type="line"/>
			<point x="136" y="174"/>
			<point x="126" y="163"/>
			<point x="110" y="149" type="curve" smooth="yes"/>
			<point x="76" y="119"/>
			<point x="36" y="70"/>
			<point x="60" y="20" type="curve" smooth="yes"/>
			<point x="135" y="-134"/>
			<point x="310" y="-93"/>
			<point x="463" y="-53" type="curve" smooth="yes"/>
			<point x="520" y="-38"/>
			<point x="540" y="-51"/>
			<point x="540" y="-76" type="curve" smooth="yes"/>
			<point x="540" y="-101"/>
			<point x="490" y="-172"/>
			<point x="353" y="-173" type="curve" smooth="yes"/>
			<point x="255" y="-174"/>
			<point x="177" y="-141"/>
			<point x="143" y="-64" type="curve"/>
			<point x="124" y="-52" type="line"/>
			<point x="45" y="-96"/>
			<point x="13" y="-204"/>
		</contour>
		<contour>
			<point x="340" y="115" type="curve" smooth="yes"/>
			<point x="505" y="115"/>
			<point x="639" y="216"/>
			<point x="639" y="341" type="curve" smooth="yes"/>
			<point x="639" y="470"/>
			<point x="505" y="565"/>
			<point x="340" y="565" type="curve" smooth="yes"/>
			<point x="173" y="565"/>
			<point x="40" y="464"/>
			<point x="40" y="341" type="curve" smooth="yes"/>
			<point x="40" y="210"/>
			<point x="173" y="115"/>
		</contour>
		<contour>
			<point x="417" y="201" type="curve" smooth="yes"/>
			<point x="356" y="180"/>
			<point x="285" y="249"/>
			<point x="253" y="324" type="curve" smooth="yes"/>
			<point x="220" y="402"/>
			<point x="222" y="474"/>
			<point x="267" y="489" type="curve" smooth="yes"/>
			<point x="329" y="510"/>
			<point x="406" y="426"/>
			<point x="435" y="354" type="curve" smooth="yes"/>
			<point x="463" y="285"/>
			<point x="464" y="217"/>
		</contour>
		<contour>
			<point x="340" y="565" type="curve"/>
			<point x="340" y="547" type="line"/>
			<point x="454" y="502"/>
			<point x="642" y="494"/>
			<point x="656" y="593" type="curve" smooth="yes"/>
			<point x="672" y="703"/>
			<point x="540" y="716"/>
			<point x="528" y="702" type="curve" smooth="yes"/>
			<point x="519" y="692"/>
			<point x="535" y="636"/>
			<point x="506" y="607" type="curve" smooth="yes"/>
			<point x="482" y="583"/>
			<point x="427" y="565"/>
		</contour>
	</outline>
</glyph>
<glyph name="j" format="2">
	<advance width="403"/>
	<unicode hex="006A"/>
	<outline>
		<contour>
			<point x="71" y="-258" type="curve" smooth="yes"/>
			<point x="177" y="-208"/>
			<point x="312" y="-98"/>
			<point x="315" y="-48" type="curve" smooth="yes"/>
			<point x="318" y="-5"/>
			<point x="294" y="28"/>
			<point x="294" y="208" type="curve" smooth="yes"/>
			<point x="294" y="364"/>
			<point x="303" y="392"/>
			<point x="313" y="432" type="curve" smooth="yes"/>
			<point x="322" y="470"/>
			<point x="334" y="519"/>
			<point x="306" y="545" type="curve" smooth="yes"/>
			<point x="282" y="567"/>
			<point x="254" y="564"/>
			<point x="184" y="522" type="curve" smooth="yes"/>
			<point x="139" y="495"/>
			<point x="94" y="480"/>
			<point x="70" y="462" type="curve" smooth="yes"/>
			<point x="49" y="446"/>
			<point x="39" y="424"/>
			<point x="52" y="402" type="curve" smooth="yes"/>
			<point x="80" y="355"/>
			<point x="148" y="383"/>
			<point x="148" y="123" type="curve" smooth="yes"/>
			<point x="148" y="-21"/>
			<point x="105" y="-91"/>
			<point x="77" y="-121" type="curve" smooth="yes"/>
			<point x="41" y="-159"/>
			<point x="0" y="-174"/>
			<point x="0" y="-221" type="curve" smooth="yes"/>
			<point x="0" y="-247"/>
			<point x="37" y="-274"/>
		</contour>
		<component base="period" xScale="0.9573" yScale="0.9573" xOffset="42" yOffset="645"/>
	</outline>
</glyph>
<glyph name="k" format="2">
	<advance width="753"/>
	<unicode hex="006B"/>
	<anchor x="458" y="0" name="bottom"/>
	<anchor x="377" y="800" name="top"/>
	<outline>
		<contour>
			<point x="91" y="-5" type="curve" smooth="yes"/>
			<point x="142" y="-5"/>
			<point x="169" y="3"/>
			<point x="211" y="3" type="curve" smooth="yes"/>
			<point x="254" y="3"/>
			<point x="291" y="-5"/>
			<point x="331" y="-5" type="curve" smooth="yes"/>
			<point x="368" y="-5"/>
			<point x="392" y="13"/>
			<point x="392" y="39" type="curve" smooth="yes"/>
			<point x="392" y="86"/>
			<point x="356" y="78"/>
			<point x="315" y="132" type="curve" smooth="yes"/>
			<point x="290" y="165"/>
			<point x="284" y="240"/>
			<point x="284" y="324" type="curve" smooth="yes"/>
			<point x="284" y="448" type="line" smooth="yes"/>
			<point x="284" y="633"/>
			<point x="292" y="661"/>
			<point x="302" y="701" type="curve" smooth="yes"/>
			<point x="311" y="739"/>
			<point x="323" y="788"/>
			<point x="295" y="814" type="curve" smooth="yes"/>
			<point x="271" y="836"/>
			<point x="243" y="833"/>
			<point x="173" y="791" type="curve" smooth="yes"/>
			<point x="128" y="764"/>
			<point x="83" y="749"/>
			<point x="59" y="731" type="curve" smooth="yes"/>
			<point x="38" y="715"/>
			<point x="28" y="693"/>
			<point x="41" y="671" type="curve" smooth="yes"/>
			<point x="69" y="624"/>
			<point x="138" y="652"/>
			<point x="138" y="443" type="curve" smooth="yes"/>
			<point x="138" y="324" type="line" smooth="yes"/>
			<point x="138" y="240"/>
			<point x="132" y="165"/>
			<point x="107" y="132" type="curve" smooth="yes"/>
			<point x="66" y="78"/>
			<point x="30" y="86"/>
			<point x="30" y="39" type="curve" smooth="yes"/>
			<point x="30" y="13"/>
			<point x="54" y="-5"/>
		</contour>
		<contour>
			<point x="669" y="-15" type="curve" smooth="yes"/>
			<point x="718" y="-15"/>
			<point x="763" y="3"/>
			<point x="763" y="32" type="curve" smooth="yes"/>
			<point x="763" y="64"/>
			<point x="740" y="59"/>
			<point x="691" y="97" type="curve" smooth="yes"/>
			<point x="652" y="127"/>
			<point x="597" y="179"/>
			<point x="564" y="231" type="curve" smooth="yes"/>
			<point x="481" y="360" type="line"/>
			<point x="361" y="281" type="line"/>
			<point x="389" y="237"/>
			<point x="459" y="115"/>
			<point x="486" y="80" type="curve" smooth="yes"/>
			<point x="539" y="12"/>
			<point x="580" y="-15"/>
		</contour>
		<contour>
			<point x="315" y="132" type="line"/>
			<point x="263" y="212"/>
			<point x="337" y="246"/>
			<point x="375" y="273" type="curve" smooth="yes"/>
			<point x="465" y="337" type="line" smooth="yes"/>
			<point x="516" y="373"/>
			<point x="605" y="426"/>
			<point x="642" y="449" type="curve" smooth="yes"/>
			<point x="687" y="477"/>
			<point x="715" y="481"/>
			<point x="718" y="514" type="curve" smooth="yes"/>
			<point x="720" y="536"/>
			<point x="704" y="558"/>
			<point x="667" y="558" type="curve" smooth="yes"/>
			<point x="627" y="558"/>
			<point x="603" y="550"/>
			<point x="560" y="550" type="curve" smooth="yes"/>
			<point x="518" y="550"/>
			<point x="470" y="558"/>
			<point x="440" y="558" type="curve" smooth="yes"/>
			<point x="412" y="558"/>
			<point x="389" y="536"/>
			<point x="389" y="514" type="curve" smooth="yes"/>
			<point x="389" y="472"/>
			<point x="442" y="482"/>
			<point x="450" y="448" type="curve" smooth="yes"/>
			<point x="458" y="415"/>
			<point x="387" y="367"/>
			<point x="349" y="346" type="curve" smooth="yes"/>
			<point x="322" y="332"/>
			<point x="308" y="325"/>
			<point x="298" y="329" type="curve" smooth="yes"/>
			<point x="287" y="333"/>
			<point x="284" y="343"/>
			<point x="284" y="371" type="curve"/>
			<point x="246" y="197" type="line"/>
		</contour>
	</outline>
</glyph>
<glyph name="l" format="2">
	<advance width="427"/>
	<unicode hex="006C"/>
	<anchor x="214" y="-10" name="bottom"/>
	<anchor x="214" y="400" name="center"/>
	<anchor x="214" y="800" name="top"/>
	<anchor x="407" y="800" name="topright"/>
	<outline>
		<contour>
			<point x="96" y="-5" type="curve" smooth="yes"/>
			<point x="147" y="-5"/>
			<point x="174" y="3"/>
			<point x="216" y="3" type="curve" smooth="yes"/>
			<point x="259" y="3"/>
			<point x="296" y="-5"/>
			<point x="336" y="-5" type="curve" smooth="yes"/>
			<point x="373" y="-5"/>
			<point x="397" y="13"/>
			<point x="397" y="39" type="curve" smooth="yes"/>
			<point x="397" y="86"/>
			<point x="361" y="78"/>
			<point x="320" y="132" type="curve" smooth="yes"/>
			<point x="295" y="165"/>
			<point x="289" y="240"/>
			<point x="289" y="324" type="curve" smooth="yes"/>
			<point x="289" y="448" type="line" smooth="yes"/>
			<point x="289" y="633"/>
			<point x="297" y="661"/>
			<point x="307" y="701" type="curve" smooth="yes"/>
			<point x="316" y="739"/>
			<point x="328" y="788"/>
			<point x="300" y="814" type="curve" smooth="yes"/>
			<point x="276" y="836"/>
			<point x="248" y="833"/>
			<point x="178" y="791" type="curve" smooth="yes"/>
			<point x="133" y="764"/>
			<point x="88" y="749"/>
			<point x="64" y="731" type="curve" smooth="yes"/>
			<point x="43" y="715"/>
			<point x="33" y="693"/>
			<point x="46" y="671" type="curve" smooth="yes"/>
			<point x="74" y="624"/>
			<point x="143" y="652"/>
			<point x="143" y="443" type="curve" smooth="yes"/>
			<point x="143" y="324" type="line" smooth="yes"/>
			<point x="143" y="240"/>
			<point x="137" y="165"/>
			<point x="112" y="132" type="curve" smooth="yes"/>
			<point x="71" y="78"/>
			<point x="35" y="86"/>
			<point x="35" y="39" type="curve" smooth="yes"/>
			<point x="35" y="13"/>
			<point x="59" y="-5"/>
		</contour>
	</outline>
</glyph>
<glyph name="m" format="2">
	<advance width="1155"/>
	<unicode hex="006D"/>
	<outline>
		<contour>
			<point x="115" y="-8" type="curve" smooth="yes"/>
			<point x="166" y="-8"/>
			<point x="183" y="0"/>
			<point x="225" y="0" type="curve" smooth="yes"/>
			<point x="268" y="0"/>
			<point x="285" y="-8"/>
			<point x="315" y="-8" type="curve" smooth="yes"/>
			<point x="342" y="-8"/>
			<point x="364" y="10"/>
			<point x="366" y="36" type="curve" smooth="yes"/>
			<point x="368" y="61"/>
			<point x="351" y="90"/>
			<point x="329" y="129" type="curve" smooth="yes"/>
			<point x="270" y="234"/>
			<point x="280" y="393"/>
			<point x="386" y="438" type="curve" smooth="yes"/>
			<point x="493" y="483"/>
			<point x="573" y="361"/>
			<point x="525" y="229" type="curve" smooth="yes"/>
			<point x="476" y="93"/>
			<point x="425" y="83"/>
			<point x="427" y="36" type="curve" smooth="yes"/>
			<point x="428" y="11"/>
			<point x="441" y="-8"/>
			<point x="478" y="-8" type="curve" smooth="yes"/>
			<point x="519" y="-8"/>
			<point x="536" y="0"/>
			<point x="578" y="0" type="curve" smooth="yes"/>
			<point x="621" y="0"/>
			<point x="643" y="-8"/>
			<point x="683" y="-8" type="curve" smooth="yes"/>
			<point x="720" y="-8"/>
			<point x="741" y="10"/>
			<point x="744" y="36" type="curve" smooth="yes"/>
			<point x="747" y="65"/>
			<point x="730" y="79"/>
			<point x="711" y="109" type="curve" smooth="yes"/>
			<point x="645" y="213"/>
			<point x="648" y="378"/>
			<point x="754" y="423" type="curve" smooth="yes"/>
			<point x="861" y="468"/>
			<point x="942" y="361"/>
			<point x="897" y="229" type="curve" smooth="yes"/>
			<point x="851" y="93"/>
			<point x="800" y="83"/>
			<point x="802" y="36" type="curve" smooth="yes"/>
			<point x="803" y="11"/>
			<point x="816" y="-8"/>
			<point x="853" y="-8" type="curve" smooth="yes"/>
			<point x="894" y="-8"/>
			<point x="917" y="0"/>
			<point x="959" y="0" type="curve" smooth="yes"/>
			<point x="1002" y="0"/>
			<point x="1018" y="-8"/>
			<point x="1058" y="-8" type="curve" smooth="yes"/>
			<point x="1095" y="-8"/>
			<point x="1116" y="10"/>
			<point x="1119" y="36" type="curve" smooth="yes"/>
			<point x="1122" y="65"/>
			<point x="1115" y="79"/>
			<point x="1085" y="109" type="curve" smooth="yes"/>
			<point x="1042" y="152"/>
			<point x="1035" y="172"/>
			<point x="1055" y="318" type="curve" smooth="yes"/>
			<point x="1077" y="476"/>
			<point x="1012" y="555"/>
			<point x="890" y="555" type="curve" smooth="yes"/>
			<point x="799" y="555"/>
			<point x="727" y="518"/>
			<point x="680" y="461" type="curve"/>
			<point x="666" y="533"/>
			<point x="605" y="593"/>
			<point x="512" y="593" type="curve" smooth="yes"/>
			<point x="422" y="593"/>
			<point x="345" y="525"/>
			<point x="298" y="438" type="curve"/>
			<point x="298" y="550"/>
			<point x="316" y="588"/>
			<point x="301" y="609" type="curve" smooth="yes"/>
			<point x="284" y="633"/>
			<point x="252" y="635"/>
			<point x="223" y="610" type="curve" smooth="yes"/>
			<point x="196" y="586"/>
			<point x="179" y="571"/>
			<point x="151" y="554" type="curve" smooth="yes"/>
			<point x="115" y="532"/>
			<point x="88" y="524"/>
			<point x="64" y="506" type="curve" smooth="yes"/>
			<point x="43" y="490"/>
			<point x="33" y="468"/>
			<point x="46" y="446" type="curve" smooth="yes"/>
			<point x="74" y="399"/>
			<point x="152" y="437"/>
			<point x="152" y="323" type="curve" smooth="yes"/>
			<point x="152" y="239"/>
			<point x="146" y="162"/>
			<point x="121" y="129" type="curve" smooth="yes"/>
			<point x="85" y="81"/>
			<point x="54" y="86"/>
			<point x="54" y="39" type="curve" smooth="yes"/>
			<point x="54" y="13"/>
			<point x="78" y="-8"/>
		</contour>
	</outline>
</glyph>
<glyph name="o" format="2">
	<advance width="646"/>
	<unicode hex="006F"/>
	<anchor x="323" y="0" name="bottom"/>
	<anchor x="323" y="275" name="center"/>
	<anchor x="581" y="10" name="ogonek"/>
	<anchor x="323" y="550" name="top"/>
	<anchor x="626" y="550" name="topright"/>
	<outline>
		<contour>
			<point x="323" y="-15" type="curve" smooth="yes"/>
			<point x="487" y="-15"/>
			<point x="621" y="115"/>
			<point x="621" y="276" type="curve" smooth="yes"/>
			<point x="621" y="443"/>
			<point x="487" y="565"/>
			<point x="323" y="565" type="curve" smooth="yes"/>
			<point x="158" y="565"/>
			<point x="25" y="436"/>
			<point x="25" y="276" type="curve" smooth="yes"/>
			<point x="25" y="108"/>
			<point x="158" y="-15"/>
		</contour>
		<contour>
			<point x="423" y="96" type="curve" smooth="yes"/>
			<point x="344" y="70"/>
			<point x="253" y="158"/>
			<point x="211" y="255" type="curve" smooth="yes"/>
			<point x="167" y="356"/>
			<point x="171" y="449"/>
			<point x="229" y="468" type="curve" smooth="yes"/>
			<point x="310" y="495"/>
			<point x="409" y="386"/>
			<point x="446" y="294" type="curve" smooth="yes"/>
			<point x="482" y="204"/>
			<point x="484" y="116"/>
		</contour>
	</outline>
</glyph>
<glyph name="p" format="2">
	<advance width="706"/>
	<unicode hex="0070"/>
	<outline>
		<contour>
			<point x="79" y="-258" type="curve" smooth="yes"/>
			<point x="116" y="-258"/>
			<point x="184" y="-250"/>
			<point x="224" y="-250" type="curve" smooth="yes"/>
			<point x="259" y="-250"/>
			<point x="333" y="-258"/>
			<point x="364" y="-258" type="curve" smooth="yes"/>
			<point x="401" y="-258"/>
			<point x="415" y="-237"/>
			<point x="415" y="-214" type="curve" smooth="yes"/>
			<point x="415" y="-193"/>
			<point x="394" y="-175"/>
			<point x="366" y="-169" type="curve" smooth="yes"/>
			<point x="303" y="-155"/>
			<point x="255" y="-128"/>
			<point x="255" y="-67" type="curve" smooth="yes"/>
			<point x="255" y="25" type="line"/>
			<point x="292" y="-1"/>
			<point x="338" y="-15"/>
			<point x="391" y="-15" type="curve" smooth="yes"/>
			<point x="552" y="-15"/>
			<point x="681" y="108"/>
			<point x="681" y="276" type="curve" smooth="yes"/>
			<point x="681" y="436"/>
			<point x="562" y="565"/>
			<point x="411" y="565" type="curve" smooth="yes"/>
			<point x="361" y="565"/>
			<point x="326" y="549"/>
			<point x="296" y="531" type="curve" smooth="yes"/>
			<point x="255" y="506"/>
			<point x="214" y="500"/>
			<point x="166" y="528" type="curve" smooth="yes"/>
			<point x="93" y="571"/>
			<point x="64" y="575"/>
			<point x="32" y="543" type="curve" smooth="yes"/>
			<point x="-8" y="503"/>
			<point x="27" y="486"/>
			<point x="78" y="406" type="curve" smooth="yes"/>
			<point x="98" y="375"/>
			<point x="109" y="310"/>
			<point x="109" y="226" type="curve" smooth="yes"/>
			<point x="109" y="62" type="line" smooth="yes"/>
			<point x="109" y="-205"/>
			<point x="18" y="-155"/>
			<point x="18" y="-214" type="curve" smooth="yes"/>
			<point x="18" y="-235"/>
			<point x="39" y="-258"/>
		</contour>
		<contour>
			<point x="400" y="80" type="curve" smooth="yes"/>
			<point x="317" y="81"/>
			<point x="262" y="179"/>
			<point x="256" y="284" type="curve" smooth="yes"/>
			<point x="250" y="394"/>
			<point x="273" y="464"/>
			<point x="344" y="461" type="curve" smooth="yes"/>
			<point x="439" y="457"/>
			<point x="486" y="340"/>
			<point x="490" y="241" type="curve" smooth="yes"/>
			<point x="494" y="144"/>
			<point x="464" y="79"/>
		</contour>
	</outline>
</glyph>
<glyph name="q" format="2">
	<advance width="715"/>
	<unicode hex="0071"/>
	<outline>
		<contour>
			<point x="351" y="-258" type="curve" smooth="yes"/>
			<point x="382" y="-258"/>
			<point x="456" y="-250"/>
			<point x="491" y="-250" type="curve" smooth="yes"/>
			<point x="531" y="-250"/>
			<point x="599" y="-258"/>
			<point x="636" y="-258" type="curve" smooth="yes"/>
			<point x="676" y="-258"/>
			<point x="697" y="-235"/>
			<point x="697" y="-214" type="curve" smooth="yes"/>
			<point x="697" y="-155"/>
			<point x="606" y="-205"/>
			<point x="606" y="62" type="curve" smooth="yes"/>
			<point x="606" y="226" type="line" smooth="yes"/>
			<point x="606" y="310"/>
			<point x="617" y="375"/>
			<point x="637" y="406" type="curve" smooth="yes"/>
			<point x="688" y="486"/>
			<point x="723" y="503"/>
			<point x="683" y="543" type="curve" smooth="yes"/>
			<point x="652" y="575"/>
			<point x="624" y="571"/>
			<point x="550" y="528" type="curve" smooth="yes"/>
			<point x="507" y="503"/>
			<point x="472" y="500"/>
			<point x="424" y="529" type="curve" smooth="yes"/>
			<point x="387" y="551"/>
			<point x="351" y="566"/>
			<point x="295" y="566" type="curve" smooth="yes"/>
			<point x="144" y="566"/>
			<point x="25" y="436"/>
			<point x="25" y="276" type="curve" smooth="yes"/>
			<point x="25" y="108"/>
			<point x="154" y="-15"/>
			<point x="315" y="-15" type="curve" smooth="yes"/>
			<point x="373" y="-15"/>
			<point x="421" y="2"/>
			<point x="460" y="31" type="curve"/>
			<point x="460" y="-67" type="line" smooth="yes"/>
			<point x="460" y="-128"/>
			<point x="412" y="-155"/>
			<point x="349" y="-169" type="curve" smooth="yes"/>
			<point x="321" y="-175"/>
			<point x="300" y="-193"/>
			<point x="300" y="-214" type="curve" smooth="yes"/>
			<point x="300" y="-237"/>
			<point x="314" y="-258"/>
		</contour>
		<contour>
			<point x="369" y="88" type="curve" smooth="yes"/>
			<point x="286" y="89"/>
			<point x="231" y="187"/>
			<point x="225" y="292" type="curve" smooth="yes"/>
			<point x="219" y="402"/>
			<point x="242" y="472"/>
			<point x="313" y="469" type="curve" smooth="yes"/>
			<point x="408" y="466"/>
			<point x="455" y="348"/>
			<point x="459" y="249" type="curve" smooth="yes"/>
			<point x="463" y="152"/>
			<point x="433" y="87"/>
		</contour>
	</outline>
</glyph>
<glyph name="r" format="2">
	<advance width="619"/>
	<unicode hex="0072"/>
	<anchor x="250" y="0" name="bottom"/>
	<anchor x="347" y="550" name="top"/>
	<outline>
		<contour>
			<point x="101" y="-8" type="curve" smooth="yes"/>
			<point x="152" y="-8"/>
			<point x="209" y="0"/>
			<point x="251" y="0" type="curve" smooth="yes"/>
			<point x="294" y="0"/>
			<point x="361" y="-8"/>
			<point x="391" y="-8" type="curve" smooth="yes"/>
			<point x="421" y="-8"/>
			<point x="448" y="10"/>
			<point x="449" y="43" type="curve" smooth="yes"/>
			<point x="450" y="101"/>
			<point x="372" y="81"/>
			<point x="335" y="129" type="curve" smooth="yes"/>
			<point x="309" y="163"/>
			<point x="304" y="198"/>
			<point x="304" y="288" type="curve" smooth="yes"/>
			<point x="304" y="364"/>
			<point x="307" y="411"/>
			<point x="313" y="452" type="curve" smooth="yes"/>
			<point x="322" y="511"/>
			<point x="322" y="563"/>
			<point x="286" y="574" type="curve" smooth="yes"/>
			<point x="250" y="586"/>
			<point x="224" y="561"/>
			<point x="172" y="528" type="curve" smooth="yes"/>
			<point x="127" y="500"/>
			<point x="104" y="500"/>
			<point x="80" y="482" type="curve" smooth="yes"/>
			<point x="59" y="466"/>
			<point x="49" y="444"/>
			<point x="62" y="422" type="curve" smooth="yes"/>
			<point x="90" y="375"/>
			<point x="158" y="383"/>
			<point x="158" y="263" type="curve" smooth="yes"/>
			<point x="158" y="199"/>
			<point x="152" y="162"/>
			<point x="127" y="129" type="curve" smooth="yes"/>
			<point x="91" y="81"/>
			<point x="40" y="86"/>
			<point x="40" y="39" type="curve" smooth="yes"/>
			<point x="40" y="13"/>
			<point x="64" y="-8"/>
		</contour>
		<contour>
			<point x="274" y="332" type="curve"/>
			<point x="304" y="238" type="line"/>
			<point x="304" y="413"/>
			<point x="411" y="418"/>
			<point x="449" y="379" type="curve" smooth="yes"/>
			<point x="485" y="342"/>
			<point x="509" y="270"/>
			<point x="549" y="286" type="curve" smooth="yes"/>
			<point x="586" y="301"/>
			<point x="567" y="357"/>
			<point x="564" y="414" type="curve" smooth="yes"/>
			<point x="561" y="475"/>
			<point x="578" y="549"/>
			<point x="579" y="567" type="curve" smooth="yes"/>
			<point x="581" y="598"/>
			<point x="559" y="600"/>
			<point x="528" y="596" type="curve" smooth="yes"/>
			<point x="454" y="586"/>
			<point x="295" y="451"/>
		</contour>
	</outline>
</glyph>
<glyph name="s" format="2">
	<advance width="593"/>
	<unicode hex="0073"/>
	<anchor x="289" y="0" name="bottom"/>
	<anchor x="303" y="550" name="top"/>
	<outline>
		<contour>
			<point x="291" y="-15" type="curve" smooth="yes"/>
			<point x="442" y="-15"/>
			<point x="558" y="46"/>
			<point x="558" y="155" type="curve" smooth="yes"/>
			<point x="558" y="260"/>
			<point x="476" y="313"/>
			<point x="335" y="355" type="curve" smooth="yes"/>
			<point x="240" y="383"/>
			<point x="206" y="403"/>
			<point x="206" y="434" type="curve" smooth="yes"/>
			<point x="206" y="467"/>
			<point x="233" y="484"/>
			<point x="286" y="484" type="curve" smooth="yes"/>
			<point x="342" y="484"/>
			<point x="401" y="454"/>
			<point x="429" y="409" type="curve" smooth="yes"/>
			<point x="450" y="375"/>
			<point x="475" y="329"/>
			<point x="506" y="342" type="curve" smooth="yes"/>
			<point x="535" y="354"/>
			<point x="520" y="392"/>
			<point x="518" y="436" type="curve" smooth="yes"/>
			<point x="516" y="483"/>
			<point x="519" y="510"/>
			<point x="520" y="524" type="curve" smooth="yes"/>
			<point x="522" y="548"/>
			<point x="504" y="548"/>
			<point x="470" y="547" type="curve" smooth="yes"/>
			<point x="423" y="546"/>
			<point x="385" y="565"/>
			<point x="303" y="565" type="curve" smooth="yes"/>
			<point x="196" y="565"/>
			<point x="50" y="522"/>
			<point x="50" y="391" type="curve" smooth="yes"/>
			<point x="50" y="289"/>
			<point x="122" y="230"/>
			<point x="252" y="190" type="curve" smooth="yes"/>
			<point x="357" y="158"/>
			<point x="403" y="142"/>
			<point x="403" y="115" type="curve" smooth="yes"/>
			<point x="403" y="83"/>
			<point x="365" y="72"/>
			<point x="314" y="72" type="curve" smooth="yes"/>
			<point x="245" y="72"/>
			<point x="174" y="113"/>
			<point x="145" y="151" type="curve" smooth="yes"/>
			<point x="120" y="184"/>
			<point x="99" y="226"/>
			<point x="68" y="213" type="curve" smooth="yes"/>
			<point x="39" y="201"/>
			<point x="54" y="168"/>
			<point x="56" y="124" type="curve" smooth="yes"/>
			<point x="57" y="97"/>
			<point x="56" y="65"/>
			<point x="54" y="46" type="curve" smooth="yes"/>
			<point x="52" y="25"/>
			<point x="62" y="14"/>
			<point x="85" y="8" type="curve" smooth="yes"/>
			<point x="151" y="-9"/>
			<point x="209" y="-15"/>
		</contour>
	</outline>
</glyph>
<glyph name="t" format="2">
	<advance width="545"/>
	<unicode hex="0074"/>
	<anchor x="294" y="-10" name="bottom"/>
	<anchor x="273" y="275" name="center"/>
	<anchor x="240" y="667" name="top"/>
	<anchor x="525" y="550" name="topright"/>
	<outline>
		<contour>
			<point x="294" y="-15" type="curve" smooth="yes"/>
			<point x="392" y="-15"/>
			<point x="477" y="34"/>
			<point x="529" y="130" type="curve" smooth="yes"/>
			<point x="542" y="154"/>
			<point x="544" y="166"/>
			<point x="529" y="177" type="curve" smooth="yes"/>
			<point x="517" y="186"/>
			<point x="508" y="183"/>
			<point x="487" y="165" type="curve" smooth="yes"/>
			<point x="458" y="140"/>
			<point x="430" y="122"/>
			<point x="373" y="122" type="curve" smooth="yes"/>
			<point x="299" y="122"/>
			<point x="246" y="211"/>
			<point x="249" y="354" type="curve" smooth="yes"/>
			<point x="250" y="404"/>
			<point x="258" y="512"/>
			<point x="270" y="571" type="curve" smooth="yes"/>
			<point x="279" y="617"/>
			<point x="284" y="652"/>
			<point x="255" y="667" type="curve" smooth="yes"/>
			<point x="216" y="687"/>
			<point x="188" y="633"/>
			<point x="138" y="591" type="curve" smooth="yes"/>
			<point x="98" y="557"/>
			<point x="58" y="539"/>
			<point x="34" y="521" type="curve" smooth="yes"/>
			<point x="13" y="505"/>
			<point x="3" y="483"/>
			<point x="16" y="461" type="curve" smooth="yes"/>
			<point x="44" y="414"/>
			<point x="116" y="492"/>
			<point x="103" y="276" type="curve" smooth="yes"/>
			<point x="93" y="108"/>
			<point x="173" y="-15"/>
		</contour>
		<contour>
			<point x="388" y="416" type="line"/>
			<point x="473" y="410"/>
			<point x="483" y="443"/>
			<point x="511" y="498" type="curve" smooth="yes"/>
			<point x="523" y="521"/>
			<point x="515" y="537"/>
			<point x="482" y="536" type="curve" smooth="yes"/>
			<point x="170" y="527" type="line"/>
			<point x="161" y="432" type="line"/>
		</contour>
	</outline>
</glyph>
<glyph name="u" format="2">
	<advance width="781"/>
	<unicode hex="0075"/>
	<anchor x="391" y="0" name="bottom"/>
	<anchor x="703" y="10" name="ogonek"/>
	<anchor x="401" y="550" name="top"/>
	<anchor x="761" y="550" name="topright"/>
	<outline>
		<contour>
			<point x="331" y="-15" type="curve" smooth="yes"/>
			<point x="470" y="-15"/>
			<point x="513" y="75"/>
			<point x="541" y="190" type="curve"/>
			<point x="507" y="333" type="line"/>
			<point x="507" y="224"/>
			<point x="470" y="114"/>
			<point x="378" y="114" type="curve" smooth="yes"/>
			<point x="288" y="114"/>
			<point x="258" y="204"/>
			<point x="258" y="287" type="curve" smooth="yes"/>
			<point x="258" y="465"/>
			<point x="299" y="519"/>
			<point x="272" y="559" type="curve" smooth="yes"/>
			<point x="255" y="584"/>
			<point x="212" y="585"/>
			<point x="183" y="560" type="curve" smooth="yes"/>
			<point x="156" y="536"/>
			<point x="129" y="521"/>
			<point x="101" y="504" type="curve" smooth="yes"/>
			<point x="44" y="469"/>
			<point x="16" y="450"/>
			<point x="36" y="416" type="curve" smooth="yes"/>
			<point x="55" y="384"/>
			<point x="117" y="406"/>
			<point x="113" y="295" type="curve" smooth="yes"/>
			<point x="107" y="124"/>
			<point x="141" y="-15"/>
		</contour>
		<contour>
			<point x="539" y="-1" type="curve" smooth="yes"/>
			<point x="563" y="-25"/>
			<point x="600" y="-2"/>
			<point x="650" y="7" type="curve" smooth="yes"/>
			<point x="684" y="13"/>
			<point x="752" y="13"/>
			<point x="746" y="65" type="curve" smooth="yes"/>
			<point x="741" y="110"/>
			<point x="706" y="90"/>
			<point x="684" y="129" type="curve" smooth="yes"/>
			<point x="664" y="165"/>
			<point x="653" y="244"/>
			<point x="653" y="357" type="curve" smooth="yes"/>
			<point x="653" y="476"/>
			<point x="704" y="519"/>
			<point x="677" y="559" type="curve" smooth="yes"/>
			<point x="660" y="584"/>
			<point x="620" y="582"/>
			<point x="588" y="560" type="curve" smooth="yes"/>
			<point x="561" y="541"/>
			<point x="534" y="528"/>
			<point x="499" y="507" type="curve" smooth="yes"/>
			<point x="442" y="472"/>
			<point x="416" y="452"/>
			<point x="431" y="416" type="curve" smooth="yes"/>
			<point x="445" y="382"/>
			<point x="507" y="397"/>
			<point x="507" y="333" type="curve" smooth="yes"/>
			<point x="507" y="275"/>
			<point x="507" y="222"/>
			<point x="510" y="176" type="curve" smooth="yes"/>
			<point x="515" y="111"/>
			<point x="517" y="21"/>
		</contour>
	</outline>
</glyph>
<glyph name="v" format="2">
	<advance width="654"/>
	<unicode hex="0076"/>
	<outline>
		<contour>
			<point x="330" y="-15" type="curve" smooth="yes"/>
			<point x="351" y="-15"/>
			<point x="361" y="-1"/>
			<point x="384" y="41" type="curve" smooth="yes"/>
			<point x="493" y="241" type="line" smooth="yes"/>
			<point x="548" y="341"/>
			<point x="597" y="419"/>
			<point x="628" y="457" type="curve" smooth="yes"/>
			<point x="659" y="495"/>
			<point x="684" y="498"/>
			<point x="684" y="521" type="curve" smooth="yes"/>
			<point x="684" y="543"/>
			<point x="666" y="556"/>
			<point x="639" y="556" type="curve" smooth="yes"/>
			<point x="610" y="556"/>
			<point x="591" y="550"/>
			<point x="560" y="550" type="curve" smooth="yes"/>
			<point x="529" y="550"/>
			<point x="477" y="556"/>
			<point x="454" y="556" type="curve" smooth="yes"/>
			<point x="428" y="556"/>
			<point x="411" y="543"/>
			<point x="411" y="521" type="curve" smooth="yes"/>
			<point x="411" y="498"/>
			<point x="451" y="494"/>
			<point x="465" y="461" type="curve" smooth="yes"/>
			<point x="479" y="429"/>
			<point x="459" y="384"/>
			<point x="396" y="264" type="curve" smooth="yes"/>
			<point x="306" y="93" type="line"/>
			<point x="402" y="148" type="line"/>
			<point x="329" y="274" type="line" smooth="yes"/>
			<point x="273" y="370"/>
			<point x="239" y="430"/>
			<point x="252" y="462" type="curve" smooth="yes"/>
			<point x="265" y="493"/>
			<point x="302" y="498"/>
			<point x="302" y="521" type="curve" smooth="yes"/>
			<point x="302" y="543"/>
			<point x="284" y="556"/>
			<point x="257" y="556" type="curve" smooth="yes"/>
			<point x="228" y="556"/>
			<point x="171" y="550"/>
			<point x="130" y="550" type="curve" smooth="yes"/>
			<point x="90" y="550"/>
			<point x="36" y="556"/>
			<point x="14" y="556" type="curve" smooth="yes"/>
			<point x="-12" y="556"/>
			<point x="-30" y="543"/>
			<point x="-30" y="521" type="curve" smooth="yes"/>
			<point x="-30" y="498"/>
			<point x="-4" y="493"/>
			<point x="28" y="456" type="curve" smooth="yes"/>
			<point x="59" y="421"/>
			<point x="103" y="337"/>
			<point x="156" y="241" type="curve" smooth="yes"/>
			<point x="269" y="36" type="line" smooth="yes"/>
			<point x="292" y="-5"/>
			<point x="304" y="-15"/>
		</contour>
	</outline>
</glyph>
<glyph name="w" format="2">
	<advance width="952"/>
	<unicode hex="0077"/>
	<anchor x="476" y="0" name="bottom"/>
	<anchor x="504" y="550" name="top"/>
	<outline>
		<contour>
			<point x="290" y="-15" type="curve" smooth="yes"/>
			<point x="311" y="-15"/>
			<point x="323" y="-2"/>
			<point x="344" y="41" type="curve" smooth="yes"/>
			<point x="486" y="330" type="line"/>
			<point x="450" y="346" type="line"/>
			<point x="603" y="36" type="line" smooth="yes"/>
			<point x="624" y="-6"/>
			<point x="638" y="-15"/>
			<point x="664" y="-15" type="curve" smooth="yes"/>
			<point x="685" y="-15"/>
			<point x="698" y="-3"/>
			<point x="718" y="41" type="curve" smooth="yes"/>
			<point x="810" y="241" type="line" smooth="yes"/>
			<point x="858" y="345"/>
			<point x="895" y="419"/>
			<point x="926" y="457" type="curve" smooth="yes"/>
			<point x="957" y="495"/>
			<point x="982" y="498"/>
			<point x="982" y="521" type="curve" smooth="yes"/>
			<point x="982" y="543"/>
			<point x="964" y="556"/>
			<point x="937" y="556" type="curve" smooth="yes"/>
			<point x="908" y="556"/>
			<point x="889" y="550"/>
			<point x="858" y="550" type="curve" smooth="yes"/>
			<point x="827" y="550"/>
			<point x="775" y="556"/>
			<point x="752" y="556" type="curve" smooth="yes"/>
			<point x="726" y="556"/>
			<point x="709" y="543"/>
			<point x="709" y="521" type="curve" smooth="yes"/>
			<point x="709" y="498"/>
			<point x="749" y="494"/>
			<point x="763" y="461" type="curve" smooth="yes"/>
			<point x="777" y="429"/>
			<point x="763" y="391"/>
			<point x="713" y="264" type="curve" smooth="yes"/>
			<point x="677" y="173" type="line"/>
			<point x="720" y="175" type="line"/>
			<point x="558" y="501" type="line" smooth="yes"/>
			<point x="534" y="549"/>
			<point x="529" y="565"/>
			<point x="505" y="565" type="curve" smooth="yes"/>
			<point x="484" y="565"/>
			<point x="477" y="550"/>
			<point x="454" y="498" type="curve" smooth="yes"/>
			<point x="312" y="172" type="line"/>
			<point x="351" y="172" type="line"/>
			<point x="311" y="274" type="line" smooth="yes"/>
			<point x="271" y="377"/>
			<point x="239" y="430"/>
			<point x="252" y="462" type="curve" smooth="yes"/>
			<point x="265" y="493"/>
			<point x="302" y="498"/>
			<point x="302" y="521" type="curve" smooth="yes"/>
			<point x="302" y="543"/>
			<point x="284" y="556"/>
			<point x="257" y="556" type="curve" smooth="yes"/>
			<point x="228" y="556"/>
			<point x="171" y="550"/>
			<point x="130" y="550" type="curve" smooth="yes"/>
			<point x="90" y="550"/>
			<point x="36" y="556"/>
			<point x="14" y="556" type="curve" smooth="yes"/>
			<point x="-12" y="556"/>
			<point x="-30" y="543"/>
			<point x="-30" y="521" type="curve" smooth="yes"/>
			<point x="-30" y="498"/>
			<point x="-4" y="493"/>
			<point x="28" y="456" type="curve" smooth="yes"/>
			<point x="59" y="421"/>
			<point x="92" y="341"/>
			<point x="138" y="241" type="curve" smooth="yes"/>
			<point x="233" y="36" type="line" smooth="yes"/>
			<point x="253" y="-7"/>
			<point x="264" y="-15"/>
		</contour>
	</outline>
</glyph>
<glyph name="x" format="2">
	<advance width="686"/>
	<unicode hex="0078"/>
	<outline>
		<contour>
			<point x="55" y="-8" type="curve" smooth="yes"/>
			<point x="84" y="-8"/>
			<point x="137" y="-2"/>
			<point x="169" y="-2" type="curve" smooth="yes"/>
			<point x="200" y="-2"/>
			<point x="242" y="-8"/>
			<point x="280" y="-8" type="curve" smooth="yes"/>
			<point x="307" y="-8"/>
			<point x="325" y="6"/>
			<point x="325" y="25" type="curve" smooth="yes"/>
			<point x="325" y="60"/>
			<point x="271" y="51"/>
			<point x="270" y="87" type="curve" smooth="yes"/>
			<point x="269" y="114"/>
			<point x="322" y="179"/>
			<point x="367" y="224" type="curve" smooth="yes"/>
			<point x="388" y="245" type="line" smooth="yes"/>
			<point x="484" y="341"/>
			<point x="544" y="396"/>
			<point x="582" y="429" type="curve" smooth="yes"/>
			<point x="633" y="474"/>
			<point x="666" y="481"/>
			<point x="669" y="514" type="curve" smooth="yes"/>
			<point x="671" y="536"/>
			<point x="655" y="558"/>
			<point x="618" y="558" type="curve" smooth="yes"/>
			<point x="578" y="558"/>
			<point x="564" y="550"/>
			<point x="521" y="550" type="curve" smooth="yes"/>
			<point x="479" y="550"/>
			<point x="461" y="558"/>
			<point x="431" y="558" type="curve" smooth="yes"/>
			<point x="403" y="558"/>
			<point x="390" y="536"/>
			<point x="390" y="514" type="curve" smooth="yes"/>
			<point x="390" y="482"/>
			<point x="414" y="489"/>
			<point x="422" y="455" type="curve" smooth="yes"/>
			<point x="430" y="422"/>
			<point x="366" y="362"/>
			<point x="322" y="317" type="curve" smooth="yes"/>
			<point x="298" y="292" type="line" smooth="yes"/>
			<point x="209" y="200"/>
			<point x="119" y="133"/>
			<point x="78" y="104" type="curve" smooth="yes"/>
			<point x="42" y="78"/>
			<point x="10" y="60"/>
			<point x="10" y="25" type="curve" smooth="yes"/>
			<point x="10" y="6"/>
			<point x="27" y="-8"/>
		</contour>
		<contour>
			<point x="592" y="-15" type="curve" smooth="yes"/>
			<point x="641" y="-15"/>
			<point x="676" y="3"/>
			<point x="676" y="32" type="curve" smooth="yes"/>
			<point x="676" y="64"/>
			<point x="658" y="59"/>
			<point x="609" y="97" type="curve" smooth="yes"/>
			<point x="570" y="127"/>
			<point x="515" y="180"/>
			<point x="475" y="228" type="curve" smooth="yes"/>
			<point x="414" y="300" type="line" smooth="yes"/>
			<point x="373" y="348"/>
			<point x="327" y="428"/>
			<point x="313" y="461" type="curve" smooth="yes"/>
			<point x="289" y="516"/>
			<point x="283" y="562"/>
			<point x="227" y="558" type="curve" smooth="yes"/>
			<point x="185" y="555"/>
			<point x="146" y="555"/>
			<point x="95" y="558" type="curve" smooth="yes"/>
			<point x="58" y="560"/>
			<point x="34" y="537"/>
			<point x="34" y="511" type="curve" smooth="yes"/>
			<point x="34" y="472"/>
			<point x="53" y="481"/>
			<point x="89" y="445" type="curve" smooth="yes"/>
			<point x="114" y="420"/>
			<point x="185" y="341"/>
			<point x="223" y="292" type="curve" smooth="yes"/>
			<point x="386" y="80" type="line" smooth="yes"/>
			<point x="438" y="12"/>
			<point x="503" y="-15"/>
		</contour>
	</outline>
</glyph>
<glyph name="y" format="2">
	<advance width="654"/>
	<unicode hex="0079"/>
	<anchor x="327" y="0" name="bottom"/>
	<anchor x="357" y="550" name="top"/>
	<outline>
		<contour>
			<point x="330" y="-9" type="curve" smooth="yes"/>
			<point x="351" y="-9"/>
			<point x="361" y="5"/>
			<point x="384" y="47" type="curve" smooth="yes"/>
			<point x="494" y="247" type="line" smooth="yes"/>
			<point x="549" y="347"/>
			<point x="597" y="419"/>
			<point x="628" y="457" type="curve" smooth="yes"/>
			<point x="659" y="495"/>
			<point x="684" y="498"/>
			<point x="684" y="521" type="curve" smooth="yes"/>
			<point x="684" y="543"/>
			<point x="666" y="556"/>
			<point x="639" y="556" type="curve" smooth="yes"/>
			<point x="610" y="556"/>
			<point x="591" y="550"/>
			<point x="560" y="550" type="curve" smooth="yes"/>
			<point x="529" y="550"/>
			<point x="477" y="556"/>
			<point x="454" y="556" type="curve" smooth="yes"/>
			<point x="428" y="556"/>
			<point x="411" y="543"/>
			<point x="411" y="521" type="curve" smooth="yes"/>
			<point x="411" y="498"/>
			<point x="451" y="494"/>
			<point x="465" y="461" type="curve" smooth="yes"/>
			<point x="479" y="429"/>
			<point x="461" y="390"/>
			<point x="397" y="270" type="curve" smooth="yes"/>
			<point x="306" y="99" type="line"/>
			<point x="402" y="154" type="line"/>
			<point x="328" y="280" type="line" smooth="yes"/>
			<point x="272" y="376"/>
			<point x="239" y="430"/>
			<point x="252" y="462" type="curve" smooth="yes"/>
			<point x="265" y="493"/>
			<point x="302" y="498"/>
			<point x="302" y="521" type="curve" smooth="yes"/>
			<point x="302" y="543"/>
			<point x="284" y="556"/>
			<point x="257" y="556" type="curve" smooth="yes"/>
			<point x="228" y="556"/>
			<point x="171" y="550"/>
			<point x="130" y="550" type="curve" smooth="yes"/>
			<point x="90" y="550"/>
			<point x="36" y="556"/>
			<point x="14" y="556" type="curve" smooth="yes"/>
			<point x="-12" y="556"/>
			<point x="-30" y="543"/>
			<point x="-30" y="521" type="curve" smooth="yes"/>
			<point x="-30" y="498"/>
			<point x="-4" y="493"/>
			<point x="28" y="456" type="curve" smooth="yes"/>
			<point x="59" y="421"/>
			<point x="101" y="343"/>
			<point x="155" y="247" type="curve" smooth="yes"/>
			<point x="269" y="42" type="line" smooth="yes"/>
			<point x="292" y="1"/>
			<point x="304" y="-9"/>
		</contour>
		<contour>
			<point x="251" y="-259" type="curve" smooth="yes"/>
			<point x="272" y="-259"/>
			<point x="260" y="-225"/>
			<point x="381" y="31" type="curve"/>
			<point x="422" y="119" type="line"/>
			<point x="306" y="100" type="line"/>
			<point x="235" y="-3" type="line" smooth="yes"/>
			<point x="201" y="-53"/>
			<point x="143" y="-71"/>
			<point x="80" y="-78" type="curve" smooth="yes"/>
			<point x="51" y="-81"/>
			<point x="25" y="-79"/>
			<point x="16" y="-98" type="curve" smooth="yes"/>
			<point x="6" y="-119"/>
			<point x="11" y="-142"/>
			<point x="44" y="-159" type="curve" smooth="yes"/>
			<point x="72" y="-173"/>
			<point x="112" y="-187"/>
			<point x="144" y="-202" type="curve" smooth="yes"/>
			<point x="180" y="-219"/>
			<point x="214" y="-259"/>
		</contour>
	</outline>
</glyph>
<glyph name="z" format="2">
	<advance width="630"/>
	<unicode hex="007A"/>
	<anchor x="315" y="0" name="bottom"/>
	<anchor x="335" y="550" name="top"/>
	<outline>
		<contour>
			<point x="549" y="-17" type="curve" smooth="yes"/>
			<point x="580" y="-21"/>
			<point x="602" y="-19"/>
			<point x="600" y="12" type="curve" smooth="yes"/>
			<point x="599" y="30"/>
			<point x="587" y="84"/>
			<point x="583" y="145" type="curve" smooth="yes"/>
			<point x="579" y="202"/>
			<point x="589" y="264"/>
			<point x="560" y="273" type="curve" smooth="yes"/>
			<point x="528" y="283"/>
			<point x="522" y="254"/>
			<point x="470" y="172" type="curve" smooth="yes"/>
			<point x="429" y="108"/>
			<point x="397" y="66"/>
			<point x="325" y="66" type="curve" smooth="yes"/>
			<point x="292" y="66"/>
			<point x="284" y="88"/>
			<point x="288" y="107" type="curve" smooth="yes"/>
			<point x="293" y="131"/>
			<point x="336" y="187"/>
			<point x="401" y="264" type="curve" smooth="yes"/>
			<point x="476" y="353"/>
			<point x="529" y="415"/>
			<point x="571" y="462" type="curve" smooth="yes"/>
			<point x="588" y="481"/>
			<point x="598" y="497"/>
			<point x="593" y="521" type="curve" smooth="yes"/>
			<point x="588" y="543"/>
			<point x="577" y="558"/>
			<point x="540" y="558" type="curve" smooth="yes"/>
			<point x="500" y="558"/>
			<point x="446" y="550"/>
			<point x="342" y="550" type="curve" smooth="yes"/>
			<point x="238" y="550"/>
			<point x="175" y="566"/>
			<point x="101" y="576" type="curve" smooth="yes"/>
			<point x="70" y="580"/>
			<point x="48" y="578"/>
			<point x="50" y="547" type="curve" smooth="yes"/>
			<point x="51" y="529"/>
			<point x="78" y="475"/>
			<point x="75" y="414" type="curve" smooth="yes"/>
			<point x="72" y="357"/>
			<point x="53" y="301"/>
			<point x="90" y="286" type="curve" smooth="yes"/>
			<point x="130" y="270"/>
			<point x="160" y="346"/>
			<point x="190" y="387" type="curve" smooth="yes"/>
			<point x="226" y="437"/>
			<point x="246" y="484"/>
			<point x="306" y="484" type="curve" smooth="yes"/>
			<point x="337" y="484"/>
			<point x="356" y="475"/>
			<point x="361" y="457" type="curve" smooth="yes"/>
			<point x="367" y="434"/>
			<point x="337" y="398"/>
			<point x="224" y="270" type="curve" smooth="yes"/>
			<point x="146" y="182"/>
			<point x="101" y="131"/>
			<point x="74" y="104" type="curve" smooth="yes"/>
			<point x="43" y="73"/>
			<point x="20" y="60"/>
			<point x="20" y="25" type="curve" smooth="yes"/>
			<point x="20" y="6"/>
			<point x="37" y="-8"/>
			<point x="65" y="-8" type="curve" smooth="yes"/>
			<point x="70" y="-8"/>
			<point x="194" y="0"/>
			<point x="308" y="0" type="curve" smooth="yes"/>
			<point x="412" y="0"/>
			<point x="475" y="-7"/>
		</contour>
	</outline>
</glyph>
<glyph name="braceleft" format="2">
	<advance width="390"/>
	<unicode hex="007B"/>
	<anchor x="268" y="500" name="_top"/>
	<anchor x="268" y="765" name="top"/>
	<outline>
		<contour>
			<point x="10" y="304" type="curve"/>
			<point x="133" y="304" type="line"/>
			<point x="236" y="338"/>
			<point x="261" y="423"/>
			<point x="256" y="511" type="curve" smooth="yes"/>
			<point x="246" y="685"/>
			<point x="276" y="740"/>
			<point x="338" y="760" type="curve" smooth="yes"/>
			<point x="371" y="769"/>
			<point x="382" y="782"/>
			<point x="380" y="806" type="curve" smooth="yes"/>
			<point x="378" y="828"/>
			<point x="358" y="834"/>
			<point x="302" y="832" type="curve" smooth="yes"/>
			<point x="171" y="826"/>
			<point x="85" y="716"/>
			<point x="95" y="476" type="curve" smooth="yes"/>
			<point x="102" y="320"/>
			<point x="10" y="370"/>
		</contour>
		<contour>
			<point x="302" y="-224" type="curve" smooth="yes"/>
			<point x="358" y="-226"/>
			<point x="378" y="-220"/>
			<point x="380" y="-198" type="curve" smooth="yes"/>
			<point x="382" y="-174"/>
			<point x="371" y="-161"/>
			<point x="338" y="-152" type="curve" smooth="yes"/>
			<point x="276" y="-132"/>
			<point x="246" y="-77"/>
			<point x="256" y="97" type="curve" smooth="yes"/>
			<point x="261" y="185"/>
			<point x="236" y="270"/>
			<point x="133" y="304" type="curve"/>
			<point x="10" y="304" type="line"/>
			<point x="10" y="238"/>
			<point x="102" y="288"/>
			<point x="95" y="132" type="curve" smooth="yes"/>
			<point x="85" y="-108"/>
			<point x="171" y="-218"/>
		</contour>
	</outline>
</glyph>
<glyph name="bar" format="2">
	<advance width="334"/>
	<unicode hex="007C"/>
	<outline>
		<contour>
			<point x="169" y="-265" type="curve" smooth="yes"/>
			<point x="203" y="-265"/>
			<point x="232" y="-245"/>
			<point x="232" y="-160" type="curve" smooth="yes"/>
			<point x="232" y="-45"/>
			<point x="216" y="51"/>
			<point x="216" y="248" type="curve" smooth="yes"/>
			<point x="216" y="426"/>
			<point x="234" y="530"/>
			<point x="234" y="653" type="curve" smooth="yes"/>
			<point x="234" y="741"/>
			<point x="199" y="760"/>
			<point x="164" y="760" type="curve" smooth="yes"/>
			<point x="131" y="760"/>
			<point x="100" y="744"/>
			<point x="100" y="658" type="curve" smooth="yes"/>
			<point x="100" y="536"/>
			<point x="122" y="433"/>
			<point x="115" y="253" type="curve" smooth="yes"/>
			<point x="107" y="56"/>
			<point x="100" y="-45"/>
			<point x="100" y="-155" type="curve" smooth="yes"/>
			<point x="100" y="-240"/>
			<point x="135" y="-265"/>
		</contour>
	</outline>
</glyph>
<glyph name="braceright" format="2">
	<advance width="390"/>
	<unicode hex="007D"/>
	<anchor x="122" y="500" name="_top"/>
	<anchor x="122" y="765" name="top"/>
	<outline>
		<contour>
			<point x="257" y="304" type="curve"/>
			<point x="380" y="304" type="line"/>
			<point x="380" y="370"/>
			<point x="288" y="320"/>
			<point x="295" y="476" type="curve" smooth="yes"/>
			<point x="305" y="716"/>
			<point x="219" y="826"/>
			<point x="88" y="832" type="curve" smooth="yes"/>
			<point x="32" y="834"/>
			<point x="12" y="828"/>
			<point x="10" y="806" type="curve" smooth="yes"/>
			<point x="8" y="782"/>
			<point x="19" y="769"/>
			<point x="52" y="760" type="curve" smooth="yes"/>
			<point x="114" y="740"/>
			<point x="144" y="685"/>
			<point x="134" y="511" type="curve" smooth="yes"/>
			<point x="129" y="423"/>
			<point x="154" y="338"/>
		</contour>
		<contour>
			<point x="88" y="-224" type="curve" smooth="yes"/>
			<point x="219" y="-218"/>
			<point x="305" y="-108"/>
			<point x="295" y="132" type="curve" smooth="yes"/>
			<point x="288" y="288"/>
			<point x="380" y="238"/>
			<point x="380" y="304" type="curve"/>
			<point x="257" y="304" type="line"/>
			<point x="154" y="270"/>
			<point x="129" y="185"/>
			<point x="134" y="97" type="curve" smooth="yes"/>
			<point x="144" y="-77"/>
			<point x="114" y="-132"/>
			<point x="52" y="-152" type="curve" smooth="yes"/>
			<point x="19" y="-161"/>
			<point x="8" y="-174"/>
			<point x="10" y="-198" type="curve" smooth="yes"/>
			<point x="12" y="-220"/>
			<point x="32" y="-226"/>
		</contour>
	</outline>
</glyph>
<glyph name="cent" format="2">
	<advance width="636"/>
	<unicode hex="00A2"/>
	<anchor x="324" y="101" name="bottom"/>
	<anchor x="340" y="651" name="top"/>
	<outline>
		<contour>
			<point x="340" y="86" type="curve" smooth="yes"/>
			<point x="448" y="86"/>
			<point x="542" y="135"/>
			<point x="595" y="231" type="curve" smooth="yes"/>
			<point x="609" y="255"/>
			<point x="610" y="267"/>
			<point x="595" y="278" type="curve" smooth="yes"/>
			<point x="583" y="287"/>
			<point x="574" y="284"/>
			<point x="553" y="266" type="curve" smooth="yes"/>
			<point x="486" y="210"/>
			<point x="310" y="192"/>
			<point x="238" y="326" type="curve" smooth="yes"/>
			<point x="188" y="419"/>
			<point x="193" y="535"/>
			<point x="250" y="572" type="curve" smooth="yes"/>
			<point x="303" y="606"/>
			<point x="403" y="612"/>
			<point x="459" y="494" type="curve" smooth="yes"/>
			<point x="479" y="451"/>
			<point x="496" y="418"/>
			<point x="523" y="429" type="curve" smooth="yes"/>
			<point x="547" y="439"/>
			<point x="581" y="593"/>
			<point x="579" y="618" type="curve" smooth="yes"/>
			<point x="576" y="650"/>
			<point x="559" y="651"/>
			<point x="508" y="644" type="curve" smooth="yes"/>
			<point x="454" y="637"/>
			<point x="438" y="667"/>
			<point x="340" y="667" type="curve" smooth="yes"/>
			<point x="179" y="667"/>
			<point x="50" y="537"/>
			<point x="50" y="377" type="curve" smooth="yes"/>
			<point x="50" y="209"/>
			<point x="179" y="86"/>
		</contour>
		<contour>
			<point x="337" y="-59" type="curve" smooth="yes"/>
			<point x="376" y="-60"/>
			<point x="397" y="-38"/>
			<point x="397" y="16" type="curve" smooth="yes"/>
			<point x="396" y="83"/>
			<point x="397" y="108"/>
			<point x="398" y="162" type="curve"/>
			<point x="291" y="165" type="line"/>
			<point x="290" y="107"/>
			<point x="289" y="83"/>
			<point x="290" y="14" type="curve" smooth="yes"/>
			<point x="291" y="-38"/>
			<point x="300" y="-57"/>
		</contour>
		<contour>
			<point x="291" y="614" type="curve"/>
			<point x="411" y="615" type="line"/>
			<point x="414" y="655"/>
			<point x="417" y="677"/>
			<point x="421" y="735" type="curve" smooth="yes"/>
			<point x="425" y="787"/>
			<point x="394" y="810"/>
			<point x="356" y="811" type="curve" smooth="yes"/>
			<point x="319" y="812"/>
			<point x="279" y="785"/>
			<point x="284" y="733" type="curve" smooth="yes"/>
			<point x="288" y="675"/>
			<point x="290" y="653"/>
		</contour>
	</outline>
</glyph>
<glyph name="sterling" format="2">
	<advance width="801"/>
	<unicode hex="00A3"/>
	<anchor x="668" y="0" name="bottom"/>
	<anchor x="668" y="373" name="center"/>
	<anchor x="536" y="745" name="top"/>
	<anchor x="1020" y="745" name="topright"/>
	<outline>
		<contour>
			<point x="653" y="-6" type="curve" smooth="yes"/>
			<point x="706" y="-6"/>
			<point x="736" y="25"/>
			<point x="746" y="122" type="curve" smooth="yes"/>
			<point x="756" y="220"/>
			<point x="755" y="310"/>
			<point x="720" y="317" type="curve" smooth="yes"/>
			<point x="687" y="324"/>
			<point x="666" y="291"/>
			<point x="635" y="238" type="curve" smooth="yes"/>
			<point x="576" y="138"/>
			<point x="527" y="93"/>
			<point x="447" y="90" type="curve" smooth="yes"/>
			<point x="338" y="86"/>
			<point x="248" y="79"/>
			<point x="312" y="139" type="curve" smooth="yes"/>
			<point x="415" y="236"/>
			<point x="425" y="317"/>
			<point x="389" y="381" type="curve" smooth="yes"/>
			<point x="326" y="494"/>
			<point x="268" y="506"/>
			<point x="268" y="579" type="curve" smooth="yes"/>
			<point x="268" y="654"/>
			<point x="326" y="689"/>
			<point x="398" y="689" type="curve" smooth="yes"/>
			<point x="501" y="689"/>
			<point x="566" y="652"/>
			<point x="585" y="545" type="curve" smooth="yes"/>
			<point x="595" y="490"/>
			<point x="596" y="456"/>
			<point x="640" y="456" type="curve" smooth="yes"/>
			<point x="667" y="456"/>
			<point x="682" y="485"/>
			<point x="699" y="534" type="curve" smooth="yes"/>
			<point x="716" y="584"/>
			<point x="731" y="618"/>
			<point x="731" y="641" type="curve" smooth="yes"/>
			<point x="731" y="660"/>
			<point x="721" y="672"/>
			<point x="695" y="680" type="curve" smooth="yes"/>
			<point x="575" y="717"/>
			<point x="534" y="775"/>
			<point x="398" y="775" type="curve" smooth="yes"/>
			<point x="242" y="775"/>
			<point x="114" y="705"/>
			<point x="114" y="578" type="curve" smooth="yes"/>
			<point x="114" y="468"/>
			<point x="162" y="442"/>
			<point x="226" y="337" type="curve" smooth="yes"/>
			<point x="287" y="237"/>
			<point x="241" y="179"/>
			<point x="151" y="117" type="curve" smooth="yes"/>
			<point x="119" y="95"/>
			<point x="96" y="81"/>
			<point x="96" y="39" type="curve" smooth="yes"/>
			<point x="96" y="13"/>
			<point x="120" y="-5"/>
			<point x="157" y="-5" type="curve" smooth="yes"/>
			<point x="208" y="-5"/>
			<point x="235" y="3"/>
			<point x="277" y="3" type="curve" smooth="yes"/>
			<point x="398" y="3"/>
			<point x="600" y="-6"/>
		</contour>
		<contour>
			<point x="124" y="304" type="curve" smooth="yes"/>
			<point x="201" y="304"/>
			<point x="229" y="310"/>
			<point x="295" y="310" type="curve" smooth="yes"/>
			<point x="364" y="310"/>
			<point x="431" y="304"/>
			<point x="509" y="304" type="curve" smooth="yes"/>
			<point x="550" y="304"/>
			<point x="574" y="324"/>
			<point x="575" y="358" type="curve" smooth="yes"/>
			<point x="576" y="391"/>
			<point x="551" y="411"/>
			<point x="507" y="411" type="curve" smooth="yes"/>
			<point x="431" y="411"/>
			<point x="364" y="408"/>
			<point x="295" y="408" type="curve" smooth="yes"/>
			<point x="225" y="408"/>
			<point x="199" y="411"/>
			<point x="122" y="411" type="curve" smooth="yes"/>
			<point x="77" y="411"/>
			<point x="50" y="391"/>
			<point x="50" y="358" type="curve" smooth="yes"/>
			<point x="50" y="324"/>
			<point x="77" y="304"/>
		</contour>
	</outline>
</glyph>
<glyph name="yen" format="2">
	<advance width="733"/>
	<unicode hex="00A5"/>
	<anchor x="359" y="0" name="bottom"/>
	<anchor x="389" y="745" name="top"/>
	<anchor x="-5" y="745" name="topleft"/>
	<outline>
		<contour>
			<point x="253" y="-5" type="curve" smooth="yes"/>
			<point x="286" y="-5"/>
			<point x="339" y="3"/>
			<point x="373" y="3" type="curve" smooth="yes"/>
			<point x="408" y="3"/>
			<point x="464" y="-5"/>
			<point x="493" y="-5" type="curve" smooth="yes"/>
			<point x="530" y="-5"/>
			<point x="554" y="13"/>
			<point x="554" y="39" type="curve" smooth="yes"/>
			<point x="554" y="86"/>
			<point x="518" y="78"/>
			<point x="477" y="132" type="curve" smooth="yes"/>
			<point x="452" y="165"/>
			<point x="446" y="190"/>
			<point x="446" y="303" type="curve"/>
			<point x="657" y="503"/>
			<point x="728" y="613"/>
			<point x="733" y="678" type="curve" smooth="yes"/>
			<point x="737" y="732"/>
			<point x="698" y="761"/>
			<point x="657" y="762" type="curve" smooth="yes"/>
			<point x="621" y="763"/>
			<point x="591" y="751"/>
			<point x="567" y="708" type="curve" smooth="yes"/>
			<point x="533" y="647"/>
			<point x="550" y="576"/>
			<point x="416" y="399" type="curve" smooth="yes"/>
			<point x="331" y="287" type="line"/>
			<point x="426" y="325" type="line"/>
			<point x="303" y="650"/>
			<point x="200" y="761"/>
			<point x="122" y="761" type="curve" smooth="yes"/>
			<point x="75" y="761"/>
			<point x="41" y="736"/>
			<point x="23" y="716" type="curve" smooth="yes"/>
			<point x="4" y="695"/>
			<point x="-8" y="668"/>
			<point x="6" y="640" type="curve" smooth="yes"/>
			<point x="20" y="612"/>
			<point x="49" y="611"/>
			<point x="87" y="588" type="curve" smooth="yes"/>
			<point x="125" y="565"/>
			<point x="187" y="505"/>
			<point x="217" y="451" type="curve" smooth="yes"/>
			<point x="270" y="357"/>
			<point x="299" y="268"/>
			<point x="299" y="214" type="curve" smooth="yes"/>
			<point x="299" y="165"/>
			<point x="294" y="165"/>
			<point x="269" y="132" type="curve" smooth="yes"/>
			<point x="228" y="78"/>
			<point x="192" y="86"/>
			<point x="192" y="39" type="curve" smooth="yes"/>
			<point x="192" y="13"/>
			<point x="216" y="-5"/>
		</contour>
		<contour>
			<point x="123" y="351" type="curve" smooth="yes"/>
			<point x="183" y="351"/>
			<point x="244" y="355"/>
			<point x="309" y="356" type="curve"/>
			<point x="287" y="446" type="line"/>
			<point x="229" y="447"/>
			<point x="175" y="458"/>
			<point x="121" y="458" type="curve" smooth="yes"/>
			<point x="76" y="458"/>
			<point x="49" y="438"/>
			<point x="49" y="405" type="curve" smooth="yes"/>
			<point x="49" y="371"/>
			<point x="76" y="351"/>
		</contour>
		<contour>
			<point x="123" y="179" type="curve" smooth="yes"/>
			<point x="200" y="179"/>
			<point x="278" y="195"/>
			<point x="364" y="195" type="curve" smooth="yes"/>
			<point x="473" y="195"/>
			<point x="541" y="179"/>
			<point x="619" y="179" type="curve" smooth="yes"/>
			<point x="660" y="179"/>
			<point x="684" y="199"/>
			<point x="685" y="233" type="curve" smooth="yes"/>
			<point x="686" y="266"/>
			<point x="661" y="286"/>
			<point x="617" y="286" type="curve" smooth="yes"/>
			<point x="541" y="286"/>
			<point x="473" y="273"/>
			<point x="364" y="273" type="curve" smooth="yes"/>
			<point x="274" y="273"/>
			<point x="198" y="286"/>
			<point x="121" y="286" type="curve" smooth="yes"/>
			<point x="76" y="286"/>
			<point x="49" y="266"/>
			<point x="49" y="233" type="curve" smooth="yes"/>
			<point x="49" y="199"/>
			<point x="76" y="179"/>
		</contour>
		<contour>
			<point x="619" y="351" type="curve" smooth="yes"/>
			<point x="660" y="351"/>
			<point x="684" y="371"/>
			<point x="685" y="405" type="curve" smooth="yes"/>
			<point x="686" y="438"/>
			<point x="661" y="448"/>
			<point x="617" y="448" type="curve" smooth="yes"/>
			<point x="586" y="448"/>
			<point x="536" y="437"/>
			<point x="483" y="427" type="curve"/>
			<point x="463" y="355" type="line"/>
			<point x="521" y="354"/>
			<point x="568" y="351"/>
		</contour>
	</outline>
</glyph>
<glyph name="brokenbar" format="2">
	<advance width="334"/>
	<unicode hex="00A6"/>
	<outline>
		<contour>
			<point x="169" y="296" type="curve" smooth="yes"/>
			<point x="214" y="296"/>
			<point x="234" y="330"/>
			<point x="234" y="400" type="curve" smooth="yes"/>
			<point x="234" y="465"/>
			<point x="223" y="465"/>
			<point x="223" y="528" type="curve" smooth="yes"/>
			<point x="223" y="591"/>
			<point x="234" y="591"/>
			<point x="234" y="656" type="curve" smooth="yes"/>
			<point x="234" y="726"/>
			<point x="214" y="760"/>
			<point x="169" y="760" type="curve" smooth="yes"/>
			<point x="124" y="760"/>
			<point x="100" y="726"/>
			<point x="100" y="656" type="curve" smooth="yes"/>
			<point x="100" y="591"/>
			<point x="111" y="591"/>
			<point x="111" y="528" type="curve" smooth="yes"/>
			<point x="111" y="465"/>
			<point x="100" y="465"/>
			<point x="100" y="400" type="curve" smooth="yes"/>
			<point x="100" y="330"/>
			<point x="124" y="296"/>
		</contour>
		<contour>
			<point x="169" y="-265" type="curve" smooth="yes"/>
			<point x="214" y="-265"/>
			<point x="234" y="-231"/>
			<point x="234" y="-161" type="curve" smooth="yes"/>
			<point x="234" y="-96"/>
			<point x="223" y="-96"/>
			<point x="223" y="-33" type="curve" smooth="yes"/>
			<point x="223" y="30"/>
			<point x="234" y="30"/>
			<point x="234" y="95" type="curve" smooth="yes"/>
			<point x="234" y="165"/>
			<point x="214" y="199"/>
			<point x="169" y="199" type="curve" smooth="yes"/>
			<point x="124" y="199"/>
			<point x="100" y="165"/>
			<point x="100" y="95" type="curve" smooth="yes"/>
			<point x="100" y="30"/>
			<point x="111" y="30"/>
			<point x="111" y="-33" type="curve" smooth="yes"/>
			<point x="111" y="-96"/>
			<point x="100" y="-96"/>
			<point x="100" y="-161" type="curve" smooth="yes"/>
			<point x="100" y="-231"/>
			<point x="124" y="-265"/>
		</contour>
	</outline>
</glyph>
<glyph name="copyright" format="2">
	<advance width="855"/>
	<unicode hex="00A9"/>
	<anchor x="426" y="-45" name="bottom"/>
	<anchor x="426" y="357" name="center"/>
	<anchor x="805" y="-29" name="ogonek"/>
	<anchor x="426" y="761" name="top"/>
	<anchor x="870" y="761" name="topright"/>
	<outline>
		<contour>
			<point x="426" y="-9" type="curve" smooth="yes"/>
			<point x="635" y="-9"/>
			<point x="805" y="155"/>
			<point x="805" y="360" type="curve" smooth="yes"/>
			<point x="805" y="571"/>
			<point x="635" y="726"/>
			<point x="426" y="726" type="curve" smooth="yes"/>
			<point x="218" y="726"/>
			<point x="50" y="562"/>
			<point x="50" y="360" type="curve" smooth="yes"/>
			<point x="50" y="145"/>
			<point x="218" y="-9"/>
		</contour>
		<contour>
			<point x="426" y="83" type="curve" smooth="yes"/>
			<point x="269" y="83"/>
			<point x="143" y="198"/>
			<point x="143" y="360" type="curve" smooth="yes"/>
			<point x="143" y="511"/>
			<point x="269" y="636"/>
			<point x="426" y="636" type="curve" smooth="yes"/>
			<point x="584" y="636"/>
			<point x="712" y="518"/>
			<point x="712" y="360" type="curve" smooth="yes"/>
			<point x="712" y="205"/>
			<point x="584" y="83"/>
		</contour>
		<component base="c" xScale="-0.6156" yScale="0.6156" xOffset="623" yOffset="188"/>
	</outline>
</glyph>
<glyph name="ordfeminine" format="2">
	<advance width="335"/>
	<unicode hex="00AA"/>
	<anchor x="163" y="527" name="bottom"/>
	<anchor x="293" y="532" name="ogonek"/>
	<anchor x="163" y="802" name="top"/>
	<outline>
		<contour>
			<point x="279" y="524" type="curve" smooth="yes"/>
			<point x="301" y="524"/>
			<point x="320" y="544"/>
			<point x="320" y="560" type="curve" smooth="yes"/>
			<point x="320" y="577"/>
			<point x="300" y="600"/>
			<point x="278" y="650" type="curve" smooth="yes"/>
			<point x="259" y="694"/>
			<point x="266" y="712"/>
			<point x="283" y="739" type="curve" smooth="yes"/>
			<point x="300" y="766"/>
			<point x="304" y="788"/>
			<point x="284" y="800" type="curve" smooth="yes"/>
			<point x="258" y="816"/>
			<point x="200" y="791"/>
			<point x="162" y="766" type="curve"/>
			<point x="237" y="762" type="line"/>
			<point x="202" y="797"/>
			<point x="173" y="815"/>
			<point x="120" y="815" type="curve" smooth="yes"/>
			<point x="50" y="815"/>
			<point x="10" y="772"/>
			<point x="19" y="747" type="curve" smooth="yes"/>
			<point x="24" y="734"/>
			<point x="41" y="730"/>
			<point x="66" y="740" type="curve" smooth="yes"/>
			<point x="92" y="751"/>
			<point x="133" y="751"/>
			<point x="164" y="721" type="curve"/>
			<point x="146" y="745" type="line"/>
			<point x="27" y="700"/>
			<point x="-17" y="567"/>
			<point x="35" y="529" type="curve" smooth="yes"/>
			<point x="75" y="499"/>
			<point x="192" y="556"/>
			<point x="218" y="652" type="curve"/>
			<point x="181" y="653" type="line"/>
			<point x="188" y="567"/>
			<point x="230" y="524"/>
		</contour>
		<contour>
			<point x="131" y="629" type="curve" smooth="yes"/>
			<point x="121" y="636"/>
			<point x="125" y="655"/>
			<point x="142" y="676" type="curve" smooth="yes"/>
			<point x="160" y="698"/>
			<point x="173" y="707"/>
			<point x="190" y="717" type="curve"/>
			<point x="170" y="717" type="line"/>
			<point x="186" y="698"/>
			<point x="186" y="669"/>
			<point x="170" y="648" type="curve" smooth="yes"/>
			<point x="155" y="629"/>
			<point x="141" y="622"/>
		</contour>
	</outline>
</glyph>
<glyph name="guillemotleft" format="2">
	<advance width="690"/>
	<unicode hex="00AB"/>
	<anchor x="433" y="283" name="_top"/>
	<anchor x="168" y="285" name="top"/>
	<outline>
		<contour>
			<point x="620" y="38" type="curve" smooth="yes"/>
			<point x="637" y="53"/>
			<point x="630" y="88"/>
			<point x="599" y="128" type="curve" smooth="yes"/>
			<point x="546" y="196"/>
			<point x="518" y="244"/>
			<point x="518" y="271" type="curve" smooth="yes"/>
			<point x="518" y="298"/>
			<point x="542" y="347"/>
			<point x="589" y="409" type="curve" smooth="yes"/>
			<point x="633" y="466"/>
			<point x="637" y="495"/>
			<point x="621" y="512" type="curve" smooth="yes"/>
			<point x="606" y="528"/>
			<point x="578" y="535"/>
			<point x="528" y="486" type="curve" smooth="yes"/>
			<point x="384" y="345" type="line" smooth="yes"/>
			<point x="317" y="279"/>
			<point x="317" y="268"/>
			<point x="384" y="204" type="curve" smooth="yes"/>
			<point x="536" y="61" type="line" smooth="yes"/>
			<point x="574" y="26"/>
			<point x="602" y="23"/>
		</contour>
		<contour>
			<point x="346" y="38" type="curve" smooth="yes"/>
			<point x="363" y="53"/>
			<point x="356" y="88"/>
			<point x="325" y="128" type="curve" smooth="yes"/>
			<point x="272" y="196"/>
			<point x="244" y="244"/>
			<point x="244" y="271" type="curve" smooth="yes"/>
			<point x="244" y="298"/>
			<point x="268" y="347"/>
			<point x="315" y="409" type="curve" smooth="yes"/>
			<point x="359" y="466"/>
			<point x="363" y="495"/>
			<point x="347" y="512" type="curve" smooth="yes"/>
			<point x="332" y="528"/>
			<point x="304" y="535"/>
			<point x="254" y="486" type="curve" smooth="yes"/>
			<point x="110" y="345" type="line" smooth="yes"/>
			<point x="43" y="279"/>
			<point x="43" y="268"/>
			<point x="110" y="204" type="curve" smooth="yes"/>
			<point x="262" y="61" type="line" smooth="yes"/>
			<point x="300" y="26"/>
			<point x="328" y="23"/>
		</contour>
	</outline>
</glyph>
<glyph name="logicalnot" format="2">
	<advance width="604"/>
	<unicode hex="00AC"/>
	<outline>
		<contour>
			<point x="120" y="347" type="curve" smooth="yes"/>
			<point x="184" y="347"/>
			<point x="215" y="358"/>
			<point x="298" y="358" type="curve" smooth="yes"/>
			<point x="382" y="358"/>
			<point x="415" y="347"/>
			<point x="480" y="347" type="curve" smooth="yes"/>
			<point x="530" y="347"/>
			<point x="550" y="377"/>
			<point x="550" y="422" type="curve" smooth="yes"/>
			<point x="550" y="465"/>
			<point x="530" y="493"/>
			<point x="480" y="493" type="curve" smooth="yes"/>
			<point x="415" y="493"/>
			<point x="382" y="483"/>
			<point x="298" y="482" type="curve" smooth="yes"/>
			<point x="214" y="481"/>
			<point x="184" y="493"/>
			<point x="120" y="493" type="curve" smooth="yes"/>
			<point x="70" y="493"/>
			<point x="50" y="464"/>
			<point x="50" y="421" type="curve" smooth="yes"/>
			<point x="50" y="377"/>
			<point x="70" y="347"/>
		</contour>
		<contour>
			<point x="480" y="133" type="curve" smooth="yes"/>
			<point x="524" y="133"/>
			<point x="554" y="153"/>
			<point x="554" y="203" type="curve" smooth="yes"/>
			<point x="554" y="247"/>
			<point x="545" y="258"/>
			<point x="545" y="311" type="curve" smooth="yes"/>
			<point x="545" y="365"/>
			<point x="554" y="378"/>
			<point x="554" y="423" type="curve" smooth="yes"/>
			<point x="554" y="473"/>
			<point x="524" y="493"/>
			<point x="479" y="493" type="curve" smooth="yes"/>
			<point x="436" y="493"/>
			<point x="408" y="473"/>
			<point x="408" y="423" type="curve" smooth="yes"/>
			<point x="408" y="358"/>
			<point x="417" y="405"/>
			<point x="419" y="351" type="curve" smooth="yes"/>
			<point x="421" y="297"/>
			<point x="408" y="267"/>
			<point x="408" y="203" type="curve" smooth="yes"/>
			<point x="408" y="153"/>
			<point x="437" y="133"/>
		</contour>
	</outline>
</glyph>
<glyph name="uni00AD" format="2">
	<advance width="420"/>
	<unicode hex="00AD"/>
	<outline>
		<contour>
			<point x="100" y="232" type="curve" smooth="yes"/>
			<point x="134" y="232"/>
			<point x="165" y="237"/>
			<point x="208" y="237" type="curve" smooth="yes"/>
			<point x="252" y="237"/>
			<point x="285" y="232"/>
			<point x="320" y="232" type="curve" smooth="yes"/>
			<point x="350" y="232"/>
			<point x="370" y="262"/>
			<point x="370" y="307" type="curve" smooth="yes"/>
			<point x="370" y="350"/>
			<point x="350" y="378"/>
			<point x="320" y="378" type="curve" smooth="yes"/>
			<point x="285" y="378"/>
			<point x="252" y="373"/>
			<point x="208" y="373" type="curve" smooth="yes"/>
			<point x="165" y="373"/>
			<point x="134" y="378"/>
			<point x="100" y="378" type="curve" smooth="yes"/>
			<point x="70" y="378"/>
			<point x="50" y="349"/>
			<point x="50" y="306" type="curve" smooth="yes"/>
			<point x="50" y="262"/>
			<point x="70" y="232"/>
		</contour>
	</outline>
</glyph>
<glyph name="degree" format="2">
	<advance width="418"/>
	<unicode hex="00B0"/>
	<outline>
		<contour>
			<point x="209" y="412" type="curve" smooth="yes"/>
			<point x="307" y="412"/>
			<point x="388" y="490"/>
			<point x="388" y="586" type="curve" smooth="yes"/>
			<point x="388" y="687"/>
			<point x="307" y="760"/>
			<point x="209" y="760" type="curve" smooth="yes"/>
			<point x="109" y="760"/>
			<point x="30" y="682"/>
			<point x="30" y="586" type="curve" smooth="yes"/>
			<point x="30" y="485"/>
			<point x="109" y="412"/>
		</contour>
		<contour>
			<point x="209" y="493" type="curve" smooth="yes"/>
			<point x="156" y="493"/>
			<point x="113" y="532"/>
			<point x="113" y="586" type="curve" smooth="yes"/>
			<point x="113" y="637"/>
			<point x="156" y="679"/>
			<point x="209" y="679" type="curve" smooth="yes"/>
			<point x="261" y="679"/>
			<point x="305" y="640"/>
			<point x="305" y="586" type="curve" smooth="yes"/>
			<point x="305" y="535"/>
			<point x="261" y="493"/>
		</contour>
	</outline>
</glyph>
<glyph name="plusminus" format="2">
	<advance width="660"/>
	<unicode hex="00B1"/>
	<outline>
		<contour>
			<point x="120" y="424" type="curve" smooth="yes"/>
			<point x="184" y="424"/>
			<point x="215" y="445"/>
			<point x="328" y="445" type="curve" smooth="yes"/>
			<point x="442" y="445"/>
			<point x="475" y="424"/>
			<point x="540" y="424" type="curve" smooth="yes"/>
			<point x="590" y="424"/>
			<point x="610" y="454"/>
			<point x="610" y="499" type="curve" smooth="yes"/>
			<point x="610" y="542"/>
			<point x="590" y="570"/>
			<point x="540" y="570" type="curve" smooth="yes"/>
			<point x="475" y="570"/>
			<point x="442" y="550"/>
			<point x="328" y="549" type="curve" smooth="yes"/>
			<point x="214" y="548"/>
			<point x="184" y="570"/>
			<point x="120" y="570" type="curve" smooth="yes"/>
			<point x="70" y="570"/>
			<point x="50" y="541"/>
			<point x="50" y="498" type="curve" smooth="yes"/>
			<point x="50" y="454"/>
			<point x="70" y="424"/>
		</contour>
		<contour>
			<point x="150" y="161" type="curve" smooth="yes"/>
			<point x="214" y="161"/>
			<point x="245" y="172"/>
			<point x="328" y="172" type="curve" smooth="yes"/>
			<point x="412" y="172"/>
			<point x="445" y="161"/>
			<point x="510" y="161" type="curve" smooth="yes"/>
			<point x="560" y="161"/>
			<point x="580" y="191"/>
			<point x="580" y="236" type="curve" smooth="yes"/>
			<point x="580" y="279"/>
			<point x="560" y="307"/>
			<point x="510" y="307" type="curve" smooth="yes"/>
			<point x="445" y="307"/>
			<point x="412" y="297"/>
			<point x="328" y="296" type="curve" smooth="yes"/>
			<point x="244" y="295"/>
			<point x="214" y="307"/>
			<point x="150" y="307" type="curve" smooth="yes"/>
			<point x="100" y="307"/>
			<point x="80" y="278"/>
			<point x="80" y="235" type="curve" smooth="yes"/>
			<point x="80" y="191"/>
			<point x="100" y="161"/>
		</contour>
		<contour>
			<point x="332" y="327" type="curve" smooth="yes"/>
			<point x="375" y="327"/>
			<point x="403" y="347"/>
			<point x="403" y="397" type="curve" smooth="yes"/>
			<point x="403" y="432"/>
			<point x="379" y="444"/>
			<point x="382" y="499" type="curve" smooth="yes"/>
			<point x="385" y="552"/>
			<point x="403" y="563"/>
			<point x="403" y="597" type="curve" smooth="yes"/>
			<point x="403" y="647"/>
			<point x="374" y="667"/>
			<point x="331" y="667" type="curve" smooth="yes"/>
			<point x="287" y="667"/>
			<point x="257" y="647"/>
			<point x="257" y="597" type="curve" smooth="yes"/>
			<point x="257" y="563"/>
			<point x="275" y="552"/>
			<point x="278" y="499" type="curve" smooth="yes"/>
			<point x="281" y="444"/>
			<point x="257" y="432"/>
			<point x="257" y="397" type="curve" smooth="yes"/>
			<point x="257" y="347"/>
			<point x="287" y="327"/>
		</contour>
	</outline>
</glyph>
<glyph name="uni00B3" format="2">
	<advance width="362"/>
	<unicode hex="00B3"/>
	<outline>
		<contour>
			<point x="184" y="515" type="curve" smooth="yes"/>
			<point x="267" y="515"/>
			<point x="347" y="565"/>
			<point x="347" y="641" type="curve" smooth="yes"/>
			<point x="347" y="708"/>
			<point x="293" y="729"/>
			<point x="248" y="731" type="curve"/>
			<point x="294" y="752"/>
			<point x="325" y="788"/>
			<point x="326" y="833" type="curve" smooth="yes"/>
			<point x="328" y="882"/>
			<point x="294" y="897"/>
			<point x="256" y="897" type="curve" smooth="yes"/>
			<point x="222" y="897"/>
			<point x="196" y="888"/>
			<point x="167" y="888" type="curve" smooth="yes"/>
			<point x="140" y="888"/>
			<point x="103" y="892"/>
			<point x="76" y="896" type="curve" smooth="yes"/>
			<point x="61" y="898"/>
			<point x="50" y="897"/>
			<point x="51" y="881" type="curve" smooth="yes"/>
			<point x="51" y="872"/>
			<point x="61" y="845"/>
			<point x="59" y="815" type="curve" smooth="yes"/>
			<point x="58" y="786"/>
			<point x="43" y="747"/>
			<point x="62" y="741" type="curve" smooth="yes"/>
			<point x="77" y="735"/>
			<point x="91" y="747"/>
			<point x="110" y="778" type="curve" smooth="yes"/>
			<point x="136" y="820"/>
			<point x="158" y="829"/>
			<point x="191" y="829" type="curve" smooth="yes"/>
			<point x="210" y="829"/>
			<point x="225" y="817"/>
			<point x="225" y="801" type="curve" smooth="yes"/>
			<point x="225" y="784"/>
			<point x="203" y="770"/>
			<point x="121" y="721" type="curve" smooth="yes"/>
			<point x="110" y="714"/>
			<point x="109" y="704"/>
			<point x="113" y="698" type="curve" smooth="yes"/>
			<point x="123" y="679"/>
			<point x="138" y="676"/>
			<point x="159" y="682" type="curve" smooth="yes"/>
			<point x="213" y="697"/>
			<point x="240" y="682"/>
			<point x="240" y="650" type="curve" smooth="yes"/>
			<point x="240" y="619"/>
			<point x="201" y="600"/>
			<point x="167" y="600" type="curve" smooth="yes"/>
			<point x="128" y="600"/>
			<point x="98" y="608"/>
			<point x="55" y="641" type="curve" smooth="yes"/>
			<point x="42" y="651"/>
			<point x="30" y="658"/>
			<point x="22" y="653" type="curve" smooth="yes"/>
			<point x="14" y="648"/>
			<point x="13" y="635"/>
			<point x="20" y="620" type="curve" smooth="yes"/>
			<point x="50" y="556"/>
			<point x="96" y="515"/>
		</contour>
	</outline>
</glyph>
